999
"DXF R12 Output" (www.mydxf.blogspot.com)
 0 
SECTION
 2 
HEADER
 9 
$ACADVER
 1 
AC1009
 9 
$EXTMIN
 10 
 0 
 20 
 0 
 9 
$EXTMAX
 10 
 8.5 
 20 
 11 
 0 
ENDSEC
 0 
SECTION
 2 
ENTITIES
0
LINE
8
Lager 1
10
-62.939500
20
-13.096700
11
-62.499700
21
-12.967800
0
LINE
8
Lager 1
10
-62.499700
20
-12.967800
11
-61.919100
21
-12.748800
0
LINE
8
Lager 1
10
-61.919100
20
-12.748800
11
-61.374000
21
-12.446000
0
LINE
8
Lager 1
10
-61.374000
20
-12.446000
11
-61.133200
21
-12.325200
0
LINE
8
Lager 1
10
-61.133200
20
-12.325200
11
-61.093800
21
-12.423000
0
LINE
8
Lager 1
10
-61.093800
20
-12.423000
11
-61.182100
21
-12.650600
0
LINE
8
Lager 1
10
-61.182100
20
-12.650600
11
-61.287100
21
-13.284300
0
LINE
8
Lager 1
10
-61.287100
20
-13.284300
11
-61.297500
21
-13.931700
0
LINE
8
Lager 1
10
-61.297500
20
-13.931700
11
-61.237900
21
-14.575600
0
LINE
8
Lager 1
10
-61.237900
20
-14.575600
11
-61.070688
21
-14.949025
0
LINE
8
Lager 1
10
-61.070688
20
-14.949025
11
-60.995786
21
-14.987575
0
LINE
8
Lager 1
10
-60.995786
20
-14.987575
11
-60.963700
21
-14.885500
0
LINE
8
Lager 1
10
-60.963700
20
-14.885500
11
-60.599400
21
-14.316500
0
LINE
8
Lager 1
10
-60.599400
20
-14.316500
11
-60.541200
21
-14.447100
0
LINE
8
Lager 1
10
-60.541200
20
-14.447100
11
-60.656300
21
-14.987800
0
LINE
8
Lager 1
10
-60.656300
20
-14.987800
11
-60.719300
21
-15.537300
0
LINE
8
Lager 1
10
-60.719300
20
-15.537300
11
-60.731200
21
-16.090000
0
LINE
8
Lager 1
10
-60.731200
20
-16.090000
11
-60.639900
21
-16.808300
0
LINE
8
Lager 1
10
-60.639900
20
-16.808300
11
-60.500600
21
-17.518900
0
LINE
8
Lager 1
10
-60.500600
20
-17.518900
11
-60.281200
21
-18.201300
0
LINE
8
Lager 1
10
-60.281200
20
-18.201300
11
-60.029800
21
-17.761500
0
LINE
8
Lager 1
10
-60.029800
20
-17.761500
11
-59.733700
21
-17.222300
0
LINE
8
Lager 1
10
-59.733700
20
-17.222300
11
-59.642250
21
-17.193600
0
LINE
8
Lager 1
10
-59.642250
20
-17.193600
11
-59.676800
21
-17.459500
0
LINE
8
Lager 1
10
-59.676800
20
-17.459500
11
-59.726100
21
-17.957400
0
LINE
8
Lager 1
10
-59.726100
20
-17.957400
11
-59.719200
21
-18.457900
0
LINE
8
Lager 1
10
-59.719200
20
-18.457900
11
-59.649800
21
-18.953000
0
LINE
8
Lager 1
10
-59.649800
20
-18.953000
11
-59.582500
21
-19.276800
0
LINE
8
Lager 1
10
-59.582500
20
-19.276800
11
-59.345500
21
-19.276800
0
LINE
8
Lager 1
10
-59.345500
20
-19.276800
11
-59.392300
21
-18.787000
0
LINE
8
Lager 1
10
-59.392300
20
-18.787000
11
-59.430200
21
-18.108000
0
LINE
8
Lager 1
10
-59.430200
20
-18.108000
11
-59.393000
21
-17.429100
0
LINE
8
Lager 1
10
-59.393000
20
-17.429100
11
-59.224300
21
-16.772100
0
LINE
8
Lager 1
10
-59.224300
20
-16.772100
11
-59.311900
21
-16.640800
0
LINE
8
Lager 1
10
-59.311900
20
-16.640800
11
-59.755900
21
-16.956200
0
LINE
8
Lager 1
10
-59.755900
20
-16.956200
11
-60.060500
21
-17.419100
0
LINE
8
Lager 1
10
-60.060500
20
-17.419100
11
-60.192900
21
-17.716700
0
LINE
8
Lager 1
10
-60.192900
20
-17.716700
11
-60.281600
21
-17.155900
0
LINE
8
Lager 1
10
-60.281600
20
-17.155900
11
-60.343400
21
-16.554300
0
LINE
8
Lager 1
10
-60.343400
20
-16.554300
11
-60.363300
21
-15.949800
0
LINE
8
Lager 1
10
-60.363300
20
-15.949800
11
-60.348200
21
-15.345100
0
LINE
8
Lager 1
10
-60.348200
20
-15.345100
11
-60.224600
21
-14.769300
0
LINE
8
Lager 1
10
-60.224600
20
-14.769300
11
-59.743900
21
-15.183600
0
LINE
8
Lager 1
10
-59.743900
20
-15.183600
11
-59.342400
21
-15.534400
0
LINE
8
Lager 1
10
-59.342400
20
-15.534400
11
-58.897400
21
-15.826900
0
LINE
8
Lager 1
10
-58.897400
20
-15.826900
11
-58.391500
21
-15.987300
0
LINE
8
Lager 1
10
-58.391500
20
-15.987300
11
-58.092888
21
-16.155675
0
LINE
8
Lager 1
10
-58.092888
20
-16.155675
11
-58.082200
21
-16.411800
0
LINE
8
Lager 1
10
-58.082200
20
-16.411800
11
-58.064000
21
-16.486700
0
LINE
8
Lager 1
10
-58.064000
20
-16.486700
11
-57.862600
21
-16.820100
0
LINE
8
Lager 1
10
-57.862600
20
-16.820100
11
-57.686500
21
-17.176200
0
LINE
8
Lager 1
10
-57.686500
20
-17.176200
11
-57.654100
21
-17.344500
0
LINE
8
Lager 1
10
-57.654100
20
-17.344500
11
-57.654100
21
-17.421400
0
LINE
8
Lager 1
10
-57.654100
20
-17.421400
11
-57.409500
21
-17.756100
0
LINE
8
Lager 1
10
-57.409500
20
-17.756100
11
-57.209300
21
-18.134100
0
LINE
8
Lager 1
10
-57.209300
20
-18.134100
11
-56.988300
21
-18.558600
0
LINE
8
Lager 1
10
-56.988300
20
-18.558600
11
-56.736100
21
-18.963400
0
LINE
8
Lager 1
10
-56.736100
20
-18.963400
11
-56.536700
21
-19.266900
0
LINE
8
Lager 1
10
-56.536700
20
-19.266900
11
-56.522800
21
-19.276800
0
LINE
8
Lager 1
10
-56.522800
20
-19.276800
11
-56.231900
21
-19.276800
0
LINE
8
Lager 1
10
-56.231900
20
-19.276800
11
-56.319000
21
-19.195900
0
LINE
8
Lager 1
10
-56.319000
20
-19.195900
11
-56.418600
21
-19.006000
0
LINE
8
Lager 1
10
-56.418600
20
-19.006000
11
-56.673500
21
-18.640200
0
LINE
8
Lager 1
10
-56.673500
20
-18.640200
11
-56.923900
21
-18.271400
0
LINE
8
Lager 1
10
-56.923900
20
-18.271400
11
-57.105700
21
-17.911100
0
LINE
8
Lager 1
10
-57.105700
20
-17.911100
11
-57.297200
21
-17.556000
0
LINE
8
Lager 1
10
-57.297200
20
-17.556000
11
-57.539600
21
-17.053800
0
LINE
8
Lager 1
10
-57.539600
20
-17.053800
11
-57.746800
21
-16.535900
0
LINE
8
Lager 1
10
-57.746800
20
-16.535900
11
-57.881800
21
-16.000800
0
LINE
8
Lager 1
10
-57.881800
20
-16.000800
11
-57.336400
21
-15.949200
0
LINE
8
Lager 1
10
-57.336400
20
-15.949200
11
-56.882100
21
-15.914600
0
LINE
8
Lager 1
10
-56.882100
20
-15.914600
11
-56.475100
21
-15.737100
0
LINE
8
Lager 1
10
-56.475100
20
-15.737100
11
-56.442000
21
-15.703300
0
LINE
8
Lager 1
10
-56.442000
20
-15.703300
11
-56.433600
21
-15.702700
0
LINE
8
Lager 1
10
-56.433600
20
-15.702700
11
-56.297600
21
-16.098900
0
LINE
8
Lager 1
10
-56.297600
20
-16.098900
11
-56.199000
21
-16.511600
0
LINE
8
Lager 1
10
-56.199000
20
-16.511600
11
-55.996500
21
-17.168800
0
LINE
8
Lager 1
10
-55.996500
20
-17.168800
11
-55.757800
21
-17.814200
0
LINE
8
Lager 1
10
-55.757800
20
-17.814200
11
-55.497900
21
-18.451200
0
LINE
8
Lager 1
10
-55.497900
20
-18.451200
11
-55.205800
21
-19.073900
0
LINE
8
Lager 1
10
-55.205800
20
-19.073900
11
-55.106400
21
-19.276800
0
LINE
8
Lager 1
10
-55.106400
20
-19.276800
11
-54.919200
21
-19.276800
0
LINE
8
Lager 1
10
-54.919200
20
-19.276800
11
-54.920100
21
-19.275500
0
LINE
8
Lager 1
10
-54.920100
20
-19.275500
11
-55.179500
21
-18.789700
0
LINE
8
Lager 1
10
-55.179500
20
-18.789700
11
-55.414000
21
-18.291400
0
LINE
8
Lager 1
10
-55.414000
20
-18.291400
11
-55.609700
21
-17.777800
0
LINE
8
Lager 1
10
-55.609700
20
-17.777800
11
-55.340500
21
-17.183900
0
LINE
8
Lager 1
10
-55.340500
20
-17.183900
11
-54.887400
21
-16.702700
0
LINE
8
Lager 1
10
-54.887400
20
-16.702700
11
-54.365400
21
-16.296400
0
LINE
8
Lager 1
10
-54.365400
20
-16.296400
11
-53.794100
21
-15.962700
0
LINE
8
Lager 1
10
-53.794100
20
-15.962700
11
-53.273300
21
-15.752000
0
LINE
8
Lager 1
10
-53.273300
20
-15.752000
11
-52.734700
21
-15.592100
0
LINE
8
Lager 1
10
-52.734700
20
-15.592100
11
-52.181300
21
-15.501500
0
LINE
8
Lager 1
10
-52.181300
20
-15.501500
11
-51.964925
21
-15.562400
0
LINE
8
Lager 1
10
-51.964925
20
-15.562400
11
-51.860900
21
-15.933500
0
LINE
8
Lager 1
10
-51.860900
20
-15.933500
11
-51.747300
21
-16.384300
0
LINE
8
Lager 1
10
-51.747300
20
-16.384300
11
-51.601200
21
-16.825700
0
LINE
8
Lager 1
10
-51.601200
20
-16.825700
11
-51.424500
21
-17.325100
0
LINE
8
Lager 1
10
-51.424500
20
-17.325100
11
-51.667900
21
-17.410600
0
LINE
8
Lager 1
10
-51.667900
20
-17.410600
11
-52.268600
21
-17.582300
0
LINE
8
Lager 1
10
-52.268600
20
-17.582300
11
-52.852700
21
-17.804700
0
LINE
8
Lager 1
10
-52.852700
20
-17.804700
11
-53.418100
21
-18.071100
0
LINE
8
Lager 1
10
-53.418100
20
-18.071100
11
-53.902100
21
-18.419100
0
LINE
8
Lager 1
10
-53.902100
20
-18.419100
11
-54.345400
21
-18.818600
0
LINE
8
Lager 1
10
-54.345400
20
-18.818600
11
-54.722700
21
-19.276800
0
LINE
8
Lager 1
10
-54.722700
20
-19.276800
11
-54.567200
21
-19.276800
0
LINE
8
Lager 1
10
-54.567200
20
-19.276800
11
-54.105200
21
-18.751200
0
LINE
8
Lager 1
10
-54.105200
20
-18.751200
11
-53.676100
21
-18.383500
0
LINE
8
Lager 1
10
-53.676100
20
-18.383500
11
-53.202700
21
-18.074800
0
LINE
8
Lager 1
10
-53.202700
20
-18.074800
11
-52.695800
21
-17.824600
0
LINE
8
Lager 1
10
-52.695800
20
-17.824600
11
-52.162200
21
-17.638400
0
LINE
8
Lager 1
10
-52.162200
20
-17.638400
11
-51.578300
21
-17.522200
0
LINE
8
Lager 1
10
-51.578300
20
-17.522200
11
-51.321263
21
-17.615575
0
LINE
8
Lager 1
10
-51.321263
20
-17.615575
11
-51.135100
21
-17.919400
0
LINE
8
Lager 1
10
-51.135100
20
-17.919400
11
-50.952900
21
-18.276300
0
LINE
8
Lager 1
10
-50.952900
20
-18.276300
11
-50.748500
21
-18.620900
0
LINE
8
Lager 1
10
-50.748500
20
-18.620900
11
-50.552550
21
-19.002900
0
LINE
8
Lager 1
10
-50.552550
20
-19.002900
11
-50.719300
21
-19.097200
0
LINE
8
Lager 1
10
-50.719300
20
-19.097200
11
-51.224400
21
-19.216100
0
LINE
8
Lager 1
10
-51.224400
20
-19.216100
11
-51.558800
21
-19.276800
0
LINE
8
Lager 1
10
-51.558800
20
-19.276800
11
-51.000500
21
-19.276800
0
LINE
8
Lager 1
10
-51.000500
20
-19.276800
11
-50.636300
21
-19.205100
0
LINE
8
Lager 1
10
-50.636300
20
-19.205100
11
-50.392600
21
-19.186200
0
LINE
8
Lager 1
10
-50.392600
20
-19.186200
11
-50.244600
21
-19.240700
0
LINE
8
Lager 1
10
-50.244600
20
-19.240700
11
-50.267700
21
-19.276800
0
LINE
8
Lager 1
10
-50.267700
20
-19.276800
11
-49.835000
21
-19.276800
0
LINE
8
Lager 1
10
-49.835000
20
-19.276800
11
-50.107200
21
-18.923700
0
LINE
8
Lager 1
10
-50.107200
20
-18.923700
11
-50.480000
21
-18.332300
0
LINE
8
Lager 1
10
-50.480000
20
-18.332300
11
-50.812800
21
-17.716900
0
LINE
8
Lager 1
10
-50.812800
20
-17.716900
11
-51.123800
21
-17.090300
0
LINE
8
Lager 1
10
-51.123800
20
-17.090300
11
-51.410400
21
-16.452200
0
LINE
8
Lager 1
10
-51.410400
20
-16.452200
11
-51.581300
21
-15.899600
0
LINE
8
Lager 1
10
-51.581300
20
-15.899600
11
-51.675800
21
-15.328600
0
LINE
8
Lager 1
10
-51.675800
20
-15.328600
11
-51.685400
21
-14.750400
0
LINE
8
Lager 1
10
-51.685400
20
-14.750400
11
-51.610300
21
-14.346000
0
LINE
8
Lager 1
10
-51.610300
20
-14.346000
11
-51.303700
21
-14.424700
0
LINE
8
Lager 1
10
-51.303700
20
-14.424700
11
-50.799900
21
-14.529200
0
LINE
8
Lager 1
10
-50.799900
20
-14.529200
11
-50.293700
21
-14.396100
0
LINE
8
Lager 1
10
-50.293700
20
-14.396100
11
-49.788100
21
-14.057300
0
LINE
8
Lager 1
10
-49.788100
20
-14.057300
11
-49.392500
21
-13.579800
0
LINE
8
Lager 1
10
-49.392500
20
-13.579800
11
-49.059300
21
-13.056700
0
LINE
8
Lager 1
10
-49.059300
20
-13.056700
11
-48.815900
21
-12.487300
0
LINE
8
Lager 1
10
-48.815900
20
-12.487300
11
-48.712800
21
-11.932900
0
LINE
8
Lager 1
10
-48.712800
20
-11.932900
11
-48.792500
21
-11.378200
0
LINE
8
Lager 1
10
-48.792500
20
-11.378200
11
-49.048100
21
-10.875500
0
LINE
8
Lager 1
10
-49.048100
20
-10.875500
11
-49.129200
21
-10.482800
0
LINE
8
Lager 1
10
-49.129200
20
-10.482800
11
-48.968200
21
-10.374100
0
LINE
8
Lager 1
10
-48.968200
20
-10.374100
11
-48.725600
21
-10.208000
0
LINE
8
Lager 1
10
-48.725600
20
-10.208000
11
-48.321100
21
-9.852100
0
LINE
8
Lager 1
10
-48.321100
20
-9.852100
11
-47.891400
21
-9.526910
0
LINE
8
Lager 1
10
-47.891400
20
-9.526910
11
-47.346800
21
-9.088660
0
LINE
8
Lager 1
10
-47.346800
20
-9.088660
11
-47.102900
21
-8.866590
0
LINE
8
Lager 1
10
-47.102900
20
-8.866590
11
-46.898000
21
-9.065890
0
LINE
8
Lager 1
10
-46.898000
20
-9.065890
11
-46.589875
21
-9.212039
0
LINE
8
Lager 1
10
-46.589875
20
-9.212039
11
-46.567500
21
-8.870620
0
LINE
8
Lager 1
10
-46.567500
20
-8.870620
11
-46.641000
21
-8.596730
0
LINE
8
Lager 1
10
-46.641000
20
-8.596730
11
-46.214700
21
-8.289460
0
LINE
8
Lager 1
10
-46.214700
20
-8.289460
11
-45.750700
21
-7.936260
0
LINE
8
Lager 1
10
-45.750700
20
-7.936260
11
-45.431700
21
-7.684470
0
LINE
8
Lager 1
10
-45.431700
20
-7.684470
11
-45.080900
21
-7.479420
0
LINE
8
Lager 1
10
-45.080900
20
-7.479420
11
-44.708700
21
-7.215010
0
LINE
8
Lager 1
10
-44.708700
20
-7.215010
11
-44.421188
21
-7.017675
0
LINE
8
Lager 1
10
-44.421188
20
-7.017675
11
-44.055000
21
-6.977480
0
LINE
8
Lager 1
10
-44.055000
20
-6.977480
11
-43.703550
21
-7.018160
0
LINE
8
Lager 1
10
-43.703550
20
-7.018160
11
-43.520400
21
-7.233680
0
LINE
8
Lager 1
10
-43.520400
20
-7.233680
11
-43.325000
21
-7.664680
0
LINE
8
Lager 1
10
-43.325000
20
-7.664680
11
-43.158600
21
-8.075000
0
LINE
8
Lager 1
10
-43.158600
20
-8.075000
11
-42.999650
21
-8.162157
0
LINE
8
Lager 1
10
-42.999650
20
-8.162157
11
-42.841300
21
-7.976360
0
LINE
8
Lager 1
10
-42.841300
20
-7.976360
11
-42.633700
21
-7.518180
0
LINE
8
Lager 1
10
-42.633700
20
-7.518180
11
-42.445500
21
-7.051700
0
LINE
8
Lager 1
10
-42.445500
20
-7.051700
11
-42.305200
21
-6.570150
0
LINE
8
Lager 1
10
-42.305200
20
-6.570150
11
-42.192600
21
-6.394520
0
LINE
8
Lager 1
10
-42.192600
20
-6.394520
11
-41.845600
21
-6.015040
0
LINE
8
Lager 1
10
-41.845600
20
-6.015040
11
-41.618300
21
-5.539390
0
LINE
8
Lager 1
10
-41.618300
20
-5.539390
11
-41.481100
21
-5.031320
0
LINE
8
Lager 1
10
-41.481100
20
-5.031320
11
-41.095500
21
-4.692690
0
LINE
8
Lager 1
10
-41.095500
20
-4.692690
11
-40.636300
21
-4.362190
0
LINE
8
Lager 1
10
-40.636300
20
-4.362190
11
-40.212900
21
-3.986890
0
LINE
8
Lager 1
10
-40.212900
20
-3.986890
11
-39.861500
21
-3.546260
0
LINE
8
Lager 1
10
-39.861500
20
-3.546260
11
-39.721000
21
-3.149230
0
LINE
8
Lager 1
10
-39.721000
20
-3.149230
11
-39.831000
21
-2.746830
0
LINE
8
Lager 1
10
-39.831000
20
-2.746830
11
-39.961500
21
-2.096960
0
LINE
8
Lager 1
10
-39.961500
20
-2.096960
11
-40.156700
21
-1.485200
0
LINE
8
Lager 1
10
-40.156700
20
-1.485200
11
-40.677600
21
-1.095780
0
LINE
8
Lager 1
10
-40.677600
20
-1.095780
11
-41.100800
21
-0.816590
0
LINE
8
Lager 1
10
-41.100800
20
-0.816590
11
-41.480800
21
-0.479890
0
LINE
8
Lager 1
10
-41.480800
20
-0.479890
11
-41.946000
21
-0.011880
0
LINE
8
Lager 1
10
-41.946000
20
-0.011880
11
-41.874200
21
0.398371
0
LINE
8
Lager 1
10
-41.874200
20
0.398371
11
-41.838000
21
1.029050
0
LINE
8
Lager 1
10
-41.838000
20
1.029050
11
-42.062400
21
1.610060
0
LINE
8
Lager 1
10
-42.062400
20
1.610060
11
-42.622500
21
1.874300
0
LINE
8
Lager 1
10
-42.622500
20
1.874300
11
-43.291700
21
1.756340
0
LINE
8
Lager 1
10
-43.291700
20
1.756340
11
-43.816100
21
1.312950
0
LINE
8
Lager 1
10
-43.816100
20
1.312950
11
-44.260900
21
0.919137
0
LINE
8
Lager 1
10
-44.260900
20
0.919137
11
-44.852200
21
0.826858
0
LINE
8
Lager 1
10
-44.852200
20
0.826858
11
-45.352600
21
0.746340
0
LINE
8
Lager 1
10
-45.352600
20
0.746340
11
-45.840800
21
0.610027
0
LINE
8
Lager 1
10
-45.840800
20
0.610027
11
-46.300500
21
0.399253
0
LINE
8
Lager 1
10
-46.300500
20
0.399253
11
-46.677100
21
0.324163
0
LINE
8
Lager 1
10
-46.677100
20
0.324163
11
-47.018900
21
0.540568
0
LINE
8
Lager 1
10
-47.018900
20
0.540568
11
-47.622300
21
0.919853
0
LINE
8
Lager 1
10
-47.622300
20
0.919853
11
-48.286700
21
1.175950
0
LINE
8
Lager 1
10
-48.286700
20
1.175950
11
-48.994000
21
1.247470
0
LINE
8
Lager 1
10
-48.994000
20
1.247470
11
-49.688100
21
1.095060
0
LINE
8
Lager 1
10
-49.688100
20
1.095060
11
-50.004200
21
0.885848
0
LINE
8
Lager 1
10
-50.004200
20
0.885848
11
-50.206200
21
0.560991
0
LINE
8
Lager 1
10
-50.206200
20
0.560991
11
-50.407700
21
-0.093294
0
LINE
8
Lager 1
10
-50.407700
20
-0.093294
11
-50.389600
21
-0.778583
0
LINE
8
Lager 1
10
-50.389600
20
-0.778583
11
-50.180600
21
-1.432020
0
LINE
8
Lager 1
10
-50.180600
20
-1.432020
11
-49.812000
21
-2.010940
0
LINE
8
Lager 1
10
-49.812000
20
-2.010940
11
-49.489400
21
-2.589650
0
LINE
8
Lager 1
10
-49.489400
20
-2.589650
11
-49.588900
21
-3.237050
0
LINE
8
Lager 1
10
-49.588900
20
-3.237050
11
-49.750100
21
-3.684630
0
LINE
8
Lager 1
10
-49.750100
20
-3.684630
11
-49.957900
21
-4.005940
0
LINE
8
Lager 1
10
-49.957900
20
-4.005940
11
-50.336100
21
-4.306490
0
LINE
8
Lager 1
10
-50.336100
20
-4.306490
11
-50.759000
21
-4.525570
0
LINE
8
Lager 1
10
-50.759000
20
-4.525570
11
-50.820100
21
-3.785280
0
LINE
8
Lager 1
10
-50.820100
20
-3.785280
11
-50.872600
21
-3.209870
0
LINE
8
Lager 1
10
-50.872600
20
-3.209870
11
-51.025800
21
-2.655210
0
LINE
8
Lager 1
10
-51.025800
20
-2.655210
11
-51.218050
21
-2.434561
0
LINE
8
Lager 1
10
-51.218050
20
-2.434561
11
-51.487400
21
-2.365630
0
LINE
8
Lager 1
10
-51.487400
20
-2.365630
11
-51.906200
21
-2.473080
0
LINE
8
Lager 1
10
-51.906200
20
-2.473080
11
-52.215500
21
-2.625260
0
LINE
8
Lager 1
10
-52.215500
20
-2.625260
11
-52.435200
21
-2.848830
0
LINE
8
Lager 1
10
-52.435200
20
-2.848830
11
-52.578200
21
-3.028040
0
LINE
8
Lager 1
10
-52.578200
20
-3.028040
11
-52.713500
21
-2.522810
0
LINE
8
Lager 1
10
-52.713500
20
-2.522810
11
-52.843200
21
-1.945980
0
LINE
8
Lager 1
10
-52.843200
20
-1.945980
11
-52.999400
21
-1.375800
0
LINE
8
Lager 1
10
-52.999400
20
-1.375800
11
-53.174600
21
-0.810975
0
LINE
8
Lager 1
10
-53.174600
20
-0.810975
11
-53.384900
21
-0.258788
0
LINE
8
Lager 1
10
-53.384900
20
-0.258788
11
-53.656000
21
0.125157
0
LINE
8
Lager 1
10
-53.656000
20
0.125157
11
-54.017700
21
0.400126
0
LINE
8
Lager 1
10
-54.017700
20
0.400126
11
-53.977000
21
-0.201478
0
LINE
8
Lager 1
10
-53.977000
20
-0.201478
11
-53.930000
21
-0.806084
0
LINE
8
Lager 1
10
-53.930000
20
-0.806084
11
-53.948700
21
-1.412710
0
LINE
8
Lager 1
10
-53.948700
20
-1.412710
11
-53.991500
21
-2.018260
0
LINE
8
Lager 1
10
-53.991500
20
-2.018260
11
-54.046000
21
-2.687090
0
LINE
8
Lager 1
10
-54.046000
20
-2.687090
11
-54.113900
21
-3.354730
0
LINE
8
Lager 1
10
-54.113900
20
-3.354730
11
-54.218888
21
-3.793932
0
LINE
8
Lager 1
10
-54.218888
20
-3.793932
11
-54.391000
21
-3.914310
0
LINE
8
Lager 1
10
-54.391000
20
-3.914310
11
-54.961500
21
-3.664990
0
LINE
8
Lager 1
10
-54.961500
20
-3.664990
11
-55.443900
21
-3.235700
0
LINE
8
Lager 1
10
-55.443900
20
-3.235700
11
-55.892400
21
-2.886540
0
LINE
8
Lager 1
10
-55.892400
20
-2.886540
11
-56.396700
21
-2.625040
0
LINE
8
Lager 1
10
-56.396700
20
-2.625040
11
-56.945800
21
-2.481750
0
LINE
8
Lager 1
10
-56.945800
20
-2.481750
11
-57.505900
21
-2.541110
0
LINE
8
Lager 1
10
-57.505900
20
-2.541110
11
-57.915700
21
-3.013550
0
LINE
8
Lager 1
10
-57.915700
20
-3.013550
11
-58.148800
21
-3.600620
0
LINE
8
Lager 1
10
-58.148800
20
-3.600620
11
-58.246500
21
-3.804400
0
LINE
8
Lager 1
10
-58.246500
20
-3.804400
11
-58.630300
21
-3.247800
0
LINE
8
Lager 1
10
-58.630300
20
-3.247800
11
-58.928900
21
-2.639900
0
LINE
8
Lager 1
10
-58.928900
20
-2.639900
11
-59.232300
21
-2.034240
0
LINE
8
Lager 1
10
-59.232300
20
-2.034240
11
-59.470400
21
-1.382770
0
LINE
8
Lager 1
10
-59.470400
20
-1.382770
11
-59.658600
21
-0.713970
0
LINE
8
Lager 1
10
-59.658600
20
-0.713970
11
-59.799300
21
-0.358109
0
LINE
8
Lager 1
10
-59.799300
20
-0.358109
11
-60.037500
21
-0.932211
0
LINE
8
Lager 1
10
-60.037500
20
-0.932211
11
-60.189600
21
-1.541480
0
LINE
8
Lager 1
10
-60.189600
20
-1.541480
11
-60.257900
21
-2.167230
0
LINE
8
Lager 1
10
-60.257900
20
-2.167230
11
-60.255300
21
-2.796930
0
LINE
8
Lager 1
10
-60.255300
20
-2.796930
11
-60.200200
21
-3.424320
0
LINE
8
Lager 1
10
-60.200200
20
-3.424320
11
-60.097900
21
-4.045740
0
LINE
8
Lager 1
10
-60.097900
20
-4.045740
11
-59.943900
21
-4.656470
0
LINE
8
Lager 1
10
-59.943900
20
-4.656470
11
-59.721600
21
-5.245260
0
LINE
8
Lager 1
10
-59.721600
20
-5.245260
11
-59.548000
21
-5.711950
0
LINE
8
Lager 1
10
-59.548000
20
-5.711950
11
-59.877300
21
-6.130190
0
LINE
8
Lager 1
10
-59.877300
20
-6.130190
11
-60.324900
21
-6.429990
0
LINE
8
Lager 1
10
-60.324900
20
-6.429990
11
-60.887100
21
-6.784830
0
LINE
8
Lager 1
10
-60.887100
20
-6.784830
11
-61.366700
21
-7.246970
0
LINE
8
Lager 1
10
-61.366700
20
-7.246970
11
-61.712500
21
-7.810660
0
LINE
8
Lager 1
10
-61.712500
20
-7.810660
11
-61.766500
21
-8.368610
0
LINE
8
Lager 1
10
-61.766500
20
-8.368610
11
-61.692800
21
-8.922670
0
LINE
8
Lager 1
10
-61.692800
20
-8.922670
11
-61.679100
21
-9.287140
0
LINE
8
Lager 1
10
-61.679100
20
-9.287140
11
-61.931300
21
-9.576340
0
LINE
8
Lager 1
10
-61.931300
20
-9.576340
11
-62.119400
21
-9.898620
0
LINE
8
Lager 1
10
-62.119400
20
-9.898620
11
-62.258800
21
-10.245900
0
LINE
8
Lager 1
10
-62.258800
20
-10.245900
11
-62.393700
21
-10.631800
0
LINE
8
Lager 1
10
-62.393700
20
-10.631800
11
-62.536000
21
-11.015100
0
LINE
8
Lager 1
10
-62.536000
20
-11.015100
11
-62.672400
21
-11.414400
0
LINE
8
Lager 1
10
-62.672400
20
-11.414400
11
-62.847700
21
-11.796800
0
LINE
8
Lager 1
10
-62.847700
20
-11.796800
11
-63.096200
21
-12.234000
0
LINE
8
Lager 1
10
-63.096200
20
-12.234000
11
-63.367300
21
-12.695100
0
LINE
8
Lager 1
10
-63.367300
20
-12.695100
11
-63.451000
21
-13.190500
0
LINE
8
Lager 1
10
-63.451000
20
-13.190500
11
-62.939500
21
-13.096700
0
LINE
8
Lager 1
10
-62.939500
20
-13.096700
11
-62.939500
21
-13.096700
0
LINE
8
Lager 1
10
-42.664600
20
1.515660
11
-42.263900
21
1.397760
0
LINE
8
Lager 1
10
-42.263900
20
1.397760
11
-42.066900
21
1.034530
0
LINE
8
Lager 1
10
-42.066900
20
1.034530
11
-42.091500
21
0.495489
0
LINE
8
Lager 1
10
-42.091500
20
0.495489
11
-42.242800
21
0.245512
0
LINE
8
Lager 1
10
-42.242800
20
0.245512
11
-42.301000
21
0.691792
0
LINE
8
Lager 1
10
-42.301000
20
0.691792
11
-42.325900
21
1.073900
0
LINE
8
Lager 1
10
-42.325900
20
1.073900
11
-42.401200
21
0.817949
0
LINE
8
Lager 1
10
-42.401200
20
0.817949
11
-42.435200
21
0.566949
0
LINE
8
Lager 1
10
-42.435200
20
0.566949
11
-42.494975
21
0.433621
0
LINE
8
Lager 1
10
-42.494975
20
0.433621
11
-42.608300
21
0.496221
0
LINE
8
Lager 1
10
-42.608300
20
0.496221
11
-43.120100
21
0.735819
0
LINE
8
Lager 1
10
-43.120100
20
0.735819
11
-43.685200
21
0.807010
0
LINE
8
Lager 1
10
-43.685200
20
0.807010
11
-43.963800
21
0.858489
0
LINE
8
Lager 1
10
-43.963800
20
0.858489
11
-43.570900
21
1.153290
0
LINE
8
Lager 1
10
-43.570900
20
1.153290
11
-43.139200
21
1.394610
0
LINE
8
Lager 1
10
-43.139200
20
1.394610
11
-42.664600
21
1.515660
0
LINE
8
Lager 1
10
-42.664600
20
1.515660
11
-42.664600
21
1.515660
0
LINE
8
Lager 1
10
-48.589000
20
0.964223
11
-48.588800
21
0.964223
0
LINE
8
Lager 1
10
-48.588800
20
0.964223
11
-48.108900
21
0.903120
0
LINE
8
Lager 1
10
-48.108900
20
0.903120
11
-47.858500
21
0.835012
0
LINE
8
Lager 1
10
-47.858500
20
0.835012
11
-47.417200
21
0.643039
0
LINE
8
Lager 1
10
-47.417200
20
0.643039
11
-47.011100
21
0.378524
0
LINE
8
Lager 1
10
-47.011100
20
0.378524
11
-46.732100
21
0.191114
0
LINE
8
Lager 1
10
-46.732100
20
0.191114
11
-46.928400
21
0.091069
0
LINE
8
Lager 1
10
-46.928400
20
0.091069
11
-47.212775
21
0.003684
0
LINE
8
Lager 1
10
-47.212775
20
0.003684
11
-47.510500
21
0.180764
0
LINE
8
Lager 1
10
-47.510500
20
0.180764
11
-47.862350
21
0.363049
0
LINE
8
Lager 1
10
-47.862350
20
0.363049
11
-47.983500
21
0.277889
0
LINE
8
Lager 1
10
-47.983500
20
0.277889
11
-47.761900
21
0.159909
0
LINE
8
Lager 1
10
-47.761900
20
0.159909
11
-47.434550
21
-0.011240
0
LINE
8
Lager 1
10
-47.434550
20
-0.011240
11
-47.407200
21
-0.266539
0
LINE
8
Lager 1
10
-47.407200
20
-0.266539
11
-47.527950
21
-0.322059
0
LINE
8
Lager 1
10
-47.527950
20
-0.322059
11
-47.747700
21
-0.159782
0
LINE
8
Lager 1
10
-47.747700
20
-0.159782
11
-48.147400
21
0.109446
0
LINE
8
Lager 1
10
-48.147400
20
0.109446
11
-48.295312
21
0.221514
0
LINE
8
Lager 1
10
-48.295312
20
0.221514
11
-48.169400
21
0.321206
0
LINE
8
Lager 1
10
-48.169400
20
0.321206
11
-48.097662
21
0.349527
0
LINE
8
Lager 1
10
-48.097662
20
0.349527
11
-48.198200
21
0.364082
0
LINE
8
Lager 1
10
-48.198200
20
0.364082
11
-48.540700
21
0.212216
0
LINE
8
Lager 1
10
-48.540700
20
0.212216
11
-48.713400
21
-0.127113
0
LINE
8
Lager 1
10
-48.713400
20
-0.127113
11
-48.692700
21
-0.370086
0
LINE
8
Lager 1
10
-48.692700
20
-0.370086
11
-48.636900
21
-0.537364
0
LINE
8
Lager 1
10
-48.636900
20
-0.537364
11
-48.569400
21
-0.712088
0
LINE
8
Lager 1
10
-48.569400
20
-0.712088
11
-48.276200
21
-0.812573
0
LINE
8
Lager 1
10
-48.276200
20
-0.812573
11
-48.057862
21
-0.861866
0
LINE
8
Lager 1
10
-48.057862
20
-0.861866
11
-47.841700
21
-0.748109
0
LINE
8
Lager 1
10
-47.841700
20
-0.748109
11
-47.264600
21
-0.362141
0
LINE
8
Lager 1
10
-47.264600
20
-0.362141
11
-46.661200
21
-0.018810
0
LINE
8
Lager 1
10
-46.661200
20
-0.018810
11
-46.023100
21
0.252075
0
LINE
8
Lager 1
10
-46.023100
20
0.252075
11
-45.439100
21
0.386917
0
LINE
8
Lager 1
10
-45.439100
20
0.386917
11
-44.848600
21
0.490396
0
LINE
8
Lager 1
10
-44.848600
20
0.490396
11
-44.253300
21
0.560774
0
LINE
8
Lager 1
10
-44.253300
20
0.560774
11
-43.699700
21
0.497968
0
LINE
8
Lager 1
10
-43.699700
20
0.497968
11
-43.563400
21
0.466614
0
LINE
8
Lager 1
10
-43.563400
20
0.466614
11
-43.039500
21
0.421258
0
LINE
8
Lager 1
10
-43.039500
20
0.421258
11
-42.550800
21
0.248872
0
LINE
8
Lager 1
10
-42.550800
20
0.248872
11
-42.480000
21
0.179010
0
LINE
8
Lager 1
10
-42.480000
20
0.179010
11
-42.231800
21
0.009102
0
LINE
8
Lager 1
10
-42.231800
20
0.009102
11
-41.766000
21
-0.403718
0
LINE
8
Lager 1
10
-41.766000
20
-0.403718
11
-41.277900
21
-0.788798
0
LINE
8
Lager 1
10
-41.277900
20
-0.788798
11
-41.218850
21
-0.893584
0
LINE
8
Lager 1
10
-41.218850
20
-0.893584
11
-41.402500
21
-0.918890
0
LINE
8
Lager 1
10
-41.402500
20
-0.918890
11
-41.589200
21
-0.914664
0
LINE
8
Lager 1
10
-41.589200
20
-0.914664
11
-41.341500
21
-1.123940
0
LINE
8
Lager 1
10
-41.341500
20
-1.123940
11
-41.164700
21
-1.140720
0
LINE
8
Lager 1
10
-41.164700
20
-1.140720
11
-40.967300
21
-1.186220
0
LINE
8
Lager 1
10
-40.967300
20
-1.186220
11
-40.811500
21
-1.249660
0
LINE
8
Lager 1
10
-40.811500
20
-1.249660
11
-40.670300
21
-1.278250
0
LINE
8
Lager 1
10
-40.670300
20
-1.278250
11
-40.620300
21
-1.335270
0
LINE
8
Lager 1
10
-40.620300
20
-1.335270
11
-40.435900
21
-1.618350
0
LINE
8
Lager 1
10
-40.435900
20
-1.618350
11
-40.253200
21
-1.980480
0
LINE
8
Lager 1
10
-40.253200
20
-1.980480
11
-40.292250
21
-2.127914
0
LINE
8
Lager 1
10
-40.292250
20
-2.127914
11
-40.496900
21
-2.110700
0
LINE
8
Lager 1
10
-40.496900
20
-2.110700
11
-40.776100
21
-2.001910
0
LINE
8
Lager 1
10
-40.776100
20
-2.001910
11
-40.925000
21
-1.939780
0
LINE
8
Lager 1
10
-40.925000
20
-1.939780
11
-41.463100
21
-1.862350
0
LINE
8
Lager 1
10
-41.463100
20
-1.862350
11
-42.205900
21
-1.815150
0
LINE
8
Lager 1
10
-42.205900
20
-1.815150
11
-42.941100
21
-1.923280
0
LINE
8
Lager 1
10
-42.941100
20
-1.923280
11
-43.284900
21
-2.023940
0
LINE
8
Lager 1
10
-43.284900
20
-2.023940
11
-43.677000
21
-2.230330
0
LINE
8
Lager 1
10
-43.677000
20
-2.230330
11
-44.022500
21
-2.422530
0
LINE
8
Lager 1
10
-44.022500
20
-2.422530
11
-44.626600
21
-2.812170
0
LINE
8
Lager 1
10
-44.626600
20
-2.812170
11
-45.169200
21
-3.292750
0
LINE
8
Lager 1
10
-45.169200
20
-3.292750
11
-45.681900
21
-3.805370
0
LINE
8
Lager 1
10
-45.681900
20
-3.805370
11
-46.140900
21
-4.365330
0
LINE
8
Lager 1
10
-46.140900
20
-4.365330
11
-46.465600
21
-4.799840
0
LINE
8
Lager 1
10
-46.465600
20
-4.799840
11
-46.861500
21
-5.163340
0
LINE
8
Lager 1
10
-46.861500
20
-5.163340
11
-47.376800
21
-5.444330
0
LINE
8
Lager 1
10
-47.376800
20
-5.444330
11
-47.874200
21
-5.758470
0
LINE
8
Lager 1
10
-47.874200
20
-5.758470
11
-48.354200
21
-6.098080
0
LINE
8
Lager 1
10
-48.354200
20
-6.098080
11
-48.602600
21
-6.269970
0
LINE
8
Lager 1
10
-48.602600
20
-6.269970
11
-49.130100
21
-6.630860
0
LINE
8
Lager 1
10
-49.130100
20
-6.630860
11
-49.626800
21
-7.036990
0
LINE
8
Lager 1
10
-49.626800
20
-7.036990
11
-50.132900
21
-7.480910
0
LINE
8
Lager 1
10
-50.132900
20
-7.480910
11
-50.621100
21
-7.944470
0
LINE
8
Lager 1
10
-50.621100
20
-7.944470
11
-51.079100
21
-8.437680
0
LINE
8
Lager 1
10
-51.079100
20
-8.437680
11
-51.478000
21
-8.979120
0
LINE
8
Lager 1
10
-51.478000
20
-8.979120
11
-51.734000
21
-9.597850
0
LINE
8
Lager 1
10
-51.734000
20
-9.597850
11
-51.644200
21
-10.252500
0
LINE
8
Lager 1
10
-51.644200
20
-10.252500
11
-51.443587
21
-10.540950
0
LINE
8
Lager 1
10
-51.443587
20
-10.540950
11
-51.167900
21
-10.688700
0
LINE
8
Lager 1
10
-51.167900
20
-10.688700
11
-51.035750
21
-10.638513
0
LINE
8
Lager 1
10
-51.035750
20
-10.638513
11
-51.280400
21
-10.452200
0
LINE
8
Lager 1
10
-51.280400
20
-10.452200
11
-51.429025
21
-10.381125
0
LINE
8
Lager 1
10
-51.429025
20
-10.381125
11
-51.309300
21
-10.363900
0
LINE
8
Lager 1
10
-51.309300
20
-10.363900
11
-50.875500
21
-10.215200
0
LINE
8
Lager 1
10
-50.875500
20
-10.215200
11
-50.499200
21
-9.944470
0
LINE
8
Lager 1
10
-50.499200
20
-9.944470
11
-50.084400
21
-9.605090
0
LINE
8
Lager 1
10
-50.084400
20
-9.605090
11
-49.777600
21
-9.156760
0
LINE
8
Lager 1
10
-49.777600
20
-9.156760
11
-49.489400
21
-8.821560
0
LINE
8
Lager 1
10
-49.489400
20
-8.821560
11
-49.220600
21
-8.470460
0
LINE
8
Lager 1
10
-49.220600
20
-8.470460
11
-48.870500
21
-7.983150
0
LINE
8
Lager 1
10
-48.870500
20
-7.983150
11
-48.506700
21
-7.506000
0
LINE
8
Lager 1
10
-48.506700
20
-7.506000
11
-48.079300
21
-7.096210
0
LINE
8
Lager 1
10
-48.079300
20
-7.096210
11
-47.939400
21
-7.301850
0
LINE
8
Lager 1
10
-47.939400
20
-7.301850
11
-47.673400
21
-7.949920
0
LINE
8
Lager 1
10
-47.673400
20
-7.949920
11
-47.325700
21
-8.556330
0
LINE
8
Lager 1
10
-47.325700
20
-8.556330
11
-47.274938
21
-8.696546
0
LINE
8
Lager 1
10
-47.274938
20
-8.696546
11
-47.569400
21
-8.937450
0
LINE
8
Lager 1
10
-47.569400
20
-8.937450
11
-48.062000
21
-9.321490
0
LINE
8
Lager 1
10
-48.062000
20
-9.321490
11
-48.552100
21
-9.708660
0
LINE
8
Lager 1
10
-48.552100
20
-9.708660
11
-49.088800
21
-10.186600
0
LINE
8
Lager 1
10
-49.088800
20
-10.186600
11
-49.584000
21
-10.707800
0
LINE
8
Lager 1
10
-49.584000
20
-10.707800
11
-49.978800
21
-11.292100
0
LINE
8
Lager 1
10
-49.978800
20
-11.292100
11
-49.664900
21
-11.047400
0
LINE
8
Lager 1
10
-49.664900
20
-11.047400
11
-49.431500
21
-10.716900
0
LINE
8
Lager 1
10
-49.431500
20
-10.716900
11
-49.299962
21
-10.767975
0
LINE
8
Lager 1
10
-49.299962
20
-10.767975
11
-49.087500
21
-11.114100
0
LINE
8
Lager 1
10
-49.087500
20
-11.114100
11
-49.009500
21
-11.652500
0
LINE
8
Lager 1
10
-49.009500
20
-11.652500
11
-49.075200
21
-12.195200
0
LINE
8
Lager 1
10
-49.075200
20
-12.195200
11
-49.246200
21
-12.714300
0
LINE
8
Lager 1
10
-49.246200
20
-12.714300
11
-49.599400
21
-13.247300
0
LINE
8
Lager 1
10
-49.599400
20
-13.247300
11
-50.022000
21
-13.728200
0
LINE
8
Lager 1
10
-50.022000
20
-13.728200
11
-50.511900
21
-14.137500
0
LINE
8
Lager 1
10
-50.511900
20
-14.137500
11
-50.951600
21
-14.237200
0
LINE
8
Lager 1
10
-50.951600
20
-14.237200
11
-51.384200
21
-14.121300
0
LINE
8
Lager 1
10
-51.384200
20
-14.121300
11
-51.550800
21
-14.002700
0
LINE
8
Lager 1
10
-51.550800
20
-14.002700
11
-51.398200
21
-13.792300
0
LINE
8
Lager 1
10
-51.398200
20
-13.792300
11
-51.170400
21
-13.466600
0
LINE
8
Lager 1
10
-51.170400
20
-13.466600
11
-50.934100
21
-13.147200
0
LINE
8
Lager 1
10
-50.934100
20
-13.147200
11
-50.930300
21
-13.047100
0
LINE
8
Lager 1
10
-50.930300
20
-13.047100
11
-51.342200
21
-13.377500
0
LINE
8
Lager 1
10
-51.342200
20
-13.377500
11
-51.659463
21
-13.649000
0
LINE
8
Lager 1
10
-51.659463
20
-13.649000
11
-51.905400
21
-13.619000
0
LINE
8
Lager 1
10
-51.905400
20
-13.619000
11
-52.474400
21
-13.571100
0
LINE
8
Lager 1
10
-52.474400
20
-13.571100
11
-53.035100
21
-13.685100
0
LINE
8
Lager 1
10
-53.035100
20
-13.685100
11
-53.579600
21
-13.864400
0
LINE
8
Lager 1
10
-53.579600
20
-13.864400
11
-54.115500
21
-14.160100
0
LINE
8
Lager 1
10
-54.115500
20
-14.160100
11
-54.613200
21
-14.524700
0
LINE
8
Lager 1
10
-54.613200
20
-14.524700
11
-55.085800
21
-14.921200
0
LINE
8
Lager 1
10
-55.085800
20
-14.921200
11
-55.528500
21
-15.378700
0
LINE
8
Lager 1
10
-55.528500
20
-15.378700
11
-55.907400
21
-15.889700
0
LINE
8
Lager 1
10
-55.907400
20
-15.889700
11
-55.907500
21
-15.889700
0
LINE
8
Lager 1
10
-55.907500
20
-15.889700
11
-56.125462
21
-16.129687
0
LINE
8
Lager 1
10
-56.125462
20
-16.129687
11
-56.192300
21
-15.855700
0
LINE
8
Lager 1
10
-56.192300
20
-15.855700
11
-56.133987
21
-15.571450
0
LINE
8
Lager 1
10
-56.133987
20
-15.571450
11
-55.889300
21
-15.295000
0
LINE
8
Lager 1
10
-55.889300
20
-15.295000
11
-55.500600
21
-14.839000
0
LINE
8
Lager 1
10
-55.500600
20
-14.839000
11
-55.144900
21
-14.355200
0
LINE
8
Lager 1
10
-55.144900
20
-14.355200
11
-54.680800
21
-13.988700
0
LINE
8
Lager 1
10
-54.680800
20
-13.988700
11
-54.345100
21
-13.671800
0
LINE
8
Lager 1
10
-54.345100
20
-13.671800
11
-54.083300
21
-13.537400
0
LINE
8
Lager 1
10
-54.083300
20
-13.537400
11
-54.251575
21
-13.485975
0
LINE
8
Lager 1
10
-54.251575
20
-13.485975
11
-54.649800
21
-13.727500
0
LINE
8
Lager 1
10
-54.649800
20
-13.727500
11
-55.147700
21
-14.062400
0
LINE
8
Lager 1
10
-55.147700
20
-14.062400
11
-55.553400
21
-14.524500
0
LINE
8
Lager 1
10
-55.553400
20
-14.524500
11
-55.942900
21
-15.000200
0
LINE
8
Lager 1
10
-55.942900
20
-15.000200
11
-56.433900
21
-15.439800
0
LINE
8
Lager 1
10
-56.433900
20
-15.439800
11
-57.032200
21
-15.705200
0
LINE
8
Lager 1
10
-57.032200
20
-15.705200
11
-57.689600
21
-15.730700
0
LINE
8
Lager 1
10
-57.689600
20
-15.730700
11
-58.227700
21
-15.643600
0
LINE
8
Lager 1
10
-58.227700
20
-15.643600
11
-58.737800
21
-15.451200
0
LINE
8
Lager 1
10
-58.737800
20
-15.451200
11
-59.211300
21
-15.180100
0
LINE
8
Lager 1
10
-59.211300
20
-15.180100
11
-59.663300
21
-14.829800
0
LINE
8
Lager 1
10
-59.663300
20
-14.829800
11
-59.964600
21
-14.345100
0
LINE
8
Lager 1
10
-59.964600
20
-14.345100
11
-60.098600
21
-13.768100
0
LINE
8
Lager 1
10
-60.098600
20
-13.768100
11
-60.117600
21
-13.173900
0
LINE
8
Lager 1
10
-60.117600
20
-13.173900
11
-60.064200
21
-12.581600
0
LINE
8
Lager 1
10
-60.064200
20
-12.581600
11
-59.917600
21
-12.006300
0
LINE
8
Lager 1
10
-59.917600
20
-12.006300
11
-59.753000
21
-11.492600
0
LINE
8
Lager 1
10
-59.753000
20
-11.492600
11
-59.511600
21
-11.010200
0
LINE
8
Lager 1
10
-59.511600
20
-11.010200
11
-59.212600
21
-10.560800
0
LINE
8
Lager 1
10
-59.212600
20
-10.560800
11
-58.858900
21
-10.131600
0
LINE
8
Lager 1
10
-58.858900
20
-10.131600
11
-58.431800
21
-9.772430
0
LINE
8
Lager 1
10
-58.431800
20
-9.772430
11
-57.955800
21
-9.482780
0
LINE
8
Lager 1
10
-57.955800
20
-9.482780
11
-57.859600
21
-9.408780
0
LINE
8
Lager 1
10
-57.859600
20
-9.408780
11
-57.933100
21
-9.333580
0
LINE
8
Lager 1
10
-57.933100
20
-9.333580
11
-58.324900
21
-9.480840
0
LINE
8
Lager 1
10
-58.324900
20
-9.480840
11
-58.685200
21
-9.701120
0
LINE
8
Lager 1
10
-58.685200
20
-9.701120
11
-59.217000
21
-10.150700
0
LINE
8
Lager 1
10
-59.217000
20
-10.150700
11
-59.641500
21
-10.717700
0
LINE
8
Lager 1
10
-59.641500
20
-10.717700
11
-60.013400
21
-11.320300
0
LINE
8
Lager 1
10
-60.013400
20
-11.320300
11
-60.301600
21
-11.966000
0
LINE
8
Lager 1
10
-60.301600
20
-11.966000
11
-60.450700
21
-12.549500
0
LINE
8
Lager 1
10
-60.450700
20
-12.549500
11
-60.502600
21
-13.187100
0
LINE
8
Lager 1
10
-60.502600
20
-13.187100
11
-60.540100
21
-13.693300
0
LINE
8
Lager 1
10
-60.540100
20
-13.693300
11
-60.777900
21
-14.125500
0
LINE
8
Lager 1
10
-60.777900
20
-14.125500
11
-60.954700
21
-14.239400
0
LINE
8
Lager 1
10
-60.954700
20
-14.239400
11
-60.911200
21
-13.585900
0
LINE
8
Lager 1
10
-60.911200
20
-13.585900
11
-60.850200
21
-12.901500
0
LINE
8
Lager 1
10
-60.850200
20
-12.901500
11
-60.737500
21
-12.223900
0
LINE
8
Lager 1
10
-60.737500
20
-12.223900
11
-60.584963
21
-11.805487
0
LINE
8
Lager 1
10
-60.584963
20
-11.805487
11
-60.397100
21
-11.676500
0
LINE
8
Lager 1
10
-60.397100
20
-11.676500
11
-60.281200
21
-11.640000
0
LINE
8
Lager 1
10
-60.281200
20
-11.640000
11
-60.118200
21
-11.258200
0
LINE
8
Lager 1
10
-60.118200
20
-11.258200
11
-59.825300
21
-10.772100
0
LINE
8
Lager 1
10
-59.825300
20
-10.772100
11
-59.544900
21
-10.278500
0
LINE
8
Lager 1
10
-59.544900
20
-10.278500
11
-59.209000
21
-9.822160
0
LINE
8
Lager 1
10
-59.209000
20
-9.822160
11
-58.960800
21
-9.429247
0
LINE
8
Lager 1
10
-58.960800
20
-9.429247
11
-59.029400
21
-9.195890
0
LINE
8
Lager 1
10
-59.029400
20
-9.195890
11
-59.408200
21
-9.519220
0
LINE
8
Lager 1
10
-59.408200
20
-9.519220
11
-59.672900
21
-9.967100
0
LINE
8
Lager 1
10
-59.672900
20
-9.967100
11
-60.021200
21
-10.567700
0
LINE
8
Lager 1
10
-60.021200
20
-10.567700
11
-60.450100
21
-11.113200
0
LINE
8
Lager 1
10
-60.450100
20
-11.113200
11
-60.954800
21
-11.590000
0
LINE
8
Lager 1
10
-60.954800
20
-11.590000
11
-61.504200
21
-12.014900
0
LINE
8
Lager 1
10
-61.504200
20
-12.014900
11
-62.074300
21
-12.411800
0
LINE
8
Lager 1
10
-62.074300
20
-12.411800
11
-62.437500
21
-12.632100
0
LINE
8
Lager 1
10
-62.437500
20
-12.632100
11
-62.840500
21
-12.771100
0
LINE
8
Lager 1
10
-62.840500
20
-12.771100
11
-63.084000
21
-12.884200
0
LINE
8
Lager 1
10
-63.084000
20
-12.884200
11
-63.167912
21
-12.922287
0
LINE
8
Lager 1
10
-63.167912
20
-12.922287
11
-63.188000
21
-12.816600
0
LINE
8
Lager 1
10
-63.188000
20
-12.816600
11
-63.055700
21
-12.621000
0
LINE
8
Lager 1
10
-63.055700
20
-12.621000
11
-62.618600
21
-12.103000
0
LINE
8
Lager 1
10
-62.618600
20
-12.103000
11
-62.318600
21
-11.487500
0
LINE
8
Lager 1
10
-62.318600
20
-11.487500
11
-62.082100
21
-10.851600
0
LINE
8
Lager 1
10
-62.082100
20
-10.851600
11
-61.850200
21
-10.213100
0
LINE
8
Lager 1
10
-61.850200
20
-10.213100
11
-61.518100
21
-9.643020
0
LINE
8
Lager 1
10
-61.518100
20
-9.643020
11
-61.107900
21
-9.288630
0
LINE
8
Lager 1
10
-61.107900
20
-9.288630
11
-60.613900
21
-9.053340
0
LINE
8
Lager 1
10
-60.613900
20
-9.053340
11
-60.078900
21
-8.971580
0
LINE
8
Lager 1
10
-60.078900
20
-8.971580
11
-60.022400
21
-8.917070
0
LINE
8
Lager 1
10
-60.022400
20
-8.917070
11
-60.070087
21
-8.810018
0
LINE
8
Lager 1
10
-60.070087
20
-8.810018
11
-60.280600
21
-8.806630
0
LINE
8
Lager 1
10
-60.280600
20
-8.806630
11
-60.719600
21
-8.819400
0
LINE
8
Lager 1
10
-60.719600
20
-8.819400
11
-61.138000
21
-8.970680
0
LINE
8
Lager 1
10
-61.138000
20
-8.970680
11
-61.425900
21
-8.987030
0
LINE
8
Lager 1
10
-61.425900
20
-8.987030
11
-61.415900
21
-8.442460
0
LINE
8
Lager 1
10
-61.415900
20
-8.442460
11
-61.279800
21
-7.915050
0
LINE
8
Lager 1
10
-61.279800
20
-7.915050
11
-60.980600
21
-7.464260
0
LINE
8
Lager 1
10
-60.980600
20
-7.464260
11
-60.917200
21
-7.371220
0
LINE
8
Lager 1
10
-60.917200
20
-7.371220
11
-60.523500
21
-6.937760
0
LINE
8
Lager 1
10
-60.523500
20
-6.937760
11
-60.055400
21
-6.584260
0
LINE
8
Lager 1
10
-60.055400
20
-6.584260
11
-59.823500
21
-6.392060
0
LINE
8
Lager 1
10
-59.823500
20
-6.392060
11
-59.764000
21
-6.557010
0
LINE
8
Lager 1
10
-59.764000
20
-6.557010
11
-59.389900
21
-6.814400
0
LINE
8
Lager 1
10
-59.389900
20
-6.814400
11
-59.107025
21
-6.901799
0
LINE
8
Lager 1
10
-59.107025
20
-6.901799
11
-59.012100
21
-6.810660
0
LINE
8
Lager 1
10
-59.012100
20
-6.810660
11
-59.134700
21
-6.708070
0
LINE
8
Lager 1
10
-59.134700
20
-6.708070
11
-59.396613
21
-6.549426
0
LINE
8
Lager 1
10
-59.396613
20
-6.549426
11
-59.516100
21
-6.289090
0
LINE
8
Lager 1
10
-59.516100
20
-6.289090
11
-59.482000
21
-6.054540
0
LINE
8
Lager 1
10
-59.482000
20
-6.054540
11
-59.402513
21
-5.971284
0
LINE
8
Lager 1
10
-59.402513
20
-5.971284
11
-59.168000
21
-6.144970
0
LINE
8
Lager 1
10
-59.168000
20
-6.144970
11
-58.949913
21
-6.286872
0
LINE
8
Lager 1
10
-58.949913
20
-6.286872
11
-58.653300
21
-6.293640
0
LINE
8
Lager 1
10
-58.653300
20
-6.293640
11
-58.048500
21
-6.116820
0
LINE
8
Lager 1
10
-58.048500
20
-6.116820
11
-57.737700
21
-5.984090
0
LINE
8
Lager 1
10
-57.737700
20
-5.984090
11
-57.684300
21
-6.087250
0
LINE
8
Lager 1
10
-57.684300
20
-6.087250
11
-57.606100
21
-6.199850
0
LINE
8
Lager 1
10
-57.606100
20
-6.199850
11
-57.573700
21
-6.274670
0
LINE
8
Lager 1
10
-57.573700
20
-6.274670
11
-57.541400
21
-6.349640
0
LINE
8
Lager 1
10
-57.541400
20
-6.349640
11
-57.463900
21
-6.205146
0
LINE
8
Lager 1
10
-57.463900
20
-6.205146
11
-57.561600
21
-5.984430
0
LINE
8
Lager 1
10
-57.561600
20
-5.984430
11
-57.800200
21
-5.469340
0
LINE
8
Lager 1
10
-57.800200
20
-5.469340
11
-57.977600
21
-4.804550
0
LINE
8
Lager 1
10
-57.977600
20
-4.804550
11
-57.956700
21
-4.114660
0
LINE
8
Lager 1
10
-57.956700
20
-4.114660
11
-57.794800
21
-3.443290
0
LINE
8
Lager 1
10
-57.794800
20
-3.443290
11
-57.476500
21
-2.833670
0
LINE
8
Lager 1
10
-57.476500
20
-2.833670
11
-56.955800
21
-2.768560
0
LINE
8
Lager 1
10
-56.955800
20
-2.768560
11
-56.466200
21
-2.918270
0
LINE
8
Lager 1
10
-56.466200
20
-2.918270
11
-55.985300
21
-3.217410
0
LINE
8
Lager 1
10
-55.985300
20
-3.217410
11
-55.515100
21
-3.532970
0
LINE
8
Lager 1
10
-55.515100
20
-3.532970
11
-55.065300
21
-3.876900
0
LINE
8
Lager 1
10
-55.065300
20
-3.876900
11
-54.651100
21
-4.262660
0
LINE
8
Lager 1
10
-54.651100
20
-4.262660
11
-54.241000
21
-4.596140
0
LINE
8
Lager 1
10
-54.241000
20
-4.596140
11
-53.824000
21
-4.921110
0
LINE
8
Lager 1
10
-53.824000
20
-4.921110
11
-53.192700
21
-5.267280
0
LINE
8
Lager 1
10
-53.192700
20
-5.267280
11
-52.535200
21
-5.559020
0
LINE
8
Lager 1
10
-52.535200
20
-5.559020
11
-52.257800
21
-5.634610
0
LINE
8
Lager 1
10
-52.257800
20
-5.634610
11
-52.262100
21
-5.507130
0
LINE
8
Lager 1
10
-52.262100
20
-5.507130
11
-52.260762
21
-5.401141
0
LINE
8
Lager 1
10
-52.260762
20
-5.401141
11
-52.135300
21
-5.384140
0
LINE
8
Lager 1
10
-52.135300
20
-5.384140
11
-51.723000
21
-5.299240
0
LINE
8
Lager 1
10
-51.723000
20
-5.299240
11
-51.381988
21
-5.172368
0
LINE
8
Lager 1
10
-51.381988
20
-5.172368
11
-51.067600
21
-4.981370
0
LINE
8
Lager 1
10
-51.067600
20
-4.981370
11
-50.537900
21
-4.695750
0
LINE
8
Lager 1
10
-50.537900
20
-4.695750
11
-50.041400
21
-4.490550
0
LINE
8
Lager 1
10
-50.041400
20
-4.490550
11
-50.040400
21
-4.649680
0
LINE
8
Lager 1
10
-50.040400
20
-4.649680
11
-50.056600
21
-4.989210
0
LINE
8
Lager 1
10
-50.056600
20
-4.989210
11
-49.933700
21
-4.764600
0
LINE
8
Lager 1
10
-49.933700
20
-4.764600
11
-49.821400
21
-4.499740
0
LINE
8
Lager 1
10
-49.821400
20
-4.499740
11
-49.754800
21
-4.310740
0
LINE
8
Lager 1
10
-49.754800
20
-4.310740
11
-49.660800
21
-4.214790
0
LINE
8
Lager 1
10
-49.660800
20
-4.214790
11
-49.654200
21
-4.173350
0
LINE
8
Lager 1
10
-49.654200
20
-4.173350
11
-49.594900
21
-3.745930
0
LINE
8
Lager 1
10
-49.594900
20
-3.745930
11
-49.448500
21
-3.322540
0
LINE
8
Lager 1
10
-49.448500
20
-3.322540
11
-49.358500
21
-3.143710
0
LINE
8
Lager 1
10
-49.358500
20
-3.143710
11
-49.064000
21
-3.299020
0
LINE
8
Lager 1
10
-49.064000
20
-3.299020
11
-48.855100
21
-3.454340
0
LINE
8
Lager 1
10
-48.855100
20
-3.454340
11
-48.971400
21
-3.244660
0
LINE
8
Lager 1
10
-48.971400
20
-3.244660
11
-49.044600
21
-3.076800
0
LINE
8
Lager 1
10
-49.044600
20
-3.076800
11
-49.120900
21
-2.892590
0
LINE
8
Lager 1
10
-49.120900
20
-2.892590
11
-49.187863
21
-2.714074
0
LINE
8
Lager 1
10
-49.187863
20
-2.714074
11
-48.889800
21
-2.871310
0
LINE
8
Lager 1
10
-48.889800
20
-2.871310
11
-48.646412
21
-3.022891
0
LINE
8
Lager 1
10
-48.646412
20
-3.022891
11
-48.706100
21
-2.889750
0
LINE
8
Lager 1
10
-48.706100
20
-2.889750
11
-49.013300
21
-2.558730
0
LINE
8
Lager 1
10
-49.013300
20
-2.558730
11
-49.463300
21
-2.090320
0
LINE
8
Lager 1
10
-49.463300
20
-2.090320
11
-49.797500
21
-1.536680
0
LINE
8
Lager 1
10
-49.797500
20
-1.536680
11
-50.002000
21
-1.025310
0
LINE
8
Lager 1
10
-50.002000
20
-1.025310
11
-50.089600
21
-0.483706
0
LINE
8
Lager 1
10
-50.089600
20
-0.483706
11
-50.021500
21
0.108169
0
LINE
8
Lager 1
10
-50.021500
20
0.108169
11
-49.719300
21
0.617248
0
LINE
8
Lager 1
10
-49.719300
20
0.617248
11
-49.199800
21
0.901074
0
LINE
8
Lager 1
10
-49.199800
20
0.901074
11
-48.589000
21
0.964223
0
LINE
8
Lager 1
10
-48.589000
20
0.964223
11
-48.589000
21
0.964223
0
LINE
8
Lager 1
10
-53.786000
20
0.020916
11
-53.549300
21
-0.424342
0
LINE
8
Lager 1
10
-53.549300
20
-0.424342
11
-53.338300
21
-1.049760
0
LINE
8
Lager 1
10
-53.338300
20
-1.049760
11
-53.147600
21
-1.681720
0
LINE
8
Lager 1
10
-53.147600
20
-1.681720
11
-52.985400
21
-2.321130
0
LINE
8
Lager 1
10
-52.985400
20
-2.321130
11
-52.883600
21
-2.897520
0
LINE
8
Lager 1
10
-52.883600
20
-2.897520
11
-52.838062
21
-3.292691
0
LINE
8
Lager 1
10
-52.838062
20
-3.292691
11
-52.974100
21
-3.563430
0
LINE
8
Lager 1
10
-52.974100
20
-3.563430
11
-53.184200
21
-3.769404
0
LINE
8
Lager 1
10
-53.184200
20
-3.769404
11
-53.549400
21
-3.808210
0
LINE
8
Lager 1
10
-53.549400
20
-3.808210
11
-53.950000
21
-3.808800
0
LINE
8
Lager 1
10
-53.950000
20
-3.808800
11
-53.895500
21
-3.432090
0
LINE
8
Lager 1
10
-53.895500
20
-3.432090
11
-53.814100
21
-2.793500
0
LINE
8
Lager 1
10
-53.814100
20
-2.793500
11
-53.755900
21
-2.152520
0
LINE
8
Lager 1
10
-53.755900
20
-2.152520
11
-53.724400
21
-1.509580
0
LINE
8
Lager 1
10
-53.724400
20
-1.509580
11
-53.728400
21
-0.866060
0
LINE
8
Lager 1
10
-53.728400
20
-0.866060
11
-53.794000
21
-0.226149
0
LINE
8
Lager 1
10
-53.794000
20
-0.226149
11
-53.786000
21
0.020759
0
LINE
8
Lager 1
10
-53.786000
20
0.020759
11
-53.786000
21
0.020916
0
LINE
8
Lager 1
10
-59.850100
20
-0.873243
11
-59.654400
21
-1.420000
0
LINE
8
Lager 1
10
-59.654400
20
-1.420000
11
-59.541700
21
-1.847230
0
LINE
8
Lager 1
10
-59.541700
20
-1.847230
11
-59.400100
21
-2.265420
0
LINE
8
Lager 1
10
-59.400100
20
-2.265420
11
-59.260700
21
-2.602640
0
LINE
8
Lager 1
10
-59.260700
20
-2.602640
11
-58.985500
21
-3.166850
0
LINE
8
Lager 1
10
-58.985500
20
-3.166850
11
-58.663600
21
-3.706800
0
LINE
8
Lager 1
10
-58.663600
20
-3.706800
11
-58.296100
21
-4.215540
0
LINE
8
Lager 1
10
-58.296100
20
-4.215540
11
-58.171100
21
-4.589870
0
LINE
8
Lager 1
10
-58.171100
20
-4.589870
11
-58.097200
21
-5.037450
0
LINE
8
Lager 1
10
-58.097200
20
-5.037450
11
-57.954000
21
-5.467400
0
LINE
8
Lager 1
10
-57.954000
20
-5.467400
11
-57.921638
21
-5.723140
0
LINE
8
Lager 1
10
-57.921638
20
-5.723140
11
-58.050600
21
-5.915430
0
LINE
8
Lager 1
10
-58.050600
20
-5.915430
11
-58.506400
21
-6.103080
0
LINE
8
Lager 1
10
-58.506400
20
-6.103080
11
-58.994700
21
-6.061560
0
LINE
8
Lager 1
10
-58.994700
20
-6.061560
11
-59.317800
21
-5.536030
0
LINE
8
Lager 1
10
-59.317800
20
-5.536030
11
-59.535900
21
-4.953890
0
LINE
8
Lager 1
10
-59.535900
20
-4.953890
11
-59.714500
21
-4.358310
0
LINE
8
Lager 1
10
-59.714500
20
-4.358310
11
-59.866300
21
-3.755260
0
LINE
8
Lager 1
10
-59.866300
20
-3.755260
11
-59.976700
21
-3.030130
0
LINE
8
Lager 1
10
-59.976700
20
-3.030130
11
-60.021300
21
-2.297830
0
LINE
8
Lager 1
10
-60.021300
20
-2.297830
11
-60.014000
21
-1.564160
0
LINE
8
Lager 1
10
-60.014000
20
-1.564160
11
-59.850100
21
-0.873243
0
LINE
8
Lager 1
10
-59.850100
20
-0.873243
11
-59.850100
21
-0.873243
0
LINE
8
Lager 1
10
-42.158100
20
-2.025650
11
-42.157900
21
-2.025650
0
LINE
8
Lager 1
10
-42.157900
20
-2.025650
11
-41.774000
21
-2.050370
0
LINE
8
Lager 1
10
-41.774000
20
-2.050370
11
-41.392800
21
-2.103680
0
LINE
8
Lager 1
10
-41.392800
20
-2.103680
11
-41.113700
21
-2.220990
0
LINE
8
Lager 1
10
-41.113700
20
-2.220990
11
-40.999900
21
-2.243320
0
LINE
8
Lager 1
10
-40.999900
20
-2.243320
11
-40.531700
21
-2.328450
0
LINE
8
Lager 1
10
-40.531700
20
-2.328450
11
-40.154900
21
-2.616980
0
LINE
8
Lager 1
10
-40.154900
20
-2.616980
11
-40.151000
21
-3.077470
0
LINE
8
Lager 1
10
-40.151000
20
-3.077470
11
-40.467100
21
-3.671110
0
LINE
8
Lager 1
10
-40.467100
20
-3.671110
11
-40.878100
21
-4.204710
0
LINE
8
Lager 1
10
-40.878100
20
-4.204710
11
-41.407100
21
-4.608380
0
LINE
8
Lager 1
10
-41.407100
20
-4.608380
11
-41.408000
21
-4.518850
0
LINE
8
Lager 1
10
-41.408000
20
-4.518850
11
-41.316500
21
-4.285650
0
LINE
8
Lager 1
10
-41.316500
20
-4.285650
11
-41.161700
21
-3.896990
0
LINE
8
Lager 1
10
-41.161700
20
-3.896990
11
-41.076837
21
-3.618746
0
LINE
8
Lager 1
10
-41.076837
20
-3.618746
11
-41.224400
21
-3.661180
0
LINE
8
Lager 1
10
-41.224400
20
-3.661180
11
-41.430800
21
-4.047900
0
LINE
8
Lager 1
10
-41.430800
20
-4.047900
11
-41.567400
21
-4.457920
0
LINE
8
Lager 1
10
-41.567400
20
-4.457920
11
-41.607700
21
-4.557980
0
LINE
8
Lager 1
10
-41.607700
20
-4.557980
11
-41.651300
21
-4.698210
0
LINE
8
Lager 1
10
-41.651300
20
-4.698210
11
-41.852100
21
-5.236520
0
LINE
8
Lager 1
10
-41.852100
20
-5.236520
11
-42.159000
21
-5.722780
0
LINE
8
Lager 1
10
-42.159000
20
-5.722780
11
-42.192000
21
-5.789010
0
LINE
8
Lager 1
10
-42.192000
20
-5.789010
11
-42.502500
21
-6.185370
0
LINE
8
Lager 1
10
-42.502500
20
-6.185370
11
-42.939100
21
-6.467030
0
LINE
8
Lager 1
10
-42.939100
20
-6.467030
11
-43.433100
21
-6.601660
0
LINE
8
Lager 1
10
-43.433100
20
-6.601660
11
-43.940900
21
-6.673640
0
LINE
8
Lager 1
10
-43.940900
20
-6.673640
11
-44.452900
21
-6.699630
0
LINE
8
Lager 1
10
-44.452900
20
-6.699630
11
-44.942400
21
-6.613310
0
LINE
8
Lager 1
10
-44.942400
20
-6.613310
11
-45.405500
21
-6.434920
0
LINE
8
Lager 1
10
-45.405500
20
-6.434920
11
-45.592200
21
-6.445900
0
LINE
8
Lager 1
10
-45.592200
20
-6.445900
11
-45.590300
21
-6.518770
0
LINE
8
Lager 1
10
-45.590300
20
-6.518770
11
-45.180800
21
-6.669910
0
LINE
8
Lager 1
10
-45.180800
20
-6.669910
11
-44.883100
21
-6.816640
0
LINE
8
Lager 1
10
-44.883100
20
-6.816640
11
-45.256600
21
-6.818510
0
LINE
8
Lager 1
10
-45.256600
20
-6.818510
11
-45.523313
21
-6.836079
0
LINE
8
Lager 1
10
-45.523313
20
-6.836079
11
-45.502700
21
-6.895940
0
LINE
8
Lager 1
10
-45.502700
20
-6.895940
11
-45.111200
21
-6.983450
0
LINE
8
Lager 1
10
-45.111200
20
-6.983450
11
-44.858413
21
-7.053402
0
LINE
8
Lager 1
10
-44.858413
20
-7.053402
11
-44.979200
21
-7.171850
0
LINE
8
Lager 1
10
-44.979200
20
-7.171850
11
-45.350400
21
-7.382120
0
LINE
8
Lager 1
10
-45.350400
20
-7.382120
11
-45.710800
21
-7.610690
0
LINE
8
Lager 1
10
-45.710800
20
-7.610690
11
-45.710900
21
-7.610690
0
LINE
8
Lager 1
10
-45.710900
20
-7.610690
11
-46.093500
21
-7.862780
0
LINE
8
Lager 1
10
-46.093500
20
-7.862780
11
-46.473100
21
-8.119430
0
LINE
8
Lager 1
10
-46.473100
20
-8.119430
11
-46.676000
21
-8.168110
0
LINE
8
Lager 1
10
-46.676000
20
-8.168110
11
-46.788500
21
-7.469040
0
LINE
8
Lager 1
10
-46.788500
20
-7.469040
11
-46.827300
21
-6.759590
0
LINE
8
Lager 1
10
-46.827300
20
-6.759590
11
-46.779100
21
-6.060290
0
LINE
8
Lager 1
10
-46.779100
20
-6.060290
11
-46.748200
21
-5.854950
0
LINE
8
Lager 1
10
-46.748200
20
-5.854950
11
-46.605700
21
-5.333820
0
LINE
8
Lager 1
10
-46.605700
20
-5.333820
11
-46.268700
21
-4.903710
0
LINE
8
Lager 1
10
-46.268700
20
-4.903710
11
-46.173800
21
-4.723750
0
LINE
8
Lager 1
10
-46.173800
20
-4.723750
11
-46.060800
21
-4.599350
0
LINE
8
Lager 1
10
-46.060800
20
-4.599350
11
-45.947900
21
-4.485180
0
LINE
8
Lager 1
10
-45.947900
20
-4.485180
11
-45.478000
21
-3.920440
0
LINE
8
Lager 1
10
-45.478000
20
-3.920440
11
-44.960400
21
-3.394680
0
LINE
8
Lager 1
10
-44.960400
20
-3.394680
11
-44.605200
21
-3.081360
0
LINE
8
Lager 1
10
-44.605200
20
-3.081360
11
-44.199100
21
-2.851140
0
LINE
8
Lager 1
10
-44.199100
20
-2.851140
11
-44.139500
21
-2.776320
0
LINE
8
Lager 1
10
-44.139500
20
-2.776320
11
-43.676100
21
-2.478090
0
LINE
8
Lager 1
10
-43.676100
20
-2.478090
11
-43.161500
21
-2.260420
0
LINE
8
Lager 1
10
-43.161500
20
-2.260420
11
-42.624300
21
-2.112050
0
LINE
8
Lager 1
10
-42.624300
20
-2.112050
11
-42.345000
21
-2.054550
0
LINE
8
Lager 1
10
-42.345000
20
-2.054550
11
-42.158100
21
-2.025650
0
LINE
8
Lager 1
10
-42.158100
20
-2.025650
11
-42.158100
21
-2.025650
0
LINE
8
Lager 1
10
-51.589700
20
-2.690750
11
-51.589600
21
-2.690750
0
LINE
8
Lager 1
10
-51.589600
20
-2.690750
11
-51.299013
21
-2.772141
0
LINE
8
Lager 1
10
-51.299013
20
-2.772141
11
-51.155200
21
-3.001830
0
LINE
8
Lager 1
10
-51.155200
20
-3.001830
11
-51.031400
21
-3.674690
0
LINE
8
Lager 1
10
-51.031400
20
-3.674690
11
-50.943700
21
-4.162000
0
LINE
8
Lager 1
10
-50.943700
20
-4.162000
11
-50.955700
21
-4.648260
0
LINE
8
Lager 1
10
-50.955700
20
-4.648260
11
-51.068300
21
-4.416330
0
LINE
8
Lager 1
10
-51.068300
20
-4.416330
11
-51.341400
21
-3.917530
0
LINE
8
Lager 1
10
-51.341400
20
-3.917530
11
-51.765100
21
-3.539840
0
LINE
8
Lager 1
10
-51.765100
20
-3.539840
11
-51.779600
21
-3.398930
0
LINE
8
Lager 1
10
-51.779600
20
-3.398930
11
-51.621900
21
-3.397220
0
LINE
8
Lager 1
10
-51.621900
20
-3.397220
11
-51.518800
21
-3.387730
0
LINE
8
Lager 1
10
-51.518800
20
-3.387730
11
-51.551200
21
-3.202470
0
LINE
8
Lager 1
10
-51.551200
20
-3.202470
11
-51.533900
21
-2.950760
0
LINE
8
Lager 1
10
-51.533900
20
-2.950760
11
-51.506013
21
-2.852179
0
LINE
8
Lager 1
10
-51.506013
20
-2.852179
11
-51.695700
21
-3.013180
0
LINE
8
Lager 1
10
-51.695700
20
-3.013180
11
-52.039700
21
-3.567240
0
LINE
8
Lager 1
10
-52.039700
20
-3.567240
11
-52.146200
21
-4.213450
0
LINE
8
Lager 1
10
-52.146200
20
-4.213450
11
-52.005100
21
-4.850770
0
LINE
8
Lager 1
10
-52.005100
20
-4.850770
11
-51.905037
21
-5.095500
0
LINE
8
Lager 1
10
-51.905037
20
-5.095500
11
-51.988800
21
-5.171330
0
LINE
8
Lager 1
10
-51.988800
20
-5.171330
11
-52.301400
21
-5.292820
0
LINE
8
Lager 1
10
-52.301400
20
-5.292820
11
-52.526300
21
-5.395490
0
LINE
8
Lager 1
10
-52.526300
20
-5.395490
11
-52.935500
21
-5.205900
0
LINE
8
Lager 1
10
-52.935500
20
-5.205900
11
-53.483000
21
-4.869730
0
LINE
8
Lager 1
10
-53.483000
20
-4.869730
11
-54.005200
21
-4.495560
0
LINE
8
Lager 1
10
-54.005200
20
-4.495560
11
-54.355463
21
-4.184774
0
LINE
8
Lager 1
10
-54.355463
20
-4.184774
11
-54.382700
21
-4.054100
0
LINE
8
Lager 1
10
-54.382700
20
-4.054100
11
-53.811800
21
-4.029230
0
LINE
8
Lager 1
10
-53.811800
20
-4.029230
11
-53.353525
21
-4.031799
0
LINE
8
Lager 1
10
-53.353525
20
-4.031799
11
-53.313000
21
-4.110920
0
LINE
8
Lager 1
10
-53.313000
20
-4.110920
11
-53.314900
21
-4.216960
0
LINE
8
Lager 1
10
-53.314900
20
-4.216960
11
-52.964100
21
-3.895800
0
LINE
8
Lager 1
10
-52.964100
20
-3.895800
11
-52.662100
21
-3.528190
0
LINE
8
Lager 1
10
-52.662100
20
-3.528190
11
-52.320800
21
-3.112790
0
LINE
8
Lager 1
10
-52.320800
20
-3.112790
11
-51.903600
21
-2.769600
0
LINE
8
Lager 1
10
-51.903600
20
-2.769600
11
-51.589700
21
-2.690750
0
LINE
8
Lager 1
10
-51.589700
20
-2.690750
11
-51.589700
21
-2.690750
0
LINE
8
Lager 1
10
-41.623600
20
-3.019750
11
-42.252800
21
-3.054700
0
LINE
8
Lager 1
10
-42.252800
20
-3.054700
11
-42.867000
21
-3.189780
0
LINE
8
Lager 1
10
-42.867000
20
-3.189780
11
-43.229200
21
-3.349200
0
LINE
8
Lager 1
10
-43.229200
20
-3.349200
11
-43.551100
21
-3.559100
0
LINE
8
Lager 1
10
-43.551100
20
-3.559100
11
-43.421375
21
-3.609161
0
LINE
8
Lager 1
10
-43.421375
20
-3.609161
11
-42.978900
21
-3.430000
0
LINE
8
Lager 1
10
-42.978900
20
-3.430000
11
-42.539300
21
-3.275130
0
LINE
8
Lager 1
10
-42.539300
20
-3.275130
11
-42.073900
21
-3.241300
0
LINE
8
Lager 1
10
-42.073900
20
-3.241300
11
-41.553600
21
-3.249670
0
LINE
8
Lager 1
10
-41.553600
20
-3.249670
11
-41.062300
21
-3.375640
0
LINE
8
Lager 1
10
-41.062300
20
-3.375640
11
-40.898000
21
-3.432760
0
LINE
8
Lager 1
10
-40.898000
20
-3.432760
11
-40.879900
21
-3.585760
0
LINE
8
Lager 1
10
-40.879900
20
-3.585760
11
-40.824075
21
-3.793272
0
LINE
8
Lager 1
10
-40.824075
20
-3.793272
11
-40.675700
21
-3.639900
0
LINE
8
Lager 1
10
-40.675700
20
-3.639900
11
-40.687500
21
-3.431919
0
LINE
8
Lager 1
10
-40.687500
20
-3.431919
11
-40.871200
21
-3.248020
0
LINE
8
Lager 1
10
-40.871200
20
-3.248020
11
-41.307100
21
-3.057830
0
LINE
8
Lager 1
10
-41.307100
20
-3.057830
11
-41.623600
21
-3.019750
0
LINE
8
Lager 1
10
-41.623600
20
-3.019750
11
-41.623600
21
-3.019750
0
LINE
8
Lager 1
10
-51.948200
20
-3.928950
11
-51.543900
21
-4.398860
0
LINE
8
Lager 1
10
-51.543900
20
-4.398860
11
-51.563900
21
-4.530342
0
LINE
8
Lager 1
10
-51.563900
20
-4.530342
11
-51.829900
21
-4.411100
0
LINE
8
Lager 1
10
-51.829900
20
-4.411100
11
-51.988650
21
-4.130823
0
LINE
8
Lager 1
10
-51.988650
20
-4.130823
11
-51.948200
21
-3.928950
0
LINE
8
Lager 1
10
-51.948200
20
-3.928950
11
-51.948200
21
-3.928950
0
LINE
8
Lager 1
10
-56.498500
20
-4.195830
11
-56.674600
21
-4.229500
0
LINE
8
Lager 1
10
-56.674600
20
-4.229500
11
-56.727150
21
-4.286589
0
LINE
8
Lager 1
10
-56.727150
20
-4.286589
11
-56.531000
21
-4.341210
0
LINE
8
Lager 1
10
-56.531000
20
-4.341210
11
-56.212600
21
-4.448286
0
LINE
8
Lager 1
10
-56.212600
20
-4.448286
11
-56.279400
21
-4.628840
0
LINE
8
Lager 1
10
-56.279400
20
-4.628840
11
-56.534600
21
-5.076570
0
LINE
8
Lager 1
10
-56.534600
20
-5.076570
11
-56.547800
21
-5.763100
0
LINE
8
Lager 1
10
-56.547800
20
-5.763100
11
-56.417200
21
-6.435440
0
LINE
8
Lager 1
10
-56.417200
20
-6.435440
11
-56.052200
21
-7.010860
0
LINE
8
Lager 1
10
-56.052200
20
-7.010860
11
-55.761800
21
-7.295280
0
LINE
8
Lager 1
10
-55.761800
20
-7.295280
11
-56.029600
21
-7.536770
0
LINE
8
Lager 1
10
-56.029600
20
-7.536770
11
-56.348700
21
-7.777730
0
LINE
8
Lager 1
10
-56.348700
20
-7.777730
11
-56.526900
21
-8.037740
0
LINE
8
Lager 1
10
-56.526900
20
-8.037740
11
-56.598700
21
-8.296320
0
LINE
8
Lager 1
10
-56.598700
20
-8.296320
11
-56.130000
21
-7.888690
0
LINE
8
Lager 1
10
-56.130000
20
-7.888690
11
-55.681900
21
-7.502940
0
LINE
8
Lager 1
10
-55.681900
20
-7.502940
11
-55.202800
21
-7.156020
0
LINE
8
Lager 1
10
-55.202800
20
-7.156020
11
-54.717600
21
-6.844270
0
LINE
8
Lager 1
10
-54.717600
20
-6.844270
11
-54.191700
21
-6.598370
0
LINE
8
Lager 1
10
-54.191700
20
-6.598370
11
-53.643500
21
-6.409680
0
LINE
8
Lager 1
10
-53.643500
20
-6.409680
11
-53.007200
21
-6.347180
0
LINE
8
Lager 1
10
-53.007200
20
-6.347180
11
-52.375300
21
-6.424020
0
LINE
8
Lager 1
10
-52.375300
20
-6.424020
11
-51.846200
21
-6.771690
0
LINE
8
Lager 1
10
-51.846200
20
-6.771690
11
-51.619800
21
-7.235320
0
LINE
8
Lager 1
10
-51.619800
20
-7.235320
11
-51.759800
21
-7.737480
0
LINE
8
Lager 1
10
-51.759800
20
-7.737480
11
-51.866725
21
-7.986025
0
LINE
8
Lager 1
10
-51.866725
20
-7.986025
11
-51.750000
21
-7.985240
0
LINE
8
Lager 1
10
-51.750000
20
-7.985240
11
-51.855100
21
-8.266760
0
LINE
8
Lager 1
10
-51.855100
20
-8.266760
11
-52.220300
21
-8.654600
0
LINE
8
Lager 1
10
-52.220300
20
-8.654600
11
-52.591000
21
-9.037360
0
LINE
8
Lager 1
10
-52.591000
20
-9.037360
11
-52.957700
21
-9.423860
0
LINE
8
Lager 1
10
-52.957700
20
-9.423860
11
-53.419200
21
-9.783250
0
LINE
8
Lager 1
10
-53.419200
20
-9.783250
11
-53.833200
21
-10.193700
0
LINE
8
Lager 1
10
-53.833200
20
-10.193700
11
-53.676187
21
-10.196756
0
LINE
8
Lager 1
10
-53.676187
20
-10.196756
11
-53.328300
21
-9.942450
0
LINE
8
Lager 1
10
-53.328300
20
-9.942450
11
-53.050900
21
-9.752120
0
LINE
8
Lager 1
10
-53.050900
20
-9.752120
11
-53.003800
21
-10.446800
0
LINE
8
Lager 1
10
-53.003800
20
-10.446800
11
-52.983000
21
-10.825100
0
LINE
8
Lager 1
10
-52.983000
20
-10.825100
11
-52.906200
21
-11.193000
0
LINE
8
Lager 1
10
-52.906200
20
-11.193000
11
-52.720300
21
-11.678900
0
LINE
8
Lager 1
10
-52.720300
20
-11.678900
11
-52.521500
21
-11.884200
0
LINE
8
Lager 1
10
-52.521500
20
-11.884200
11
-52.465200
21
-11.632625
0
LINE
8
Lager 1
10
-52.465200
20
-11.632625
11
-52.576900
21
-11.317300
0
LINE
8
Lager 1
10
-52.576900
20
-11.317300
11
-52.748000
21
-10.622000
0
LINE
8
Lager 1
10
-52.748000
20
-10.622000
11
-52.796400
21
-10.061500
0
LINE
8
Lager 1
10
-52.796400
20
-10.061500
11
-52.632600
21
-9.449470
0
LINE
8
Lager 1
10
-52.632600
20
-9.449470
11
-52.261900
21
-9.025490
0
LINE
8
Lager 1
10
-52.261900
20
-9.025490
11
-51.843800
21
-8.639660
0
LINE
8
Lager 1
10
-51.843800
20
-8.639660
11
-51.613300
21
-8.290500
0
LINE
8
Lager 1
10
-51.613300
20
-8.290500
11
-51.414300
21
-7.666850
0
LINE
8
Lager 1
10
-51.414300
20
-7.666850
11
-51.387300
21
-7.050960
0
LINE
8
Lager 1
10
-51.387300
20
-7.050960
11
-51.414700
21
-6.845310
0
LINE
8
Lager 1
10
-51.414700
20
-6.845310
11
-51.648600
21
-6.664080
0
LINE
8
Lager 1
10
-51.648600
20
-6.664080
11
-52.181800
21
-6.312610
0
LINE
8
Lager 1
10
-52.181800
20
-6.312610
11
-52.795400
21
-6.134520
0
LINE
8
Lager 1
10
-52.795400
20
-6.134520
11
-53.468800
21
-6.020190
0
LINE
8
Lager 1
10
-53.468800
20
-6.020190
11
-54.110600
21
-5.789980
0
LINE
8
Lager 1
10
-54.110600
20
-5.789980
11
-54.687100
21
-5.424620
0
LINE
8
Lager 1
10
-54.687100
20
-5.424620
11
-55.214800
21
-4.990550
0
LINE
8
Lager 1
10
-55.214800
20
-4.990550
11
-55.606400
21
-4.662520
0
LINE
8
Lager 1
10
-55.606400
20
-4.662520
11
-56.023100
21
-4.367420
0
LINE
8
Lager 1
10
-56.023100
20
-4.367420
11
-56.498500
21
-4.195830
0
LINE
8
Lager 1
10
-56.498500
20
-4.195830
11
-56.498500
21
-4.195830
0
LINE
8
Lager 1
10
-55.986700
20
-4.655350
11
-55.874237
21
-4.761504
0
LINE
8
Lager 1
10
-55.874237
20
-4.761504
11
-55.870300
21
-5.155350
0
LINE
8
Lager 1
10
-55.870300
20
-5.155350
11
-55.858300
21
-5.541630
0
LINE
8
Lager 1
10
-55.858300
20
-5.541630
11
-55.657200
21
-5.869660
0
LINE
8
Lager 1
10
-55.657200
20
-5.869660
11
-55.234700
21
-6.230920
0
LINE
8
Lager 1
10
-55.234700
20
-6.230920
11
-54.698700
21
-6.364950
0
LINE
8
Lager 1
10
-54.698700
20
-6.364950
11
-54.166200
21
-6.212400
0
LINE
8
Lager 1
10
-54.166200
20
-6.212400
11
-53.799800
21
-6.126600
0
LINE
8
Lager 1
10
-53.799800
20
-6.126600
11
-54.157200
21
-6.375700
0
LINE
8
Lager 1
10
-54.157200
20
-6.375700
11
-54.635500
21
-6.604950
0
LINE
8
Lager 1
10
-54.635500
20
-6.604950
11
-55.096100
21
-6.867940
0
LINE
8
Lager 1
10
-55.096100
20
-6.867940
11
-55.629700
21
-7.185890
0
LINE
8
Lager 1
10
-55.629700
20
-7.185890
11
-55.962600
21
-6.846880
0
LINE
8
Lager 1
10
-55.962600
20
-6.846880
11
-56.209600
21
-6.434620
0
LINE
8
Lager 1
10
-56.209600
20
-6.434620
11
-56.370100
21
-5.829190
0
LINE
8
Lager 1
10
-56.370100
20
-5.829190
11
-56.373400
21
-5.202620
0
LINE
8
Lager 1
10
-56.373400
20
-5.202620
11
-56.271925
21
-4.853224
0
LINE
8
Lager 1
10
-56.271925
20
-4.853224
11
-56.087800
21
-4.675360
0
LINE
8
Lager 1
10
-56.087800
20
-4.675360
11
-55.986700
21
-4.655350
0
LINE
8
Lager 1
10
-55.986700
20
-4.655350
11
-55.986700
21
-4.655350
0
LINE
8
Lager 1
10
-55.740100
20
-5.033860
11
-55.314800
21
-5.355990
0
LINE
8
Lager 1
10
-55.314800
20
-5.355990
11
-55.066600
21
-5.639300
0
LINE
8
Lager 1
10
-55.066600
20
-5.639300
11
-55.402900
21
-5.603600
0
LINE
8
Lager 1
10
-55.402900
20
-5.603600
11
-55.726763
21
-5.432736
0
LINE
8
Lager 1
10
-55.726763
20
-5.432736
11
-55.810400
21
-5.196570
0
LINE
8
Lager 1
10
-55.810400
20
-5.196570
11
-55.740100
21
-5.033860
0
LINE
8
Lager 1
10
-55.740100
20
-5.033860
11
-55.740100
21
-5.033860
0
LINE
8
Lager 1
10
-47.015800
20
-5.461130
11
-46.972100
21
-6.065890
0
LINE
8
Lager 1
10
-46.972100
20
-6.065890
11
-46.966500
21
-6.674990
0
LINE
8
Lager 1
10
-46.966500
20
-6.674990
11
-46.962000
21
-7.240920
0
LINE
8
Lager 1
10
-46.962000
20
-7.240920
11
-46.934600
21
-7.806110
0
LINE
8
Lager 1
10
-46.934600
20
-7.806110
11
-46.844900
21
-8.364130
0
LINE
8
Lager 1
10
-46.844900
20
-8.364130
11
-46.754500
21
-8.873830
0
LINE
8
Lager 1
10
-46.754500
20
-8.873830
11
-46.972700
21
-8.658480
0
LINE
8
Lager 1
10
-46.972700
20
-8.658480
11
-47.354400
21
-8.088890
0
LINE
8
Lager 1
10
-47.354400
20
-8.088890
11
-47.667300
21
-7.478970
0
LINE
8
Lager 1
10
-47.667300
20
-7.478970
11
-47.904000
21
-6.835460
0
LINE
8
Lager 1
10
-47.904000
20
-6.835460
11
-48.020500
21
-6.461580
0
LINE
8
Lager 1
10
-48.020500
20
-6.461580
11
-48.137000
21
-6.087700
0
LINE
8
Lager 1
10
-48.137000
20
-6.087700
11
-47.970800
21
-5.976590
0
LINE
8
Lager 1
10
-47.970800
20
-5.976590
11
-47.503000
21
-5.700150
0
LINE
8
Lager 1
10
-47.503000
20
-5.700150
11
-47.015800
21
-5.461130
0
LINE
8
Lager 1
10
-47.015800
20
-5.461130
11
-47.015800
21
-5.461130
0
LINE
8
Lager 1
10
-48.271000
20
-6.213290
11
-48.133600
21
-6.515710
0
LINE
8
Lager 1
10
-48.133600
20
-6.515710
11
-48.126463
21
-6.766737
0
LINE
8
Lager 1
10
-48.126463
20
-6.766737
11
-48.292200
21
-7.005780
0
LINE
8
Lager 1
10
-48.292200
20
-7.005780
11
-48.568038
21
-7.229110
0
LINE
8
Lager 1
10
-48.568038
20
-7.229110
11
-48.689900
21
-7.072010
0
LINE
8
Lager 1
10
-48.689900
20
-7.072010
11
-48.739563
21
-6.593155
0
LINE
8
Lager 1
10
-48.739563
20
-6.593155
11
-48.638400
21
-6.419010
0
LINE
8
Lager 1
10
-48.638400
20
-6.419010
11
-48.413000
21
-6.296850
0
LINE
8
Lager 1
10
-48.413000
20
-6.296850
11
-48.271000
21
-6.213290
0
LINE
8
Lager 1
10
-48.271000
20
-6.213290
11
-48.271000
21
-6.213290
0
LINE
8
Lager 1
10
-42.677000
20
-6.712770
11
-42.611587
21
-6.882685
0
LINE
8
Lager 1
10
-42.611587
20
-6.882685
11
-42.764500
21
-7.394000
0
LINE
8
Lager 1
10
-42.764500
20
-7.394000
11
-42.973200
21
-7.835750
0
LINE
8
Lager 1
10
-42.973200
20
-7.835750
11
-43.197600
21
-7.411170
0
LINE
8
Lager 1
10
-43.197600
20
-7.411170
11
-43.341200
21
-6.950750
0
LINE
8
Lager 1
10
-43.341200
20
-6.950750
11
-43.091500
21
-6.854350
0
LINE
8
Lager 1
10
-43.091500
20
-6.854350
11
-42.735700
21
-6.726060
0
LINE
8
Lager 1
10
-42.735700
20
-6.726060
11
-42.677000
21
-6.712770
0
LINE
8
Lager 1
10
-42.677000
20
-6.712770
11
-42.677000
21
-6.712770
0
LINE
8
Lager 1
10
-48.957700
20
-6.715230
11
-48.814900
21
-7.076570
0
LINE
8
Lager 1
10
-48.814900
20
-7.076570
11
-48.733900
21
-7.459480
0
LINE
8
Lager 1
10
-48.733900
20
-7.459480
11
-48.831100
21
-7.625780
0
LINE
8
Lager 1
10
-48.831100
20
-7.625780
11
-49.100300
21
-7.964860
0
LINE
8
Lager 1
10
-49.100300
20
-7.964860
11
-49.344000
21
-8.205600
0
LINE
8
Lager 1
10
-49.344000
20
-8.205600
11
-49.568800
21
-7.700750
0
LINE
8
Lager 1
10
-49.568800
20
-7.700750
11
-49.581900
21
-7.157290
0
LINE
8
Lager 1
10
-49.581900
20
-7.157290
11
-49.261200
21
-6.935740
0
LINE
8
Lager 1
10
-49.261200
20
-6.935740
11
-48.957700
21
-6.715230
0
LINE
8
Lager 1
10
-48.957700
20
-6.715230
11
-48.957700
21
-6.715230
0
LINE
8
Lager 1
10
-49.861500
20
-7.471730
11
-49.597500
21
-8.088810
0
LINE
8
Lager 1
10
-49.597500
20
-8.088810
11
-49.555300
21
-8.562080
0
LINE
8
Lager 1
10
-49.555300
20
-8.562080
11
-49.639500
21
-8.662060
0
LINE
8
Lager 1
10
-49.639500
20
-8.662060
11
-49.960500
21
-9.133610
0
LINE
8
Lager 1
10
-49.960500
20
-9.133610
11
-50.368300
21
-9.569400
0
LINE
8
Lager 1
10
-50.368300
20
-9.569400
11
-50.623600
21
-9.147350
0
LINE
8
Lager 1
10
-50.623600
20
-9.147350
11
-50.729700
21
-8.638470
0
LINE
8
Lager 1
10
-50.729700
20
-8.638470
11
-50.778600
21
-8.245400
0
LINE
8
Lager 1
10
-50.778600
20
-8.245400
11
-50.297500
21
-7.812160
0
LINE
8
Lager 1
10
-50.297500
20
-7.812160
11
-49.861500
21
-7.471730
0
LINE
8
Lager 1
10
-49.861500
20
-7.471730
11
-49.861500
21
-7.471730
0
LINE
8
Lager 1
10
-50.997600
20
-8.583510
11
-50.744700
21
-9.138170
0
LINE
8
Lager 1
10
-50.744700
20
-9.138170
11
-50.562100
21
-9.730540
0
LINE
8
Lager 1
10
-50.562100
20
-9.730540
11
-50.833400
21
-9.971050
0
LINE
8
Lager 1
10
-50.833400
20
-9.971050
11
-51.181300
21
-10.107300
0
LINE
8
Lager 1
10
-51.181300
20
-10.107300
11
-51.542200
21
-10.080300
0
LINE
8
Lager 1
10
-51.542200
20
-10.080300
11
-51.539200
21
-9.552000
0
LINE
8
Lager 1
10
-51.539200
20
-9.552000
11
-51.325500
21
-9.051180
0
LINE
8
Lager 1
10
-51.325500
20
-9.051180
11
-50.997600
21
-8.583510
0
LINE
8
Lager 1
10
-50.997600
20
-8.583510
11
-50.997600
21
-8.583510
0
LINE
8
Lager 1
10
-59.112900
20
-8.761300
11
-59.564600
21
-8.961350
0
LINE
8
Lager 1
10
-59.564600
20
-8.961350
11
-59.622800
21
-9.140232
0
LINE
8
Lager 1
10
-59.622800
20
-9.140232
11
-59.471600
21
-9.059090
0
LINE
8
Lager 1
10
-59.471600
20
-9.059090
11
-59.129825
21
-8.954645
0
LINE
8
Lager 1
10
-59.129825
20
-8.954645
11
-58.862600
21
-9.110390
0
LINE
8
Lager 1
10
-58.862600
20
-9.110390
11
-58.782050
21
-9.247367
0
LINE
8
Lager 1
10
-58.782050
20
-9.247367
11
-58.766900
21
-9.084330
0
LINE
8
Lager 1
10
-58.766900
20
-9.084330
11
-58.912000
21
-8.822530
0
LINE
8
Lager 1
10
-58.912000
20
-8.822530
11
-59.112900
21
-8.761300
0
LINE
8
Lager 1
10
-59.112900
20
-8.761300
11
-59.112900
21
-8.761300
0
LINE
8
Lager 1
10
-54.041900
20
-10.716300
11
-54.068300
21
-10.722700
0
LINE
8
Lager 1
10
-54.068300
20
-10.722700
11
-54.245400
21
-11.186600
0
LINE
8
Lager 1
10
-54.245400
20
-11.186600
11
-54.217900
21
-11.696000
0
LINE
8
Lager 1
10
-54.217900
20
-11.696000
11
-54.028000
21
-11.977500
0
LINE
8
Lager 1
10
-54.028000
20
-11.977500
11
-53.988900
21
-11.840400
0
LINE
8
Lager 1
10
-53.988900
20
-11.840400
11
-54.064900
21
-11.375100
0
LINE
8
Lager 1
10
-54.064900
20
-11.375100
11
-54.018400
21
-10.903800
0
LINE
8
Lager 1
10
-54.018400
20
-10.903800
11
-54.041900
21
-10.716300
0
LINE
8
Lager 1
10
-54.041900
20
-10.716300
11
-54.041900
21
-10.716300
0
LINE
8
Lager 1
10
-52.381600
20
-13.782500
11
-51.833900
21
-13.879000
0
LINE
8
Lager 1
10
-51.833900
20
-13.879000
11
-51.758975
21
-14.071288
0
LINE
8
Lager 1
10
-51.758975
20
-14.071288
11
-51.821900
21
-14.415900
0
LINE
8
Lager 1
10
-51.821900
20
-14.415900
11
-51.928800
21
-15.074200
0
LINE
8
Lager 1
10
-51.928800
20
-15.074200
11
-51.961512
21
-15.304925
0
LINE
8
Lager 1
10
-51.961512
20
-15.304925
11
-52.104400
21
-15.352800
0
LINE
8
Lager 1
10
-52.104400
20
-15.352800
11
-52.694400
21
-15.458600
0
LINE
8
Lager 1
10
-52.694400
20
-15.458600
11
-53.272900
21
-15.619600
0
LINE
8
Lager 1
10
-53.272900
20
-15.619600
11
-53.837400
21
-15.823100
0
LINE
8
Lager 1
10
-53.837400
20
-15.823100
11
-54.443100
21
-16.196400
0
LINE
8
Lager 1
10
-54.443100
20
-16.196400
11
-54.988800
21
-16.654000
0
LINE
8
Lager 1
10
-54.988800
20
-16.654000
11
-55.459000
21
-17.187700
0
LINE
8
Lager 1
10
-55.459000
20
-17.187700
11
-55.723600
21
-17.564900
0
LINE
8
Lager 1
10
-55.723600
20
-17.564900
11
-55.872500
21
-17.178800
0
LINE
8
Lager 1
10
-55.872500
20
-17.178800
11
-55.979900
21
-16.776100
0
LINE
8
Lager 1
10
-55.979900
20
-16.776100
11
-55.939000
21
-16.156200
0
LINE
8
Lager 1
10
-55.939000
20
-16.156200
11
-55.597500
21
-15.676800
0
LINE
8
Lager 1
10
-55.597500
20
-15.676800
11
-55.204400
21
-15.237400
0
LINE
8
Lager 1
10
-55.204400
20
-15.237400
11
-54.782300
21
-14.826100
0
LINE
8
Lager 1
10
-54.782300
20
-14.826100
11
-54.314500
21
-14.469100
0
LINE
8
Lager 1
10
-54.314500
20
-14.469100
11
-53.939300
21
-14.245100
0
LINE
8
Lager 1
10
-53.939300
20
-14.245100
11
-53.450800
21
-14.000800
0
LINE
8
Lager 1
10
-53.450800
20
-14.000800
11
-52.924600
21
-13.848900
0
LINE
8
Lager 1
10
-52.924600
20
-13.848900
11
-52.381600
21
-13.782500
0
LINE
8
Lager 1
10
-52.381600
20
-13.782500
11
-52.381600
21
-13.782500
0
LINE
8
Lager 1
10
-58.071300
20
-18.538700
11
-58.444700
21
-18.805500
0
LINE
8
Lager 1
10
-58.444700
20
-18.805500
11
-58.738300
21
-19.165600
0
LINE
8
Lager 1
10
-58.738300
20
-19.165600
11
-58.738500
21
-19.165600
0
LINE
8
Lager 1
10
-58.738500
20
-19.165600
11
-58.853200
21
-19.276800
0
LINE
8
Lager 1
10
-58.853200
20
-19.276800
11
-58.654900
21
-19.276800
0
LINE
8
Lager 1
10
-58.654900
20
-19.276800
11
-58.440100
21
-19.111900
0
LINE
8
Lager 1
10
-58.440100
20
-19.111900
11
-58.458900
21
-19.261100
0
LINE
8
Lager 1
10
-58.458900
20
-19.261100
11
-58.468700
21
-19.276800
0
LINE
8
Lager 1
10
-58.468700
20
-19.276800
11
-58.028900
21
-19.276800
0
LINE
8
Lager 1
10
-58.028900
20
-19.276800
11
-58.012700
21
-18.867700
0
LINE
8
Lager 1
10
-58.012700
20
-18.867700
11
-58.049200
21
-18.542000
0
LINE
8
Lager 1
10
-58.049200
20
-18.542000
11
-58.071300
21
-18.538700
0
LINE
8
Lager 1
10
-58.071300
20
-18.538700
11
-58.071300
21
-18.538700
 0 
ENDSEC
 0 
EOF