999
"DXF R12 Output" (www.mydxf.blogspot.com)
 0 
SECTION
 2 
HEADER
 9 
$ACADVER
 1 
AC1009
 9 
$EXTMIN
 10 
 0 
 20 
 0 
 9 
$EXTMAX
 10 
 8.5 
 20 
 11 
 0 
ENDSEC
 0 
SECTION
 2 
ENTITIES
0
LINE
8
Lager 1
10
-62.939400
20
-13.096700
11
-62.499685
21
-12.967776
0
LINE
8
Lager 1
10
-62.499685
20
-12.967776
11
-61.373925
21
-12.445952
0
LINE
8
Lager 1
10
-61.373925
20
-12.445952
11
-61.133139
21
-12.325194
0
LINE
8
Lager 1
10
-61.133139
20
-12.325194
11
-61.093761
21
-12.422908
0
LINE
8
Lager 1
10
-61.093761
20
-12.422908
11
-61.181996
21
-12.650568
0
LINE
8
Lager 1
10
-61.181996
20
-12.650568
11
-61.295856
21
-13.493700
0
LINE
8
Lager 1
10
-61.295856
20
-13.493700
11
-61.237854
21
-14.575538
0
LINE
8
Lager 1
10
-61.237854
20
-14.575538
11
-61.070658
21
-14.949020
0
LINE
8
Lager 1
10
-61.070658
20
-14.949020
11
-60.995756
21
-14.987557
0
LINE
8
Lager 1
10
-60.995756
20
-14.987557
11
-60.963670
21
-14.885453
0
LINE
8
Lager 1
10
-60.963670
20
-14.885453
11
-60.599356
21
-14.316522
0
LINE
8
Lager 1
10
-60.599356
20
-14.316522
11
-60.541164
21
-14.447050
0
LINE
8
Lager 1
10
-60.541164
20
-14.447050
11
-60.731196
21
-16.089960
0
LINE
8
Lager 1
10
-60.731196
20
-16.089960
11
-60.281127
21
-18.201320
0
LINE
8
Lager 1
10
-60.281127
20
-18.201320
11
-60.029695
21
-17.761459
0
LINE
8
Lager 1
10
-60.029695
20
-17.761459
11
-59.733635
21
-17.222280
0
LINE
8
Lager 1
10
-59.733635
20
-17.222280
11
-59.642226
21
-17.193552
0
LINE
8
Lager 1
10
-59.642226
20
-17.193552
11
-59.676757
21
-17.459420
0
LINE
8
Lager 1
10
-59.676757
20
-17.459420
11
-59.649776
21
-18.952990
0
LINE
8
Lager 1
10
-59.649776
20
-18.952990
11
-59.582397
21
-19.276760
0
LINE
8
Lager 1
10
-59.582397
20
-19.276760
11
-59.345500
21
-19.276800
0
LINE
8
Lager 1
10
-59.345500
20
-19.276800
11
-59.392315
21
-18.787062
0
LINE
8
Lager 1
10
-59.392315
20
-18.787062
11
-59.413976
21
-17.623021
0
LINE
8
Lager 1
10
-59.413976
20
-17.623021
11
-59.224305
21
-16.772102
0
LINE
8
Lager 1
10
-59.224305
20
-16.772102
11
-59.311957
21
-16.640844
0
LINE
8
Lager 1
10
-59.311957
20
-16.640844
11
-59.695780
21
-16.890682
0
LINE
8
Lager 1
10
-59.695780
20
-16.890682
11
-60.060566
21
-17.419059
0
LINE
8
Lager 1
10
-60.060566
20
-17.419059
11
-60.192991
21
-17.716723
0
LINE
8
Lager 1
10
-60.192991
20
-17.716723
11
-60.281663
21
-17.155959
0
LINE
8
Lager 1
10
-60.281663
20
-17.155959
11
-60.360673
21
-15.643119
0
LINE
8
Lager 1
10
-60.360673
20
-15.643119
11
-60.224639
21
-14.769249
0
LINE
8
Lager 1
10
-60.224639
20
-14.769249
11
-59.743943
21
-15.183587
0
LINE
8
Lager 1
10
-59.743943
20
-15.183587
11
-59.016896
21
-15.760899
0
LINE
8
Lager 1
10
-59.016896
20
-15.760899
11
-58.391543
21
-15.987324
0
LINE
8
Lager 1
10
-58.391543
20
-15.987324
11
-58.092899
21
-16.155645
0
LINE
8
Lager 1
10
-58.092899
20
-16.155645
11
-58.082211
21
-16.411725
0
LINE
8
Lager 1
10
-58.082211
20
-16.411725
11
-58.063980
21
-16.486688
0
LINE
8
Lager 1
10
-58.063980
20
-16.486688
11
-57.862718
21
-16.820083
0
LINE
8
Lager 1
10
-57.862718
20
-16.820083
11
-57.686540
21
-17.176230
0
LINE
8
Lager 1
10
-57.686540
20
-17.176230
11
-57.654164
21
-17.344532
0
LINE
8
Lager 1
10
-57.654164
20
-17.344532
11
-57.654164
21
-17.421392
0
LINE
8
Lager 1
10
-57.654164
20
-17.421392
11
-57.209345
21
-18.134124
0
LINE
8
Lager 1
10
-57.209345
20
-18.134124
11
-56.736087
21
-18.963384
0
LINE
8
Lager 1
10
-56.736087
20
-18.963384
11
-56.536720
21
-19.266882
0
LINE
8
Lager 1
10
-56.536720
20
-19.266882
11
-56.522865
21
-19.276799
0
LINE
8
Lager 1
10
-56.522865
20
-19.276799
11
-56.231900
21
-19.276800
0
LINE
8
Lager 1
10
-56.231900
20
-19.276800
11
-56.318968
21
-19.195858
0
LINE
8
Lager 1
10
-56.318968
20
-19.195858
11
-56.418578
21
-19.005971
0
LINE
8
Lager 1
10
-56.418578
20
-19.005971
11
-56.923922
21
-18.271363
0
LINE
8
Lager 1
10
-56.923922
20
-18.271363
11
-57.297278
21
-17.556006
0
LINE
8
Lager 1
10
-57.297278
20
-17.556006
11
-57.881815
21
-16.000746
0
LINE
8
Lager 1
10
-57.881815
20
-16.000746
11
-57.336364
21
-15.949263
0
LINE
8
Lager 1
10
-57.336364
20
-15.949263
11
-56.744029
21
-15.888080
0
LINE
8
Lager 1
10
-56.744029
20
-15.888080
11
-56.475165
21
-15.737063
0
LINE
8
Lager 1
10
-56.475165
20
-15.737063
11
-56.442059
21
-15.703373
0
LINE
8
Lager 1
10
-56.442059
20
-15.703373
11
-56.433600
21
-15.702775
0
LINE
8
Lager 1
10
-56.433600
20
-15.702775
11
-56.199085
21
-16.511617
0
LINE
8
Lager 1
10
-56.199085
20
-16.511617
11
-55.205898
21
-19.073927
0
LINE
8
Lager 1
10
-55.205898
20
-19.073927
11
-55.106434
21
-19.276793
0
LINE
8
Lager 1
10
-55.106434
20
-19.276793
11
-54.919100
21
-19.276800
0
LINE
8
Lager 1
10
-54.919100
20
-19.276800
11
-54.920123
21
-19.275486
0
LINE
8
Lager 1
10
-54.920123
20
-19.275486
11
-55.609665
21
-17.777826
0
LINE
8
Lager 1
10
-55.609665
20
-17.777826
11
-55.458362
21
-17.354778
0
LINE
8
Lager 1
10
-55.458362
20
-17.354778
11
-55.057726
21
-16.863630
0
LINE
8
Lager 1
10
-55.057726
20
-16.863630
11
-53.794075
21
-15.962676
0
LINE
8
Lager 1
10
-53.794075
20
-15.962676
11
-52.181205
21
-15.501522
0
LINE
8
Lager 1
10
-52.181205
20
-15.501522
11
-51.964901
21
-15.562410
0
LINE
8
Lager 1
10
-51.964901
20
-15.562410
11
-51.860935
21
-15.933507
0
LINE
8
Lager 1
10
-51.860935
20
-15.933507
11
-51.601189
21
-16.825770
0
LINE
8
Lager 1
10
-51.601189
20
-16.825770
11
-51.424428
21
-17.325134
0
LINE
8
Lager 1
10
-51.424428
20
-17.325134
11
-51.667839
21
-17.410597
0
LINE
8
Lager 1
10
-51.667839
20
-17.410597
11
-53.418089
21
-18.071118
0
LINE
8
Lager 1
10
-53.418089
20
-18.071118
11
-54.203294
21
-18.683208
0
LINE
8
Lager 1
10
-54.203294
20
-18.683208
11
-54.722649
21
-19.276798
0
LINE
8
Lager 1
10
-54.722649
20
-19.276798
11
-54.567200
21
-19.276800
0
LINE
8
Lager 1
10
-54.567200
20
-19.276800
11
-54.105171
21
-18.751184
0
LINE
8
Lager 1
10
-54.105171
20
-18.751184
11
-53.213257
21
-18.080800
0
LINE
8
Lager 1
10
-53.213257
20
-18.080800
11
-52.162111
21
-17.638404
0
LINE
8
Lager 1
10
-52.162111
20
-17.638404
11
-51.578304
21
-17.522168
0
LINE
8
Lager 1
10
-51.578304
20
-17.522168
11
-51.321249
21
-17.615574
0
LINE
8
Lager 1
10
-51.321249
20
-17.615574
11
-51.135089
21
-17.919442
0
LINE
8
Lager 1
10
-51.135089
20
-17.919442
11
-50.748461
21
-18.620944
0
LINE
8
Lager 1
10
-50.748461
20
-18.620944
11
-50.552549
21
-19.002942
0
LINE
8
Lager 1
10
-50.552549
20
-19.002942
11
-50.719293
21
-19.097266
0
LINE
8
Lager 1
10
-50.719293
20
-19.097266
11
-51.224345
21
-19.216127
0
LINE
8
Lager 1
10
-51.224345
20
-19.216127
11
-51.558761
21
-19.276797
0
LINE
8
Lager 1
10
-51.558761
20
-19.276797
11
-51.000500
21
-19.276800
0
LINE
8
Lager 1
10
-51.000500
20
-19.276800
11
-50.636332
21
-19.205046
0
LINE
8
Lager 1
10
-50.636332
20
-19.205046
11
-50.392630
21
-19.186232
0
LINE
8
Lager 1
10
-50.392630
20
-19.186232
11
-50.244599
21
-19.240777
0
LINE
8
Lager 1
10
-50.244599
20
-19.240777
11
-50.267643
21
-19.276800
0
LINE
8
Lager 1
10
-50.267643
20
-19.276800
11
-49.834900
21
-19.276800
0
LINE
8
Lager 1
10
-49.834900
20
-19.276800
11
-50.107188
21
-18.923716
0
LINE
8
Lager 1
10
-50.107188
20
-18.923716
11
-51.410438
21
-16.452266
0
LINE
8
Lager 1
10
-51.410438
20
-16.452266
11
-51.640469
21
-15.595226
0
LINE
8
Lager 1
10
-51.640469
20
-15.595226
11
-51.685352
21
-14.750426
0
LINE
8
Lager 1
10
-51.685352
20
-14.750426
11
-51.610243
21
-14.346005
0
LINE
8
Lager 1
10
-51.610243
20
-14.346005
11
-51.303682
21
-14.424760
0
LINE
8
Lager 1
10
-51.303682
20
-14.424760
11
-50.713405
21
-14.512063
0
LINE
8
Lager 1
10
-50.713405
20
-14.512063
11
-50.293722
21
-14.396174
0
LINE
8
Lager 1
10
-50.293722
20
-14.396174
11
-49.937353
21
-14.199992
0
LINE
8
Lager 1
10
-49.937353
20
-14.199992
11
-49.491268
21
-13.711827
0
LINE
8
Lager 1
10
-49.491268
20
-13.711827
11
-48.815902
21
-12.487244
0
LINE
8
Lager 1
10
-48.815902
20
-12.487244
11
-48.722647
21
-11.650499
0
LINE
8
Lager 1
10
-48.722647
20
-11.650499
11
-49.048083
21
-10.875544
0
LINE
8
Lager 1
10
-49.048083
20
-10.875544
11
-49.129171
21
-10.482790
0
LINE
8
Lager 1
10
-49.129171
20
-10.482790
11
-48.968161
21
-10.374137
0
LINE
8
Lager 1
10
-48.968161
20
-10.374137
11
-48.725626
21
-10.208022
0
LINE
8
Lager 1
10
-48.725626
20
-10.208022
11
-47.891407
21
-9.526938
0
LINE
8
Lager 1
10
-47.891407
20
-9.526938
11
-47.346831
21
-9.088682
0
LINE
8
Lager 1
10
-47.346831
20
-9.088682
11
-47.102837
21
-8.866564
0
LINE
8
Lager 1
10
-47.102837
20
-8.866564
11
-46.897928
21
-9.065930
0
LINE
8
Lager 1
10
-46.897928
20
-9.065930
11
-46.589857
21
-9.212043
0
LINE
8
Lager 1
10
-46.589857
20
-9.212043
11
-46.567449
21
-8.870647
0
LINE
8
Lager 1
10
-46.567449
20
-8.870647
11
-46.640954
21
-8.596755
0
LINE
8
Lager 1
10
-46.640954
20
-8.596755
11
-46.214656
21
-8.289465
0
LINE
8
Lager 1
10
-46.214656
20
-8.289465
11
-45.750731
21
-7.936235
0
LINE
8
Lager 1
10
-45.750731
20
-7.936235
11
-45.080877
21
-7.479456
0
LINE
8
Lager 1
10
-45.080877
20
-7.479456
11
-44.708687
21
-7.215043
0
LINE
8
Lager 1
10
-44.708687
20
-7.215043
11
-44.421164
21
-7.017666
0
LINE
8
Lager 1
10
-44.421164
20
-7.017666
11
-44.055022
21
-6.977466
0
LINE
8
Lager 1
10
-44.055022
20
-6.977466
11
-43.703499
21
-7.018148
0
LINE
8
Lager 1
10
-43.703499
20
-7.018148
11
-43.520364
21
-7.233711
0
LINE
8
Lager 1
10
-43.520364
20
-7.233711
11
-43.324935
21
-7.664676
0
LINE
8
Lager 1
10
-43.324935
20
-7.664676
11
-43.088567
21
-8.146983
0
LINE
8
Lager 1
10
-43.088567
20
-8.146983
11
-42.841322
21
-7.976341
0
LINE
8
Lager 1
10
-42.841322
20
-7.976341
11
-42.305205
21
-6.570131
0
LINE
8
Lager 1
10
-42.305205
20
-6.570131
11
-42.192615
21
-6.394537
0
LINE
8
Lager 1
10
-42.192615
20
-6.394537
11
-41.779427
21
-5.894724
0
LINE
8
Lager 1
10
-41.779427
20
-5.894724
11
-41.481050
21
-5.031347
0
LINE
8
Lager 1
10
-41.481050
20
-5.031347
11
-41.095443
21
-4.692701
0
LINE
8
Lager 1
10
-41.095443
20
-4.692701
11
-40.322732
21
-4.092396
0
LINE
8
Lager 1
10
-40.322732
20
-4.092396
11
-39.861473
21
-3.546231
0
LINE
8
Lager 1
10
-39.861473
20
-3.546231
11
-39.718786
21
-3.119525
0
LINE
8
Lager 1
10
-39.718786
20
-3.119525
11
-39.830992
21
-2.746869
0
LINE
8
Lager 1
10
-39.830992
20
-2.746869
11
-39.961521
21
-2.096996
0
LINE
8
Lager 1
10
-39.961521
20
-2.096996
11
-40.131426
21
-1.519027
0
LINE
8
Lager 1
10
-40.131426
20
-1.519027
11
-40.677607
21
-1.095786
0
LINE
8
Lager 1
10
-40.677607
20
-1.095786
11
-41.480761
21
-0.479894
0
LINE
8
Lager 1
10
-41.480761
20
-0.479894
11
-41.945998
21
-0.011886
0
LINE
8
Lager 1
10
-41.945998
20
-0.011886
11
-41.874243
21
0.398369
0
LINE
8
Lager 1
10
-41.874243
20
0.398369
11
-41.834993
21
0.993895
0
LINE
8
Lager 1
10
-41.834993
20
0.993895
11
-41.948515
21
1.442107
0
LINE
8
Lager 1
10
-41.948515
20
1.442107
11
-42.211943
21
1.737429
0
LINE
8
Lager 1
10
-42.211943
20
1.737429
11
-42.622414
21
1.874289
0
LINE
8
Lager 1
10
-42.622414
20
1.874289
11
-43.242965
21
1.780662
0
LINE
8
Lager 1
10
-43.242965
20
1.780662
11
-43.816134
21
1.312942
0
LINE
8
Lager 1
10
-43.816134
20
1.312942
11
-44.224792
21
0.934558
0
LINE
8
Lager 1
10
-44.224792
20
0.934558
11
-44.852194
21
0.826849
0
LINE
8
Lager 1
10
-44.852194
20
0.826849
11
-45.668686
21
0.664786
0
LINE
8
Lager 1
10
-45.668686
20
0.664786
11
-46.300404
21
0.399239
0
LINE
8
Lager 1
10
-46.300404
20
0.399239
11
-46.603344
21
0.301330
0
LINE
8
Lager 1
10
-46.603344
20
0.301330
11
-47.018823
21
0.540560
0
LINE
8
Lager 1
10
-47.018823
20
0.540560
11
-47.714740
21
0.965873
0
LINE
8
Lager 1
10
-47.714740
20
0.965873
11
-48.392917
21
1.200349
0
LINE
8
Lager 1
10
-48.392917
20
1.200349
11
-49.051350
21
1.243554
0
LINE
8
Lager 1
10
-49.051350
20
1.243554
11
-49.688033
21
1.095053
0
LINE
8
Lager 1
10
-49.688033
20
1.095053
11
-49.974561
21
0.918414
0
LINE
8
Lager 1
10
-49.974561
20
0.918414
11
-50.206211
21
0.560978
0
LINE
8
Lager 1
10
-50.206211
20
0.560978
11
-50.403049
21
-0.059679
0
LINE
8
Lager 1
10
-50.403049
20
-0.059679
11
-50.398166
21
-0.726600
0
LINE
8
Lager 1
10
-50.398166
20
-0.726600
11
-50.198752
21
-1.392714
0
LINE
8
Lager 1
10
-50.198752
20
-1.392714
11
-49.811999
21
-2.010952
0
LINE
8
Lager 1
10
-49.811999
20
-2.010952
11
-49.481301
21
-2.628402
0
LINE
8
Lager 1
10
-49.481301
20
-2.628402
11
-49.588860
21
-3.237052
0
LINE
8
Lager 1
10
-49.588860
20
-3.237052
11
-49.750016
21
-3.684643
0
LINE
8
Lager 1
10
-49.750016
20
-3.684643
11
-49.957841
21
-4.005933
0
LINE
8
Lager 1
10
-49.957841
20
-4.005933
11
-50.758953
21
-4.525569
0
LINE
8
Lager 1
10
-50.758953
20
-4.525569
11
-50.820061
21
-3.785273
0
LINE
8
Lager 1
10
-50.820061
20
-3.785273
11
-51.010832
21
-2.685455
0
LINE
8
Lager 1
10
-51.010832
20
-2.685455
11
-51.207032
21
-2.441578
0
LINE
8
Lager 1
10
-51.207032
20
-2.441578
11
-51.487436
21
-2.365643
0
LINE
8
Lager 1
10
-51.487436
20
-2.365643
11
-51.906150
21
-2.473129
0
LINE
8
Lager 1
10
-51.906150
20
-2.473129
11
-52.215481
21
-2.625243
0
LINE
8
Lager 1
10
-52.215481
20
-2.625243
11
-52.435120
21
-2.848819
0
LINE
8
Lager 1
10
-52.435120
20
-2.848819
11
-52.578192
21
-3.028059
0
LINE
8
Lager 1
10
-52.578192
20
-3.028059
11
-52.713534
21
-2.522861
0
LINE
8
Lager 1
10
-52.713534
20
-2.522861
11
-53.384846
21
-0.258801
0
LINE
8
Lager 1
10
-53.384846
20
-0.258801
11
-54.017656
21
0.400115
0
LINE
8
Lager 1
10
-54.017656
20
0.400115
11
-53.976967
21
-0.201485
0
LINE
8
Lager 1
10
-53.976967
20
-0.201485
11
-53.991405
21
-2.018245
0
LINE
8
Lager 1
10
-53.991405
20
-2.018245
11
-54.152478
21
-3.590824
0
LINE
8
Lager 1
10
-54.152478
20
-3.590824
11
-54.246473
21
-3.834767
0
LINE
8
Lager 1
10
-54.246473
20
-3.834767
11
-54.391013
21
-3.914345
0
LINE
8
Lager 1
10
-54.391013
20
-3.914345
11
-54.753369
21
-3.819482
0
LINE
8
Lager 1
10
-54.753369
20
-3.819482
11
-55.443853
21
-3.235740
0
LINE
8
Lager 1
10
-55.443853
20
-3.235740
11
-56.523425
21
-2.578520
0
LINE
8
Lager 1
10
-56.523425
20
-2.578520
11
-57.053561
21
-2.473315
0
LINE
8
Lager 1
10
-57.053561
20
-2.473315
11
-57.505923
21
-2.541092
0
LINE
8
Lager 1
10
-57.505923
20
-2.541092
11
-57.876987
21
-2.947446
0
LINE
8
Lager 1
10
-57.876987
20
-2.947446
11
-58.148797
21
-3.600642
0
LINE
8
Lager 1
10
-58.148797
20
-3.600642
11
-58.246511
21
-3.804383
0
LINE
8
Lager 1
10
-58.246511
20
-3.804383
11
-58.789280
21
-2.937232
0
LINE
8
Lager 1
10
-58.789280
20
-2.937232
11
-59.232260
21
-2.034293
0
LINE
8
Lager 1
10
-59.232260
20
-2.034293
11
-59.658558
21
-0.713983
0
LINE
8
Lager 1
10
-59.658558
20
-0.713983
11
-59.799295
21
-0.358128
0
LINE
8
Lager 1
10
-59.799295
20
-0.358128
11
-60.189570
21
-1.541498
0
LINE
8
Lager 1
10
-60.189570
20
-1.541498
11
-60.199900
21
-3.427007
0
LINE
8
Lager 1
10
-60.199900
20
-3.427007
11
-59.721562
21
-5.245308
0
LINE
8
Lager 1
10
-59.721562
20
-5.245308
11
-59.548009
21
-5.712004
0
LINE
8
Lager 1
10
-59.548009
20
-5.712004
11
-59.825089
21
-6.083345
0
LINE
8
Lager 1
10
-59.825089
20
-6.083345
11
-60.324912
21
-6.429986
0
LINE
8
Lager 1
10
-60.324912
20
-6.429986
11
-61.184698
21
-7.052683
0
LINE
8
Lager 1
10
-61.184698
20
-7.052683
11
-61.712452
21
-7.810676
0
LINE
8
Lager 1
10
-61.712452
20
-7.810676
11
-61.692763
21
-8.922726
0
LINE
8
Lager 1
10
-61.692763
20
-8.922726
11
-61.644810
21
-9.220003
0
LINE
8
Lager 1
10
-61.644810
20
-9.220003
11
-61.931215
21
-9.576392
0
LINE
8
Lager 1
10
-61.931215
20
-9.576392
11
-62.258776
21
-10.245955
0
LINE
8
Lager 1
10
-62.258776
20
-10.245955
11
-62.536023
21
-11.015128
0
LINE
8
Lager 1
10
-62.536023
20
-11.015128
11
-62.847688
21
-11.796843
0
LINE
8
Lager 1
10
-62.847688
20
-11.796843
11
-63.096204
21
-12.234079
0
LINE
8
Lager 1
10
-63.096204
20
-12.234079
11
-63.491420
21
-13.133364
0
LINE
8
Lager 1
10
-63.491420
20
-13.133364
11
-63.319785
21
-13.213559
0
LINE
8
Lager 1
10
-63.319785
20
-13.213559
11
-62.939423
21
-13.096736
0
LINE
8
Lager 1
10
-62.939423
20
-13.096736
11
-62.939400
21
-13.096700
0
LINE
8
Lager 1
10
-42.664600
20
1.515660
11
-42.257799
21
1.393064
0
LINE
8
Lager 1
10
-42.257799
20
1.393064
11
-42.066938
21
1.034526
0
LINE
8
Lager 1
10
-42.066938
20
1.034526
11
-42.091586
21
0.495493
0
LINE
8
Lager 1
10
-42.091586
20
0.495493
11
-42.242824
21
0.245519
0
LINE
8
Lager 1
10
-42.242824
20
0.245519
11
-42.301015
21
0.691797
0
LINE
8
Lager 1
10
-42.301015
20
0.691797
11
-42.325955
21
1.073904
0
LINE
8
Lager 1
10
-42.325955
20
1.073904
11
-42.401209
21
0.817951
0
LINE
8
Lager 1
10
-42.401209
20
0.817951
11
-42.435191
21
0.566956
0
LINE
8
Lager 1
10
-42.435191
20
0.566956
11
-42.495006
21
0.433627
0
LINE
8
Lager 1
10
-42.495006
20
0.433627
11
-42.608306
21
0.496223
0
LINE
8
Lager 1
10
-42.608306
20
0.496223
11
-43.041538
21
0.715006
0
LINE
8
Lager 1
10
-43.041538
20
0.715006
11
-43.685206
21
0.807013
0
LINE
8
Lager 1
10
-43.685206
20
0.807013
11
-43.963765
21
0.858495
0
LINE
8
Lager 1
10
-43.963765
20
0.858495
11
-43.139172
21
1.394612
0
LINE
8
Lager 1
10
-43.139172
20
1.394612
11
-42.664601
21
1.515661
0
LINE
8
Lager 1
10
-42.664601
20
1.515661
11
-42.664600
21
1.515660
0
LINE
8
Lager 1
10
-48.589010
20
0.964230
11
-48.588800
21
0.964227
0
LINE
8
Lager 1
10
-48.588800
20
0.964227
11
-48.108833
21
0.903119
0
LINE
8
Lager 1
10
-48.108833
20
0.903119
11
-47.858422
21
0.835011
0
LINE
8
Lager 1
10
-47.858422
20
0.835011
11
-47.011077
21
0.378524
0
LINE
8
Lager 1
10
-47.011077
20
0.378524
11
-46.732080
21
0.191117
0
LINE
8
Lager 1
10
-46.732080
20
0.191117
11
-46.928384
21
0.091069
0
LINE
8
Lager 1
10
-46.928384
20
0.091069
11
-47.212712
21
0.003685
0
LINE
8
Lager 1
10
-47.212712
20
0.003685
11
-47.510441
21
0.180762
0
LINE
8
Lager 1
10
-47.510441
20
0.180762
11
-47.862297
21
0.363051
0
LINE
8
Lager 1
10
-47.862297
20
0.363051
11
-47.983408
21
0.277893
0
LINE
8
Lager 1
10
-47.983408
20
0.277893
11
-47.761874
21
0.159906
0
LINE
8
Lager 1
10
-47.761874
20
0.159906
11
-47.434495
21
-0.011241
0
LINE
8
Lager 1
10
-47.434495
20
-0.011241
11
-47.407185
21
-0.266537
0
LINE
8
Lager 1
10
-47.407185
20
-0.266537
11
-47.527917
21
-0.322058
0
LINE
8
Lager 1
10
-47.527917
20
-0.322058
11
-47.747726
21
-0.159780
0
LINE
8
Lager 1
10
-47.747726
20
-0.159780
11
-48.147335
21
0.109445
0
LINE
8
Lager 1
10
-48.147335
20
0.109445
11
-48.295247
21
0.221514
0
LINE
8
Lager 1
10
-48.295247
20
0.221514
11
-48.169357
21
0.321208
0
LINE
8
Lager 1
10
-48.169357
20
0.321208
11
-48.097617
21
0.349527
0
LINE
8
Lager 1
10
-48.097617
20
0.349527
11
-48.198088
21
0.364086
0
LINE
8
Lager 1
10
-48.198088
20
0.364086
11
-48.523674
21
0.229015
0
LINE
8
Lager 1
10
-48.523674
20
0.229015
11
-48.713349
21
-0.127111
0
LINE
8
Lager 1
10
-48.713349
20
-0.127111
11
-48.692639
21
-0.370084
0
LINE
8
Lager 1
10
-48.692639
20
-0.370084
11
-48.636781
21
-0.537365
0
LINE
8
Lager 1
10
-48.636781
20
-0.537365
11
-48.569403
21
-0.712085
0
LINE
8
Lager 1
10
-48.569403
20
-0.712085
11
-48.276114
21
-0.812570
0
LINE
8
Lager 1
10
-48.276114
20
-0.812570
11
-48.057813
21
-0.861865
0
LINE
8
Lager 1
10
-48.057813
20
-0.861865
11
-47.841650
21
-0.748107
0
LINE
8
Lager 1
10
-47.841650
20
-0.748107
11
-46.023000
21
0.252083
0
LINE
8
Lager 1
10
-46.023000
20
0.252083
11
-44.431543
21
0.544123
0
LINE
8
Lager 1
10
-44.431543
20
0.544123
11
-43.870232
21
0.572626
0
LINE
8
Lager 1
10
-43.870232
20
0.572626
11
-43.699580
21
0.497973
0
LINE
8
Lager 1
10
-43.699580
20
0.497973
11
-43.563363
21
0.466617
0
LINE
8
Lager 1
10
-43.563363
20
0.466617
11
-42.550783
21
0.248874
0
LINE
8
Lager 1
10
-42.550783
20
0.248874
11
-42.479903
21
0.179015
0
LINE
8
Lager 1
10
-42.479903
20
0.179015
11
-42.231825
21
0.009109
0
LINE
8
Lager 1
10
-42.231825
20
0.009109
11
-41.277870
21
-0.788795
0
LINE
8
Lager 1
10
-41.277870
20
-0.788795
11
-41.218837
21
-0.893580
0
LINE
8
Lager 1
10
-41.218837
20
-0.893580
11
-41.402419
21
-0.918886
0
LINE
8
Lager 1
10
-41.402419
20
-0.918886
11
-41.589097
21
-0.914656
0
LINE
8
Lager 1
10
-41.589097
20
-0.914656
11
-41.341456
21
-1.123940
0
LINE
8
Lager 1
10
-41.341456
20
-1.123940
11
-41.164696
21
-1.140712
0
LINE
8
Lager 1
10
-41.164696
20
-1.140712
11
-40.967226
21
-1.186215
0
LINE
8
Lager 1
10
-40.967226
20
-1.186215
11
-40.811466
21
-1.249657
0
LINE
8
Lager 1
10
-40.811466
20
-1.249657
11
-40.670290
21
-1.278242
0
LINE
8
Lager 1
10
-40.670290
20
-1.278242
11
-40.620266
21
-1.335266
0
LINE
8
Lager 1
10
-40.620266
20
-1.335266
11
-40.435776
21
-1.618346
0
LINE
8
Lager 1
10
-40.435776
20
-1.618346
11
-40.253182
21
-1.980473
0
LINE
8
Lager 1
10
-40.253182
20
-1.980473
11
-40.292238
21
-2.127904
0
LINE
8
Lager 1
10
-40.292238
20
-2.127904
11
-40.496884
21
-2.110710
0
LINE
8
Lager 1
10
-40.496884
20
-2.110710
11
-40.776026
21
-2.001912
0
LINE
8
Lager 1
10
-40.776026
20
-2.001912
11
-40.924931
21
-1.939783
0
LINE
8
Lager 1
10
-40.924931
20
-1.939783
11
-41.463089
21
-1.862341
0
LINE
8
Lager 1
10
-41.463089
20
-1.862341
11
-42.258697
21
-1.816977
0
LINE
8
Lager 1
10
-42.258697
20
-1.816977
11
-42.941059
21
-1.923303
0
LINE
8
Lager 1
10
-42.941059
20
-1.923303
11
-43.284810
21
-2.023934
0
LINE
8
Lager 1
10
-43.284810
20
-2.023934
11
-43.676980
21
-2.230301
0
LINE
8
Lager 1
10
-43.676980
20
-2.230301
11
-44.022480
21
-2.422521
0
LINE
8
Lager 1
10
-44.022480
20
-2.422521
11
-45.044167
21
-3.176597
0
LINE
8
Lager 1
10
-45.044167
20
-3.176597
11
-46.140840
21
-4.365291
0
LINE
8
Lager 1
10
-46.140840
20
-4.365291
11
-46.861447
21
-5.163341
0
LINE
8
Lager 1
10
-46.861447
20
-5.163341
11
-48.354147
21
-6.098045
0
LINE
8
Lager 1
10
-48.354147
20
-6.098045
11
-48.602516
21
-6.269993
0
LINE
8
Lager 1
10
-48.602516
20
-6.269993
11
-49.626766
21
-7.036979
0
LINE
8
Lager 1
10
-49.626766
20
-7.036979
11
-50.759333
21
-8.085441
0
LINE
8
Lager 1
10
-50.759333
20
-8.085441
11
-51.456342
21
-8.944159
0
LINE
8
Lager 1
10
-51.456342
20
-8.944159
11
-51.742924
21
-9.653170
0
LINE
8
Lager 1
10
-51.742924
20
-9.653170
11
-51.644206
21
-10.252509
0
LINE
8
Lager 1
10
-51.644206
20
-10.252509
11
-51.443561
21
-10.540955
0
LINE
8
Lager 1
10
-51.443561
20
-10.540955
11
-51.167885
21
-10.688723
0
LINE
8
Lager 1
10
-51.167885
20
-10.688723
11
-51.035731
21
-10.638466
0
LINE
8
Lager 1
10
-51.035731
20
-10.638466
11
-51.280330
21
-10.452167
0
LINE
8
Lager 1
10
-51.280330
20
-10.452167
11
-51.428956
21
-10.381160
0
LINE
8
Lager 1
10
-51.428956
20
-10.381160
11
-51.309207
21
-10.363933
0
LINE
8
Lager 1
10
-51.309207
20
-10.363933
11
-50.499198
21
-9.944491
0
LINE
8
Lager 1
10
-50.499198
20
-9.944491
11
-50.081564
21
-9.600736
0
LINE
8
Lager 1
10
-50.081564
20
-9.600736
11
-49.777570
21
-9.156796
0
LINE
8
Lager 1
10
-49.777570
20
-9.156796
11
-49.220598
21
-8.470461
0
LINE
8
Lager 1
10
-49.220598
20
-8.470461
11
-48.079238
21
-7.096191
0
LINE
8
Lager 1
10
-48.079238
20
-7.096191
11
-47.939375
21
-7.301828
0
LINE
8
Lager 1
10
-47.939375
20
-7.301828
11
-47.325670
21
-8.556368
0
LINE
8
Lager 1
10
-47.325670
20
-8.556368
11
-47.274889
21
-8.696559
0
LINE
8
Lager 1
10
-47.274889
20
-8.696559
11
-47.569372
21
-8.937454
0
LINE
8
Lager 1
10
-47.569372
20
-8.937454
11
-48.552058
21
-9.708668
0
LINE
8
Lager 1
10
-48.552058
20
-9.708668
11
-49.518773
21
-10.634614
0
LINE
8
Lager 1
10
-49.518773
20
-10.634614
11
-49.978838
21
-11.292078
0
LINE
8
Lager 1
10
-49.978838
20
-11.292078
11
-49.431491
21
-10.716876
0
LINE
8
Lager 1
10
-49.431491
20
-10.716876
11
-49.299926
21
-10.767951
0
LINE
8
Lager 1
10
-49.299926
20
-10.767951
11
-49.087449
21
-11.114150
0
LINE
8
Lager 1
10
-49.087449
20
-11.114150
11
-49.021807
21
-11.859394
0
LINE
8
Lager 1
10
-49.021807
20
-11.859394
11
-49.246126
21
-12.714330
0
LINE
8
Lager 1
10
-49.246126
20
-12.714330
11
-49.830923
21
-13.523100
0
LINE
8
Lager 1
10
-49.830923
20
-13.523100
11
-50.511896
21
-14.137460
0
LINE
8
Lager 1
10
-50.511896
20
-14.137460
11
-50.972868
21
-14.237070
0
LINE
8
Lager 1
10
-50.972868
20
-14.237070
11
-51.384179
21
-14.121271
0
LINE
8
Lager 1
10
-51.384179
20
-14.121271
11
-51.550731
21
-14.002701
0
LINE
8
Lager 1
10
-51.550731
20
-14.002701
11
-51.398180
21
-13.792250
0
LINE
8
Lager 1
10
-51.398180
20
-13.792250
11
-50.934110
21
-13.147189
0
LINE
8
Lager 1
10
-50.934110
20
-13.147189
11
-50.930317
21
-13.047141
0
LINE
8
Lager 1
10
-50.930317
20
-13.047141
11
-51.342176
21
-13.377474
0
LINE
8
Lager 1
10
-51.342176
20
-13.377474
11
-51.659487
21
-13.648972
0
LINE
8
Lager 1
10
-51.659487
20
-13.648972
11
-51.905419
21
-13.618989
0
LINE
8
Lager 1
10
-51.905419
20
-13.618989
11
-52.747705
21
-13.610590
0
LINE
8
Lager 1
10
-52.747705
20
-13.610590
11
-53.579539
21
-13.864442
0
LINE
8
Lager 1
10
-53.579539
20
-13.864442
11
-55.085799
21
-14.921212
0
LINE
8
Lager 1
10
-55.085799
20
-14.921212
11
-55.907329
21
-15.889752
0
LINE
8
Lager 1
10
-55.907329
20
-15.889752
11
-55.907500
21
-15.889800
0
LINE
8
Lager 1
10
-55.907500
20
-15.889800
11
-56.125463
21
-16.129725
0
LINE
8
Lager 1
10
-56.125463
20
-16.129725
11
-56.192331
21
-15.855819
0
LINE
8
Lager 1
10
-56.192331
20
-15.855819
11
-56.133959
21
-15.571484
0
LINE
8
Lager 1
10
-56.133959
20
-15.571484
11
-55.889270
21
-15.295055
0
LINE
8
Lager 1
10
-55.889270
20
-15.295055
11
-55.304263
21
-14.563849
0
LINE
8
Lager 1
10
-55.304263
20
-14.563849
11
-55.001760
21
-14.195871
0
LINE
8
Lager 1
10
-55.001760
20
-14.195871
11
-54.680820
21
-13.988745
0
LINE
8
Lager 1
10
-54.680820
20
-13.988745
11
-54.345091
21
-13.671830
0
LINE
8
Lager 1
10
-54.345091
20
-13.671830
11
-54.083304
21
-13.537363
0
LINE
8
Lager 1
10
-54.083304
20
-13.537363
11
-54.251561
21
-13.486030
0
LINE
8
Lager 1
10
-54.251561
20
-13.486030
11
-54.649755
21
-13.727542
0
LINE
8
Lager 1
10
-54.649755
20
-13.727542
11
-54.955280
21
-13.880357
0
LINE
8
Lager 1
10
-54.955280
20
-13.880357
11
-55.344774
21
-14.277516
0
LINE
8
Lager 1
10
-55.344774
20
-14.277516
11
-55.942935
21
-15.000312
0
LINE
8
Lager 1
10
-55.942935
20
-15.000312
11
-56.754163
21
-15.620959
0
LINE
8
Lager 1
10
-56.754163
20
-15.620959
11
-57.689545
21
-15.730691
0
LINE
8
Lager 1
10
-57.689545
20
-15.730691
11
-58.446259
21
-15.575013
0
LINE
8
Lager 1
10
-58.446259
20
-15.575013
11
-59.211265
21
-15.180136
0
LINE
8
Lager 1
10
-59.211265
20
-15.180136
11
-59.677934
21
-14.813807
0
LINE
8
Lager 1
10
-59.677934
20
-14.813807
11
-59.964542
21
-14.345188
0
LINE
8
Lager 1
10
-59.964542
20
-14.345188
11
-60.118828
21
-13.225737
0
LINE
8
Lager 1
10
-60.118828
20
-13.225737
11
-59.917580
21
-12.006318
0
LINE
8
Lager 1
10
-59.917580
20
-12.006318
11
-59.639060
21
-11.243917
0
LINE
8
Lager 1
10
-59.639060
20
-11.243917
11
-59.212578
21
-10.560878
0
LINE
8
Lager 1
10
-59.212578
20
-10.560878
11
-58.655006
21
-9.948856
0
LINE
8
Lager 1
10
-58.655006
20
-9.948856
11
-57.955708
21
-9.482808
0
LINE
8
Lager 1
10
-57.955708
20
-9.482808
11
-57.859598
21
-9.408866
0
LINE
8
Lager 1
10
-57.859598
20
-9.408866
11
-57.933103
21
-9.333611
0
LINE
8
Lager 1
10
-57.933103
20
-9.333611
11
-58.342340
21
-9.491653
0
LINE
8
Lager 1
10
-58.342340
20
-9.491653
11
-58.685212
21
-9.701133
0
LINE
8
Lager 1
10
-58.685212
20
-9.701133
11
-59.039099
21
-9.951572
0
LINE
8
Lager 1
10
-59.039099
20
-9.951572
11
-59.531345
21
-10.559512
0
LINE
8
Lager 1
10
-59.531345
20
-10.559512
11
-60.301582
21
-11.966063
0
LINE
8
Lager 1
10
-60.301582
20
-11.966063
11
-60.450633
21
-12.549579
0
LINE
8
Lager 1
10
-60.450633
20
-12.549579
11
-60.502553
21
-13.187202
0
LINE
8
Lager 1
10
-60.502553
20
-13.187202
11
-60.568835
21
-13.816542
0
LINE
8
Lager 1
10
-60.568835
20
-13.816542
11
-60.777903
21
-14.125551
0
LINE
8
Lager 1
10
-60.777903
20
-14.125551
11
-60.954664
21
-14.239455
0
LINE
8
Lager 1
10
-60.954664
20
-14.239455
11
-60.911203
21
-13.585935
0
LINE
8
Lager 1
10
-60.911203
20
-13.585935
11
-60.717240
21
-12.144185
0
LINE
8
Lager 1
10
-60.717240
20
-12.144185
11
-60.572257
21
-11.786051
0
LINE
8
Lager 1
10
-60.572257
20
-11.786051
11
-60.397108
21
-11.676565
0
LINE
8
Lager 1
10
-60.397108
20
-11.676565
11
-60.281164
21
-11.640105
0
LINE
8
Lager 1
10
-60.281164
20
-11.640105
11
-60.118112
21
-11.258290
0
LINE
8
Lager 1
10
-60.118112
20
-11.258290
11
-59.681812
21
-10.513632
0
LINE
8
Lager 1
10
-59.681812
20
-10.513632
11
-59.208930
21
-9.822180
0
LINE
8
Lager 1
10
-59.208930
20
-9.822180
11
-58.960769
21
-9.429277
0
LINE
8
Lager 1
10
-58.960769
20
-9.429277
11
-59.029399
21
-9.195933
0
LINE
8
Lager 1
10
-59.029399
20
-9.195933
11
-59.294381
21
-9.367363
0
LINE
8
Lager 1
10
-59.294381
20
-9.367363
11
-59.672855
21
-9.967147
0
LINE
8
Lager 1
10
-59.672855
20
-9.967147
11
-60.579367
21
-11.247791
0
LINE
8
Lager 1
10
-60.579367
20
-11.247791
11
-62.074295
21
-12.411907
0
LINE
8
Lager 1
10
-62.074295
20
-12.411907
11
-62.840405
21
-12.771116
0
LINE
8
Lager 1
10
-62.840405
20
-12.771116
11
-63.083962
21
-12.884290
0
LINE
8
Lager 1
10
-63.083962
20
-12.884290
11
-63.167882
21
-12.922349
0
LINE
8
Lager 1
10
-63.167882
20
-12.922349
11
-63.187947
21
-12.816619
0
LINE
8
Lager 1
10
-63.187947
20
-12.816619
11
-63.055668
21
-12.621044
0
LINE
8
Lager 1
10
-63.055668
20
-12.621044
11
-62.688151
21
-12.214325
0
LINE
8
Lager 1
10
-62.688151
20
-12.214325
11
-62.318581
21
-11.487554
0
LINE
8
Lager 1
10
-62.318581
20
-11.487554
11
-61.962505
21
-10.512913
0
LINE
8
Lager 1
10
-61.962505
20
-10.512913
11
-61.714605
21
-9.894038
0
LINE
8
Lager 1
10
-61.714605
20
-9.894038
11
-61.518052
21
-9.643084
0
LINE
8
Lager 1
10
-61.518052
20
-9.643084
11
-60.883168
21
-9.167557
0
LINE
8
Lager 1
10
-60.883168
20
-9.167557
11
-60.078882
21
-8.971625
0
LINE
8
Lager 1
10
-60.078882
20
-8.971625
11
-60.022442
21
-8.917080
0
LINE
8
Lager 1
10
-60.022442
20
-8.917080
11
-60.070072
21
-8.810070
0
LINE
8
Lager 1
10
-60.070072
20
-8.810070
11
-60.280583
21
-8.806678
0
LINE
8
Lager 1
10
-60.280583
20
-8.806678
11
-60.706494
21
-8.816287
0
LINE
8
Lager 1
10
-60.706494
20
-8.816287
11
-61.137990
21
-8.970750
0
LINE
8
Lager 1
10
-61.137990
20
-8.970750
11
-61.425883
21
-8.987084
0
LINE
8
Lager 1
10
-61.425883
20
-8.987084
11
-61.364200
21
-8.176776
0
LINE
8
Lager 1
10
-61.364200
20
-8.176776
11
-60.980626
21
-7.464344
0
LINE
8
Lager 1
10
-60.980626
20
-7.464344
11
-60.917184
21
-7.371297
0
LINE
8
Lager 1
10
-60.917184
20
-7.371297
11
-60.480388
21
-6.902539
0
LINE
8
Lager 1
10
-60.480388
20
-6.902539
11
-60.055401
21
-6.584332
0
LINE
8
Lager 1
10
-60.055401
20
-6.584332
11
-59.823512
21
-6.392112
0
LINE
8
Lager 1
10
-59.823512
20
-6.392112
11
-59.764009
21
-6.557059
0
LINE
8
Lager 1
10
-59.764009
20
-6.557059
11
-59.367562
21
-6.824237
0
LINE
8
Lager 1
10
-59.367562
20
-6.824237
11
-59.099278
21
-6.902330
0
LINE
8
Lager 1
10
-59.099278
20
-6.902330
11
-59.012046
21
-6.810676
0
LINE
8
Lager 1
10
-59.012046
20
-6.810676
11
-59.134699
21
-6.708149
0
LINE
8
Lager 1
10
-59.134699
20
-6.708149
11
-59.396580
21
-6.549493
0
LINE
8
Lager 1
10
-59.396580
20
-6.549493
11
-59.516077
21
-6.289144
0
LINE
8
Lager 1
10
-59.516077
20
-6.289144
11
-59.481949
21
-6.054630
0
LINE
8
Lager 1
10
-59.481949
20
-6.054630
11
-59.402522
21
-5.971343
0
LINE
8
Lager 1
10
-59.402522
20
-5.971343
11
-59.167951
21
-6.145052
0
LINE
8
Lager 1
10
-59.167951
20
-6.145052
11
-58.949902
21
-6.286898
0
LINE
8
Lager 1
10
-58.949902
20
-6.286898
11
-58.653273
21
-6.293666
0
LINE
8
Lager 1
10
-58.653273
20
-6.293666
11
-58.048465
21
-6.116905
0
LINE
8
Lager 1
10
-58.048465
20
-6.116905
11
-57.737677
21
-5.984143
0
LINE
8
Lager 1
10
-57.737677
20
-5.984143
11
-57.684297
21
-6.087299
0
LINE
8
Lager 1
10
-57.684297
20
-6.087299
11
-57.606125
21
-6.199889
0
LINE
8
Lager 1
10
-57.606125
20
-6.199889
11
-57.573749
21
-6.274706
0
LINE
8
Lager 1
10
-57.573749
20
-6.274706
11
-57.541371
21
-6.349669
0
LINE
8
Lager 1
10
-57.541371
20
-6.349669
11
-57.463897
21
-6.205204
0
LINE
8
Lager 1
10
-57.463897
20
-6.205204
11
-57.561644
21
-5.984479
0
LINE
8
Lager 1
10
-57.561644
20
-5.984479
11
-57.800242
21
-5.469364
0
LINE
8
Lager 1
10
-57.800242
20
-5.469364
11
-57.984268
21
-4.716177
0
LINE
8
Lager 1
10
-57.984268
20
-4.716177
11
-57.925948
21
-3.932198
0
LINE
8
Lager 1
10
-57.925948
20
-3.932198
11
-57.476472
21
-2.833704
0
LINE
8
Lager 1
10
-57.476472
20
-2.833704
11
-56.954820
21
-2.768626
0
LINE
8
Lager 1
10
-56.954820
20
-2.768626
11
-56.466222
21
-2.918303
0
LINE
8
Lager 1
10
-56.466222
20
-2.918303
11
-55.508205
21
-3.537899
0
LINE
8
Lager 1
10
-55.508205
20
-3.537899
11
-54.651072
21
-4.262683
0
LINE
8
Lager 1
10
-54.651072
20
-4.262683
11
-53.823999
21
-4.921161
0
LINE
8
Lager 1
10
-53.823999
20
-4.921161
11
-52.535190
21
-5.559076
0
LINE
8
Lager 1
10
-52.535190
20
-5.559076
11
-52.257799
21
-5.634663
0
LINE
8
Lager 1
10
-52.257799
20
-5.634663
11
-52.262027
21
-5.507156
0
LINE
8
Lager 1
10
-52.262027
20
-5.507156
11
-52.260752
21
-5.401199
0
LINE
8
Lager 1
10
-52.260752
20
-5.401199
11
-52.135290
21
-5.384210
0
LINE
8
Lager 1
10
-52.135290
20
-5.384210
11
-51.722993
21
-5.299330
0
LINE
8
Lager 1
10
-51.722993
20
-5.299330
11
-51.382004
21
-5.172426
0
LINE
8
Lager 1
10
-51.382004
20
-5.172426
11
-51.067578
21
-4.981394
0
LINE
8
Lager 1
10
-51.067578
20
-4.981394
11
-50.537878
21
-4.695835
0
LINE
8
Lager 1
10
-50.537878
20
-4.695835
11
-50.041430
21
-4.490635
0
LINE
8
Lager 1
10
-50.041430
20
-4.490635
11
-50.040407
21
-4.649749
0
LINE
8
Lager 1
10
-50.040407
20
-4.649749
11
-50.056595
21
-4.989270
0
LINE
8
Lager 1
10
-50.056595
20
-4.989270
11
-49.933649
21
-4.764673
0
LINE
8
Lager 1
10
-49.933649
20
-4.764673
11
-49.821350
21
-4.499823
0
LINE
8
Lager 1
10
-49.821350
20
-4.499823
11
-49.754846
21
-4.310811
0
LINE
8
Lager 1
10
-49.754846
20
-4.310811
11
-49.660778
21
-4.214847
0
LINE
8
Lager 1
10
-49.660778
20
-4.214847
11
-49.654214
21
-4.173428
0
LINE
8
Lager 1
10
-49.654214
20
-4.173428
11
-49.594856
21
-3.745964
0
LINE
8
Lager 1
10
-49.594856
20
-3.745964
11
-49.448430
21
-3.322584
0
LINE
8
Lager 1
10
-49.448430
20
-3.322584
11
-49.358446
21
-3.143781
0
LINE
8
Lager 1
10
-49.358446
20
-3.143781
11
-49.063990
21
-3.299103
0
LINE
8
Lager 1
10
-49.063990
20
-3.299103
11
-48.855143
21
-3.454425
0
LINE
8
Lager 1
10
-48.855143
20
-3.454425
11
-48.971379
21
-3.244704
0
LINE
8
Lager 1
10
-48.971379
20
-3.244704
11
-49.044592
21
-3.076839
0
LINE
8
Lager 1
10
-49.044592
20
-3.076839
11
-49.120867
21
-2.892640
0
LINE
8
Lager 1
10
-49.120867
20
-2.892640
11
-49.187851
21
-2.714139
0
LINE
8
Lager 1
10
-49.187851
20
-2.714139
11
-48.889853
21
-2.871347
0
LINE
8
Lager 1
10
-48.889853
20
-2.871347
11
-48.637627
21
-2.993582
0
LINE
8
Lager 1
10
-48.637627
20
-2.993582
11
-49.013235
21
-2.558807
0
LINE
8
Lager 1
10
-49.013235
20
-2.558807
11
-49.539932
21
-1.996016
0
LINE
8
Lager 1
10
-49.539932
20
-1.996016
11
-49.797429
21
-1.536747
0
LINE
8
Lager 1
10
-49.797429
20
-1.536747
11
-50.089551
21
-0.483767
0
LINE
8
Lager 1
10
-50.089551
20
-0.483767
11
-49.877913
21
0.423171
0
LINE
8
Lager 1
10
-49.877913
20
0.423171
11
-49.593451
21
0.721465
0
LINE
8
Lager 1
10
-49.593451
20
0.721465
11
-49.199767
21
0.901003
0
LINE
8
Lager 1
10
-49.199767
20
0.901003
11
-48.588979
21
0.964153
0
LINE
8
Lager 1
10
-48.588979
20
0.964153
11
-48.589010
21
0.964230
0
LINE
8
Lager 1
10
-53.785960
20
0.020921
11
-53.549258
21
-0.424336
0
LINE
8
Lager 1
10
-53.549258
20
-0.424336
11
-52.985431
21
-2.321166
0
LINE
8
Lager 1
10
-52.985431
20
-2.321166
11
-52.883633
21
-2.897535
0
LINE
8
Lager 1
10
-52.883633
20
-2.897535
11
-52.838065
21
-3.292698
0
LINE
8
Lager 1
10
-52.838065
20
-3.292698
11
-52.974055
21
-3.563451
0
LINE
8
Lager 1
10
-52.974055
20
-3.563451
11
-53.184205
21
-3.769398
0
LINE
8
Lager 1
10
-53.184205
20
-3.769398
11
-53.549403
21
-3.808174
0
LINE
8
Lager 1
10
-53.549403
20
-3.808174
11
-53.950032
21
-3.808771
0
LINE
8
Lager 1
10
-53.950032
20
-3.808771
11
-53.895487
21
-3.432060
0
LINE
8
Lager 1
10
-53.895487
20
-3.432060
11
-53.726751
21
-1.593774
0
LINE
8
Lager 1
10
-53.726751
20
-1.593774
11
-53.793981
21
-0.226150
0
LINE
8
Lager 1
10
-53.793981
20
-0.226150
11
-53.785959
21
0.020761
0
LINE
8
Lager 1
10
-53.785959
20
0.020761
11
-53.785960
21
0.020921
0
LINE
8
Lager 1
10
-59.850090
20
-0.873239
11
-59.654370
21
-1.420002
0
LINE
8
Lager 1
10
-59.654370
20
-1.420002
11
-59.400166
21
-2.265451
0
LINE
8
Lager 1
10
-59.400166
20
-2.265451
11
-59.260740
21
-2.602638
0
LINE
8
Lager 1
10
-59.260740
20
-2.602638
11
-58.296138
21
-4.215508
0
LINE
8
Lager 1
10
-58.296138
20
-4.215508
11
-58.171152
21
-4.589885
0
LINE
8
Lager 1
10
-58.171152
20
-4.589885
11
-57.953992
21
-5.467419
0
LINE
8
Lager 1
10
-57.953992
20
-5.467419
11
-57.966981
21
-5.823293
0
LINE
8
Lager 1
10
-57.966981
20
-5.823293
11
-58.271676
21
-6.040491
0
LINE
8
Lager 1
10
-58.271676
20
-6.040491
11
-58.994722
21
-6.061581
0
LINE
8
Lager 1
10
-58.994722
20
-6.061581
11
-59.419407
21
-5.284398
0
LINE
8
Lager 1
10
-59.419407
20
-5.284398
11
-59.866276
21
-3.755231
0
LINE
8
Lager 1
10
-59.866276
20
-3.755231
11
-60.025139
21
-1.956442
0
LINE
8
Lager 1
10
-60.025139
20
-1.956442
11
-59.978581
21
-1.188569
0
LINE
8
Lager 1
10
-59.978581
20
-1.188569
11
-59.850087
21
-0.873241
0
LINE
8
Lager 1
10
-59.850087
20
-0.873241
11
-59.850090
21
-0.873239
0
LINE
8
Lager 1
10
-42.158090
20
-2.025689
11
-42.157900
21
-2.025690
0
LINE
8
Lager 1
10
-42.157900
20
-2.025690
11
-41.392810
21
-2.103715
0
LINE
8
Lager 1
10
-41.392810
20
-2.103715
11
-41.113668
21
-2.220972
0
LINE
8
Lager 1
10
-41.113668
20
-2.220972
11
-40.999912
21
-2.243286
0
LINE
8
Lager 1
10
-40.999912
20
-2.243286
11
-40.531612
21
-2.328459
0
LINE
8
Lager 1
10
-40.531612
20
-2.328459
11
-40.137732
21
-2.647768
0
LINE
8
Lager 1
10
-40.137732
20
-2.647768
11
-40.150963
21
-3.077505
0
LINE
8
Lager 1
10
-40.150963
20
-3.077505
11
-40.693707
21
-3.984969
0
LINE
8
Lager 1
10
-40.693707
20
-3.984969
11
-41.407103
21
-4.608415
0
LINE
8
Lager 1
10
-41.407103
20
-4.608415
11
-41.407977
21
-4.518868
0
LINE
8
Lager 1
10
-41.407977
20
-4.518868
11
-41.316533
21
-4.285666
0
LINE
8
Lager 1
10
-41.316533
20
-4.285666
11
-41.161648
21
-3.896997
0
LINE
8
Lager 1
10
-41.161648
20
-3.896997
11
-41.076832
21
-3.618742
0
LINE
8
Lager 1
10
-41.076832
20
-3.618742
11
-41.224360
21
-3.661169
0
LINE
8
Lager 1
10
-41.224360
20
-3.661169
11
-41.567382
21
-4.457905
0
LINE
8
Lager 1
10
-41.567382
20
-4.457905
11
-41.607635
21
-4.557953
0
LINE
8
Lager 1
10
-41.607635
20
-4.557953
11
-41.651241
21
-4.698253
0
LINE
8
Lager 1
10
-41.651241
20
-4.698253
11
-42.158918
21
-5.722793
0
LINE
8
Lager 1
10
-42.158918
20
-5.722793
11
-42.192024
21
-5.789006
0
LINE
8
Lager 1
10
-42.192024
20
-5.789006
11
-42.415807
21
-6.110526
0
LINE
8
Lager 1
10
-42.415807
20
-6.110526
11
-42.939029
21
-6.467027
0
LINE
8
Lager 1
10
-42.939029
20
-6.467027
11
-44.452869
21
-6.699646
0
LINE
8
Lager 1
10
-44.452869
20
-6.699646
11
-45.405512
21
-6.434942
0
LINE
8
Lager 1
10
-45.405512
20
-6.434942
11
-45.592190
21
-6.445880
0
LINE
8
Lager 1
10
-45.592190
20
-6.445880
11
-45.590294
21
-6.518801
0
LINE
8
Lager 1
10
-45.590294
20
-6.518801
11
-45.180768
21
-6.669894
0
LINE
8
Lager 1
10
-45.180768
20
-6.669894
11
-44.883104
21
-6.816611
0
LINE
8
Lager 1
10
-44.883104
20
-6.816611
11
-45.256606
21
-6.818508
0
LINE
8
Lager 1
10
-45.256606
20
-6.818508
11
-45.523291
21
-6.836089
0
LINE
8
Lager 1
10
-45.523291
20
-6.836089
11
-45.502643
21
-6.895949
0
LINE
8
Lager 1
10
-45.502643
20
-6.895949
11
-45.111202
21
-6.983455
0
LINE
8
Lager 1
10
-45.111202
20
-6.983455
11
-44.858396
21
-7.053410
0
LINE
8
Lager 1
10
-44.858396
20
-7.053410
11
-44.979215
21
-7.171884
0
LINE
8
Lager 1
10
-44.979215
20
-7.171884
11
-45.710761
21
-7.610723
0
LINE
8
Lager 1
10
-45.710761
20
-7.610723
11
-45.710900
21
-7.610720
0
LINE
8
Lager 1
10
-45.710900
20
-7.610720
11
-46.473072
21
-8.119418
0
LINE
8
Lager 1
10
-46.473072
20
-8.119418
11
-46.675939
21
-8.168129
0
LINE
8
Lager 1
10
-46.675939
20
-8.168129
11
-46.816747
21
-7.037363
0
LINE
8
Lager 1
10
-46.816747
20
-7.037363
11
-46.779050
21
-6.060269
0
LINE
8
Lager 1
10
-46.779050
20
-6.060269
11
-46.748131
21
-5.854923
0
LINE
8
Lager 1
10
-46.748131
20
-5.854923
11
-46.641830
21
-5.400610
0
LINE
8
Lager 1
10
-46.641830
20
-5.400610
11
-46.268602
21
-4.903739
0
LINE
8
Lager 1
10
-46.268602
20
-4.903739
11
-46.173804
21
-4.723769
0
LINE
8
Lager 1
10
-46.173804
20
-4.723769
11
-46.060776
21
-4.599366
0
LINE
8
Lager 1
10
-46.060776
20
-4.599366
11
-45.947894
21
-4.485171
0
LINE
8
Lager 1
10
-45.947894
20
-4.485171
11
-44.960395
21
-3.394711
0
LINE
8
Lager 1
10
-44.960395
20
-3.394711
11
-44.199098
21
-2.851157
0
LINE
8
Lager 1
10
-44.199098
20
-2.851157
11
-44.139449
21
-2.776339
0
LINE
8
Lager 1
10
-44.139449
20
-2.776339
11
-43.504453
21
-2.399786
0
LINE
8
Lager 1
10
-43.504453
20
-2.399786
11
-42.624289
21
-2.112027
0
LINE
8
Lager 1
10
-42.624289
20
-2.112027
11
-42.345001
21
-2.054566
0
LINE
8
Lager 1
10
-42.345001
20
-2.054566
11
-42.158031
21
-2.025689
0
LINE
8
Lager 1
10
-42.158031
20
-2.025689
11
-42.158090
21
-2.025689
0
LINE
8
Lager 1
10
-51.589720
20
-2.690730
11
-51.589600
21
-2.690730
0
LINE
8
Lager 1
10
-51.589600
20
-2.690730
11
-51.299087
21
-2.772141
0
LINE
8
Lager 1
10
-51.299087
20
-2.772141
11
-51.155282
21
-3.001811
0
LINE
8
Lager 1
10
-51.155282
20
-3.001811
11
-51.031461
21
-3.674728
0
LINE
8
Lager 1
10
-51.031461
20
-3.674728
11
-50.955769
21
-4.648226
0
LINE
8
Lager 1
10
-50.955769
20
-4.648226
11
-51.068359
21
-4.416337
0
LINE
8
Lager 1
10
-51.068359
20
-4.416337
11
-51.348840
21
-3.908222
0
LINE
8
Lager 1
10
-51.348840
20
-3.908222
11
-51.765194
21
-3.539824
0
LINE
8
Lager 1
10
-51.765194
20
-3.539824
11
-51.779632
21
-3.398940
0
LINE
8
Lager 1
10
-51.779632
20
-3.398940
11
-51.621977
21
-3.397193
0
LINE
8
Lager 1
10
-51.621977
20
-3.397193
11
-51.518866
21
-3.387712
0
LINE
8
Lager 1
10
-51.518866
20
-3.387712
11
-51.551243
21
-3.202492
0
LINE
8
Lager 1
10
-51.551243
20
-3.202492
11
-51.534034
21
-2.950768
0
LINE
8
Lager 1
10
-51.534034
20
-2.950768
11
-51.506065
21
-2.852197
0
LINE
8
Lager 1
10
-51.506065
20
-2.852197
11
-51.695774
21
-3.013189
0
LINE
8
Lager 1
10
-51.695774
20
-3.013189
11
-51.968926
21
-3.396079
0
LINE
8
Lager 1
10
-51.968926
20
-3.396079
11
-52.119667
21
-3.878357
0
LINE
8
Lager 1
10
-52.119667
20
-3.878357
11
-52.135793
21
-4.387454
0
LINE
8
Lager 1
10
-52.135793
20
-4.387454
11
-52.005105
21
-4.850799
0
LINE
8
Lager 1
10
-52.005105
20
-4.850799
11
-51.905092
21
-5.095496
0
LINE
8
Lager 1
10
-51.905092
20
-5.095496
11
-51.988917
21
-5.171361
0
LINE
8
Lager 1
10
-51.988917
20
-5.171361
11
-52.301457
21
-5.292848
0
LINE
8
Lager 1
10
-52.301457
20
-5.292848
11
-52.526345
21
-5.395521
0
LINE
8
Lager 1
10
-52.526345
20
-5.395521
11
-52.935579
21
-5.205925
0
LINE
8
Lager 1
10
-52.935579
20
-5.205925
11
-54.044904
21
-4.464241
0
LINE
8
Lager 1
10
-54.044904
20
-4.464241
11
-54.364221
21
-4.174774
0
LINE
8
Lager 1
10
-54.364221
20
-4.174774
11
-54.382769
21
-4.054065
0
LINE
8
Lager 1
10
-54.382769
20
-4.054065
11
-53.424084
21
-4.024185
0
LINE
8
Lager 1
10
-53.424084
20
-4.024185
11
-53.313019
21
-4.110944
0
LINE
8
Lager 1
10
-53.313019
20
-4.110944
11
-53.314915
21
-4.216971
0
LINE
8
Lager 1
10
-53.314915
20
-4.216971
11
-52.662124
21
-3.528157
0
LINE
8
Lager 1
10
-52.662124
20
-3.528157
11
-51.903598
21
-2.769631
0
LINE
8
Lager 1
10
-51.903598
20
-2.769631
11
-51.589745
21
-2.690730
0
LINE
8
Lager 1
10
-51.589745
20
-2.690730
11
-51.589720
21
-2.690730
0
LINE
8
Lager 1
10
-41.623580
20
-3.019750
11
-42.867030
21
-3.189802
0
LINE
8
Lager 1
10
-42.867030
20
-3.189802
11
-43.551177
21
-3.559075
0
LINE
8
Lager 1
10
-43.551177
20
-3.559075
11
-43.421408
21
-3.609152
0
LINE
8
Lager 1
10
-43.421408
20
-3.609152
11
-42.978892
21
-3.430005
0
LINE
8
Lager 1
10
-42.978892
20
-3.430005
11
-42.073940
21
-3.241285
0
LINE
8
Lager 1
10
-42.073940
20
-3.241285
11
-41.062380
21
-3.375605
0
LINE
8
Lager 1
10
-41.062380
20
-3.375605
11
-40.898016
21
-3.432776
0
LINE
8
Lager 1
10
-40.898016
20
-3.432776
11
-40.879931
21
-3.585765
0
LINE
8
Lager 1
10
-40.879931
20
-3.585765
11
-40.824111
21
-3.793265
0
LINE
8
Lager 1
10
-40.824111
20
-3.793265
11
-40.675752
21
-3.639872
0
LINE
8
Lager 1
10
-40.675752
20
-3.639872
11
-40.772803
21
-3.322609
0
LINE
8
Lager 1
10
-40.772803
20
-3.322609
11
-41.307104
21
-3.057814
0
LINE
8
Lager 1
10
-41.307104
20
-3.057814
11
-41.623582
21
-3.019750
0
LINE
8
Lager 1
10
-41.623582
20
-3.019750
11
-41.623580
21
-3.019750
0
LINE
8
Lager 1
10
-51.948180
20
-3.928931
11
-51.543904
21
-4.398835
0
LINE
8
Lager 1
10
-51.543904
20
-4.398835
11
-51.563932
21
-4.530337
0
LINE
8
Lager 1
10
-51.563932
20
-4.530337
11
-51.829901
21
-4.411086
0
LINE
8
Lager 1
10
-51.829901
20
-4.411086
11
-51.988676
21
-4.130821
0
LINE
8
Lager 1
10
-51.988676
20
-4.130821
11
-51.948180
21
-3.928931
0
LINE
8
Lager 1
10
-51.948180
20
-3.928931
11
-51.948180
21
-3.928931
0
LINE
8
Lager 1
10
-56.498460
20
-4.195823
11
-56.674637
21
-4.229513
0
LINE
8
Lager 1
10
-56.674637
20
-4.229513
11
-56.727155
21
-4.286591
0
LINE
8
Lager 1
10
-56.727155
20
-4.286591
11
-56.530982
21
-4.341228
0
LINE
8
Lager 1
10
-56.530982
20
-4.341228
11
-56.212585
21
-4.448291
0
LINE
8
Lager 1
10
-56.212585
20
-4.448291
11
-56.279404
21
-4.628830
0
LINE
8
Lager 1
10
-56.279404
20
-4.628830
11
-56.534628
21
-5.076566
0
LINE
8
Lager 1
10
-56.534628
20
-5.076566
11
-56.477308
21
-6.237782
0
LINE
8
Lager 1
10
-56.477308
20
-6.237782
11
-56.052181
21
-7.010876
0
LINE
8
Lager 1
10
-56.052181
20
-7.010876
11
-55.761809
21
-7.295267
0
LINE
8
Lager 1
10
-55.761809
20
-7.295267
11
-56.029576
21
-7.536782
0
LINE
8
Lager 1
10
-56.029576
20
-7.536782
11
-56.348679
21
-7.777713
0
LINE
8
Lager 1
10
-56.348679
20
-7.777713
11
-56.526898
21
-8.037750
0
LINE
8
Lager 1
10
-56.526898
20
-8.037750
11
-56.598652
21
-8.296328
0
LINE
8
Lager 1
10
-56.598652
20
-8.296328
11
-56.130060
21
-7.888699
0
LINE
8
Lager 1
10
-56.130060
20
-7.888699
11
-55.202794
21
-7.155987
0
LINE
8
Lager 1
10
-55.202794
20
-7.155987
11
-53.643444
21
-6.409712
0
LINE
8
Lager 1
10
-53.643444
20
-6.409712
11
-52.536343
21
-6.381540
0
LINE
8
Lager 1
10
-52.536343
20
-6.381540
11
-51.846224
21
-6.771692
0
LINE
8
Lager 1
10
-51.846224
20
-6.771692
11
-51.621423
21
-7.211961
0
LINE
8
Lager 1
10
-51.621423
20
-7.211961
11
-51.759740
21
-7.737461
0
LINE
8
Lager 1
10
-51.759740
20
-7.737461
11
-51.866721
21
-7.986023
0
LINE
8
Lager 1
10
-51.866721
20
-7.986023
11
-51.749968
21
-7.985247
0
LINE
8
Lager 1
10
-51.749968
20
-7.985247
11
-51.855120
21
-8.266723
0
LINE
8
Lager 1
10
-51.855120
20
-8.266723
11
-52.957690
21
-9.423833
0
LINE
8
Lager 1
10
-52.957690
20
-9.423833
11
-53.833182
21
-10.193735
0
LINE
8
Lager 1
10
-53.833182
20
-10.193735
11
-53.676178
21
-10.196755
0
LINE
8
Lager 1
10
-53.676178
20
-10.196755
11
-53.328276
21
-9.942448
0
LINE
8
Lager 1
10
-53.328276
20
-9.942448
11
-53.050883
21
-9.752124
0
LINE
8
Lager 1
10
-53.050883
20
-9.752124
11
-53.003776
21
-10.446772
0
LINE
8
Lager 1
10
-53.003776
20
-10.446772
11
-52.906208
21
-11.193048
0
LINE
8
Lager 1
10
-52.906208
20
-11.193048
11
-52.720259
21
-11.678849
0
LINE
8
Lager 1
10
-52.720259
20
-11.678849
11
-52.521476
21
-11.884195
0
LINE
8
Lager 1
10
-52.521476
20
-11.884195
11
-52.465175
21
-11.632572
0
LINE
8
Lager 1
10
-52.465175
20
-11.632572
11
-52.576896
21
-11.317305
0
LINE
8
Lager 1
10
-52.576896
20
-11.317305
11
-52.747969
21
-10.621929
0
LINE
8
Lager 1
10
-52.747969
20
-10.621929
11
-52.796389
21
-10.061457
0
LINE
8
Lager 1
10
-52.796389
20
-10.061457
11
-52.632608
21
-9.449502
0
LINE
8
Lager 1
10
-52.632608
20
-9.449502
11
-52.249156
21
-9.016203
0
LINE
8
Lager 1
10
-52.249156
20
-9.016203
11
-51.843747
21
-8.639639
0
LINE
8
Lager 1
10
-51.843747
20
-8.639639
11
-51.613316
21
-8.290492
0
LINE
8
Lager 1
10
-51.613316
20
-8.290492
11
-51.414242
21
-7.666869
0
LINE
8
Lager 1
10
-51.414242
20
-7.666869
11
-51.387261
21
-7.050977
0
LINE
8
Lager 1
10
-51.387261
20
-7.050977
11
-51.414679
21
-6.845339
0
LINE
8
Lager 1
10
-51.414679
20
-6.845339
11
-51.648610
21
-6.664057
0
LINE
8
Lager 1
10
-51.648610
20
-6.664057
11
-52.177138
21
-6.314752
0
LINE
8
Lager 1
10
-52.177138
20
-6.314752
11
-52.795370
21
-6.134503
0
LINE
8
Lager 1
10
-52.795370
20
-6.134503
11
-54.054568
21
-5.817252
0
LINE
8
Lager 1
10
-54.054568
20
-5.817252
11
-55.214750
21
-4.990513
0
LINE
8
Lager 1
10
-55.214750
20
-4.990513
11
-55.989680
21
-4.387852
0
LINE
8
Lager 1
10
-55.989680
20
-4.387852
11
-56.498450
21
-4.195818
0
LINE
8
Lager 1
10
-56.498450
20
-4.195818
11
-56.498460
21
-4.195823
0
LINE
8
Lager 1
10
-55.986699
20
-4.655373
11
-55.874228
21
-4.761516
0
LINE
8
Lager 1
10
-55.874228
20
-4.761516
11
-55.870317
21
-5.155321
0
LINE
8
Lager 1
10
-55.870317
20
-5.155321
11
-55.853888
21
-5.557332
0
LINE
8
Lager 1
10
-55.853888
20
-5.557332
11
-55.657241
21
-5.869657
0
LINE
8
Lager 1
10
-55.657241
20
-5.869657
11
-54.952882
21
-6.339516
0
LINE
8
Lager 1
10
-54.952882
20
-6.339516
11
-54.562304
21
-6.352290
0
LINE
8
Lager 1
10
-54.562304
20
-6.352290
11
-54.166151
21
-6.212387
0
LINE
8
Lager 1
10
-54.166151
20
-6.212387
11
-53.799795
21
-6.126631
0
LINE
8
Lager 1
10
-53.799795
20
-6.126631
11
-54.157255
21
-6.375730
0
LINE
8
Lager 1
10
-54.157255
20
-6.375730
11
-55.096043
21
-6.867948
0
LINE
8
Lager 1
10
-55.096043
20
-6.867948
11
-55.629680
21
-7.185885
0
LINE
8
Lager 1
10
-55.629680
20
-7.185885
11
-56.209550
21
-6.434651
0
LINE
8
Lager 1
10
-56.209550
20
-6.434651
11
-56.387559
21
-5.338184
0
LINE
8
Lager 1
10
-56.387559
20
-5.338184
11
-56.293680
21
-4.898984
0
LINE
8
Lager 1
10
-56.293680
20
-4.898984
11
-56.087772
21
-4.675351
0
LINE
8
Lager 1
10
-56.087772
20
-4.675351
11
-55.986703
21
-4.655372
0
LINE
8
Lager 1
10
-55.986703
20
-4.655372
11
-55.986699
21
-4.655373
0
LINE
8
Lager 1
10
-55.740080
20
-5.033833
11
-55.314803
21
-5.355999
0
LINE
8
Lager 1
10
-55.314803
20
-5.355999
11
-55.065789
21
-5.662640
0
LINE
8
Lager 1
10
-55.065789
20
-5.662640
11
-55.402892
21
-5.603639
0
LINE
8
Lager 1
10
-55.402892
20
-5.603639
11
-55.726796
21
-5.432748
0
LINE
8
Lager 1
10
-55.726796
20
-5.432748
11
-55.810376
21
-5.196593
0
LINE
8
Lager 1
10
-55.810376
20
-5.196593
11
-55.740080
21
-5.033833
0
LINE
8
Lager 1
10
-55.740080
20
-5.033833
11
-55.740080
21
-5.033833
0
LINE
8
Lager 1
10
-47.015790
20
-5.461151
11
-46.966495
21
-6.675001
0
LINE
8
Lager 1
10
-46.966495
20
-6.675001
11
-46.844863
21
-8.364151
0
LINE
8
Lager 1
10
-46.844863
20
-8.364151
11
-46.754441
21
-8.873871
0
LINE
8
Lager 1
10
-46.754441
20
-8.873871
11
-46.972621
21
-8.658461
0
LINE
8
Lager 1
10
-46.972621
20
-8.658461
11
-47.525421
21
-7.779721
0
LINE
8
Lager 1
10
-47.525421
20
-7.779721
11
-47.903971
21
-6.835431
0
LINE
8
Lager 1
10
-47.903971
20
-6.835431
11
-48.137027
21
-6.087697
0
LINE
8
Lager 1
10
-48.137027
20
-6.087697
11
-47.970767
21
-5.976564
0
LINE
8
Lager 1
10
-47.970767
20
-5.976564
11
-47.015791
21
-5.461157
0
LINE
8
Lager 1
10
-47.015791
20
-5.461157
11
-47.015790
21
-5.461151
0
LINE
8
Lager 1
10
-48.271060
20
-6.213260
11
-48.133676
21
-6.515737
0
LINE
8
Lager 1
10
-48.133676
20
-6.515737
11
-48.126474
21
-6.766740
0
LINE
8
Lager 1
10
-48.126474
20
-6.766740
11
-48.292207
21
-7.005767
0
LINE
8
Lager 1
10
-48.292207
20
-7.005767
11
-48.568028
21
-7.229126
0
LINE
8
Lager 1
10
-48.568028
20
-7.229126
11
-48.689919
21
-7.071979
0
LINE
8
Lager 1
10
-48.689919
20
-7.071979
11
-48.739600
21
-6.593167
0
LINE
8
Lager 1
10
-48.739600
20
-6.593167
11
-48.638437
21
-6.419043
0
LINE
8
Lager 1
10
-48.638437
20
-6.419043
11
-48.412965
21
-6.296827
0
LINE
8
Lager 1
10
-48.412965
20
-6.296827
11
-48.271060
21
-6.213260
0
LINE
8
Lager 1
10
-48.271060
20
-6.213260
11
-48.271060
21
-6.213260
0
LINE
8
Lager 1
10
-42.676980
20
-6.712770
11
-42.611587
21
-6.882680
0
LINE
8
Lager 1
10
-42.611587
20
-6.882680
11
-42.764485
21
-7.394000
0
LINE
8
Lager 1
10
-42.764485
20
-7.394000
11
-42.973186
21
-7.835756
0
LINE
8
Lager 1
10
-42.973186
20
-7.835756
11
-43.341146
21
-6.950785
0
LINE
8
Lager 1
10
-43.341146
20
-6.950785
11
-43.091464
21
-6.854383
0
LINE
8
Lager 1
10
-43.091464
20
-6.854383
11
-42.735755
21
-6.726042
0
LINE
8
Lager 1
10
-42.735755
20
-6.726042
11
-42.676981
21
-6.712771
0
LINE
8
Lager 1
10
-42.676981
20
-6.712771
11
-42.676980
21
-6.712770
0
LINE
8
Lager 1
10
-48.957680
20
-6.715249
11
-48.733957
21
-7.459483
0
LINE
8
Lager 1
10
-48.733957
20
-7.459483
11
-48.831089
21
-7.625743
0
LINE
8
Lager 1
10
-48.831089
20
-7.625743
11
-49.100313
21
-7.964827
0
LINE
8
Lager 1
10
-49.100313
20
-7.964827
11
-49.344016
21
-8.205613
0
LINE
8
Lager 1
10
-49.344016
20
-8.205613
11
-49.573184
21
-7.681589
0
LINE
8
Lager 1
10
-49.573184
20
-7.681589
11
-49.581884
21
-7.157293
0
LINE
8
Lager 1
10
-49.581884
20
-7.157293
11
-49.261177
21
-6.935759
0
LINE
8
Lager 1
10
-49.261177
20
-6.935759
11
-48.957679
21
-6.715245
0
LINE
8
Lager 1
10
-48.957679
20
-6.715245
11
-48.957680
21
-6.715249
0
LINE
8
Lager 1
10
-49.861465
20
-7.471733
11
-49.597491
21
-8.088792
0
LINE
8
Lager 1
10
-49.597491
20
-8.088792
11
-49.555342
21
-8.562050
0
LINE
8
Lager 1
10
-49.555342
20
-8.562050
11
-49.639494
21
-8.662098
0
LINE
8
Lager 1
10
-49.639494
20
-8.662098
11
-49.960493
21
-9.133606
0
LINE
8
Lager 1
10
-49.960493
20
-9.133606
11
-50.368268
21
-9.569383
0
LINE
8
Lager 1
10
-50.368268
20
-9.569383
11
-50.568082
21
-9.310464
0
LINE
8
Lager 1
10
-50.568082
20
-9.310464
11
-50.729666
21
-8.638471
0
LINE
8
Lager 1
10
-50.729666
20
-8.638471
11
-50.778669
21
-8.245426
0
LINE
8
Lager 1
10
-50.778669
20
-8.245426
11
-50.297535
21
-7.812129
0
LINE
8
Lager 1
10
-50.297535
20
-7.812129
11
-49.861466
21
-7.471732
0
LINE
8
Lager 1
10
-49.861466
20
-7.471732
11
-49.861465
21
-7.471733
0
LINE
8
Lager 1
10
-50.997575
20
-8.583493
11
-50.562090
21
-9.730543
0
LINE
8
Lager 1
10
-50.562090
20
-9.730543
11
-50.833357
21
-9.971038
0
LINE
8
Lager 1
10
-50.833357
20
-9.971038
11
-51.259074
21
-10.122606
0
LINE
8
Lager 1
10
-51.259074
20
-10.122606
11
-51.542151
21
-10.080274
0
LINE
8
Lager 1
10
-51.542151
20
-10.080274
11
-51.569698
21
-9.673977
0
LINE
8
Lager 1
10
-51.569698
20
-9.673977
11
-51.325429
21
-9.051214
0
LINE
8
Lager 1
10
-51.325429
20
-9.051214
11
-50.997576
21
-8.583497
0
LINE
8
Lager 1
10
-50.997576
20
-8.583497
11
-50.997575
21
-8.583493
0
LINE
8
Lager 1
10
-59.112825
20
-8.761275
11
-59.564645
21
-8.961371
0
LINE
8
Lager 1
10
-59.564645
20
-8.961371
11
-59.622791
21
-9.140218
0
LINE
8
Lager 1
10
-59.622791
20
-9.140218
11
-59.471597
21
-9.059086
0
LINE
8
Lager 1
10
-59.471597
20
-9.059086
11
-59.129788
21
-8.954650
0
LINE
8
Lager 1
10
-59.129788
20
-8.954650
11
-58.862559
21
-9.110422
0
LINE
8
Lager 1
10
-58.862559
20
-9.110422
11
-58.782032
21
-9.247363
0
LINE
8
Lager 1
10
-58.782032
20
-9.247363
11
-58.766887
21
-9.084317
0
LINE
8
Lager 1
10
-58.766887
20
-9.084317
11
-58.912000
21
-8.822530
0
LINE
8
Lager 1
10
-58.912000
20
-8.822530
11
-59.112825
21
-8.761275
0
LINE
8
Lager 1
10
-59.112825
20
-8.761275
11
-59.112825
21
-8.761275
0
LINE
8
Lager 1
10
-54.041885
20
-10.716295
11
-54.068282
21
-10.722709
0
LINE
8
Lager 1
10
-54.068282
20
-10.722709
11
-54.234667
21
-11.102944
0
LINE
8
Lager 1
10
-54.234667
20
-11.102944
11
-54.217917
21
-11.696061
0
LINE
8
Lager 1
10
-54.217917
20
-11.696061
11
-54.028030
21
-11.977537
0
LINE
8
Lager 1
10
-54.028030
20
-11.977537
11
-53.988944
21
-11.840445
0
LINE
8
Lager 1
10
-53.988944
20
-11.840445
11
-54.018405
21
-10.903845
0
LINE
8
Lager 1
10
-54.018405
20
-10.903845
11
-54.041885
21
-10.716292
0
LINE
8
Lager 1
10
-54.041885
20
-10.716292
11
-54.041885
21
-10.716295
0
LINE
8
Lager 1
10
-52.381615
20
-13.782485
11
-51.812161
21
-13.900081
0
LINE
8
Lager 1
10
-51.812161
20
-13.900081
11
-51.821872
21
-14.415879
0
LINE
8
Lager 1
10
-51.821872
20
-14.415879
11
-51.928774
21
-15.074211
0
LINE
8
Lager 1
10
-51.928774
20
-15.074211
11
-51.961447
21
-15.304884
0
LINE
8
Lager 1
10
-51.961447
20
-15.304884
11
-52.104368
21
-15.352770
0
LINE
8
Lager 1
10
-52.104368
20
-15.352770
11
-53.837418
21
-15.823112
0
LINE
8
Lager 1
10
-53.837418
20
-15.823112
11
-54.731870
21
-16.424690
0
LINE
8
Lager 1
10
-54.731870
20
-16.424690
11
-55.459038
21
-17.187762
0
LINE
8
Lager 1
10
-55.459038
20
-17.187762
11
-55.723596
21
-17.564910
0
LINE
8
Lager 1
10
-55.723596
20
-17.564910
11
-55.979841
21
-16.776049
0
LINE
8
Lager 1
10
-55.979841
20
-16.776049
11
-55.939006
21
-16.156219
0
LINE
8
Lager 1
10
-55.939006
20
-16.156219
11
-55.187975
21
-15.220283
0
LINE
8
Lager 1
10
-55.187975
20
-15.220283
11
-54.314466
21
-14.469119
0
LINE
8
Lager 1
10
-54.314466
20
-14.469119
11
-53.939359
21
-14.245105
0
LINE
8
Lager 1
10
-53.939359
20
-14.245105
11
-53.221737
21
-13.925156
0
LINE
8
Lager 1
10
-53.221737
20
-13.925156
11
-52.381619
21
-13.782492
0
LINE
8
Lager 1
10
-52.381619
20
-13.782492
11
-52.381615
21
-13.782485
0
LINE
8
Lager 1
10
-58.071365
20
-18.538695
11
-58.738302
21
-19.165525
0
LINE
8
Lager 1
10
-58.738302
20
-19.165525
11
-58.738500
21
-19.165500
0
LINE
8
Lager 1
10
-58.738500
20
-19.165500
11
-58.853278
21
-19.276777
0
LINE
8
Lager 1
10
-58.853278
20
-19.276777
11
-58.654900
21
-19.276800
0
LINE
8
Lager 1
10
-58.654900
20
-19.276800
11
-58.440074
21
-19.111853
0
LINE
8
Lager 1
10
-58.440074
20
-19.111853
11
-58.458887
21
-19.261050
0
LINE
8
Lager 1
10
-58.458887
20
-19.261050
11
-58.468659
21
-19.276800
0
LINE
8
Lager 1
10
-58.468659
20
-19.276800
11
-58.028900
21
-19.276800
0
LINE
8
Lager 1
10
-58.028900
20
-19.276800
11
-58.012711
21
-18.867713
0
LINE
8
Lager 1
10
-58.012711
20
-18.867713
11
-58.049172
21
-18.542047
0
LINE
8
Lager 1
10
-58.049172
20
-18.542047
11
-58.071340
21
-18.538694
0
LINE
8
Lager 1
10
-58.071340
20
-18.538694
11
-58.071365
21
-18.538695
 0 
ENDSEC
 0 
EOF