<?xml version="1.0" encoding="UTF-8" standalone="no"?>
<svg
   viewBox="0 0 58.81 47.700002"
   width="58.810001"
   height="47.700001"
   version="1.1"
   id="svg22"
   sodipodi:docname="inx_3f7816f519c3"
   xmlns:inkscape="http://www.inkscape.org/namespaces/inkscape"
   xmlns:sodipodi="http://sodipodi.sourceforge.net/DTD/sodipodi-0.dtd"
   xmlns="http://www.w3.org/2000/svg"
   xmlns:svg="http://www.w3.org/2000/svg">
  <sodipodi:namedview
     id="namedview24"
     pagecolor="#ffffff"
     bordercolor="#666666"
     borderopacity="1.0"
     inkscape:showpageshadow="2"
     inkscape:pageopacity="0.0"
     inkscape:pagecheckerboard="0"
     inkscape:deskcolor="#d1d1d1"
     showgrid="false" />
  <desc
     id="desc2">inx_3f78461e1327 - scale = 1.000000, origin = (0.000000, 0.000000), method = manual</desc>
  <defs
     id="defs16">
    <marker
       id="DistanceX"
       orient="auto"
       refX="0"
       refY="0"
       style="overflow:visible">
      <path
         d="M 3,-3 -3,3 M 0,-5 V 5"
         style="stroke:#000000;stroke-width:0.5"
         id="path4" />
    </marker>
    <pattern
       id="Hatch"
       patternUnits="userSpaceOnUse"
       width="8"
       height="8"
       x="0"
       y="0">
      <path
         d="M8 4 l-4,4"
         stroke="#000000"
         stroke-width="0.25"
         linecap="square"
         id="path7" />
      <path
         d="M6 2 l-4,4"
         stroke="#000000"
         stroke-width="0.25"
         linecap="square"
         id="path9" />
      <path
         d="M4 0 l-4,4"
         stroke="#000000"
         stroke-width="0.25"
         linecap="square"
         id="path11" />
    </pattern>
    <symbol
       id="*Model_Space" />
    <symbol
       id="*Paper_Space" />
  </defs>
  <g
     inkscape:groupmode="layer"
     inkscape:label="0"
     id="g20"
     transform="translate(-306393.97,1715786.1)">
    <path
       d="m 306428.97,-1715775.9 0.69,-0.6 -1.05,-1.5 v 0 l -6.59,-8.1 -4.19,3.8 -1.37,1.1 v 0.1 l -0.38,0.3 -2.88,3.2 -1.11,0.9 -0.88,1.1 -0.71,0.2 -0.16,-0.5 -0.52,-0.2 -0.1,0.1 0.47,0.2 0.26,0.8 0.57,0.4 -0.1,0.4 0.15,0.2 0.5,0.1 1.06,-1.2 0.39,0.3 -0.88,1 0.46,0.5 0.94,-1 0.24,0.2 -1.98,2.2 -0.26,-0.3 0.98,-1 -0.7,-0.6 -0.15,0.2 0.27,0.3 -0.24,0.3 -0.7,-0.2 -0.42,0.1 -0.1,-0.3 0.44,-0.2 v -0.2 l -0.16,-0.1 -0.43,0.1 -1.03,-1.2 -0.43,-1 0.33,1.1 0.62,0.7 -0.28,0.6 -3.07,4.1 -3.4,4 -4.95,5.3 -1.89,2.2 -2.26,2 v 0 l 0.89,2.1 -0.25,0.3 1.33,2.3 v 0 l 1.22,2.7 0.86,1.8 -0.75,0.1 0.68,1.3 1.83,-1.3 2.36,-0.3 1.78,-1.9 1.6,3.1 1.72,2.8 1.8,-1.3 0.33,0.1 0.73,-0.5 1.97,-1.5 1.58,-1.2 0.1,0.2 0.74,1.7 0.52,-0.4 0.97,2.2 0.27,-0.1 0.17,0.4 0.47,-0.3 0.16,0.4 h -0.22 l 0.15,0.2 -0.13,0.1 0.79,0.8 -0.39,0.3 0.1,0.1 1.88,1.5 -1.2,0.7 1.48,1.2 1.46,-1.3 0.4,0.6 1.31,-0.6 -0.84,-1.7 v 0 l -0.83,-1.6 -0.76,-1.5 v 0 l 0.19,-0.2 -1.73,-4.5 -0.18,-0.5 0.76,-0.4 -0.11,-0.2 0.87,-0.2 0.21,-0.2 -0.1,-0.2 0.39,-0.2 -0.1,-0.2 1.27,-0.6 0.31,0.2 1.41,-0.8 0.1,-0.1 0.8,-0.6 0.87,-0.3 1.43,-0.9 -0.13,-0.6 0.72,-0.5 0.36,0.1 0.56,-0.4 v -0.2 l 0.26,0.2 0.44,-0.3 1.2,-0.9 0.1,-0.1 1.28,-0.9 0.98,1.1 0.76,1.1 -0.59,1.1 2.04,2.1 -0.1,0.4 -0.84,0.5 -0.72,0.9 0.11,1 0.89,1.3 0.83,3.7 0.27,0.1 0.75,1 v 0.5 l 0.28,-0.2 0.23,0.3 0.13,-0.1 0.57,-0.4 0.25,-0.1 2.65,-1.9 1.58,2.5 3.72,-2.6 -1.55,-2.3 h -0.28 l -1.46,0.9 -0.34,0.1 -1.84,-2.1 1.43,-1.5 2.04,-2.2 h 0.1 l 0.48,-0.5 0.45,0.5 0.39,-0.9 0.87,-0.8 1.05,1.2 0.4,-0.5 0.34,-0.4 5.36,0.8 -1.7,-2.5 1.82,0.1 -0.49,-2 0.11,-0.2 v -0.4 l -0.88,-1.2 -1.36,-2.5 -1.51,-1.9 -0.52,-0.5 -1.78,1.3 -0.64,-0.5 -0.7,0.5 -0.86,0.7 -1.04,-1.4 v 0 l -1.14,0.6 -2.25,2.2 -1.95,1.7 v 0.1 l -2.04,1.5 1.22,1.3 -0.32,0.1 0.1,0.4 -0.65,0.4 -0.86,-1.1 -0.17,0.1 -0.27,-0.3 -1.12,1.2 -0.9,-1.3 -0.58,-0.7 3.49,-2.8 -0.15,-0.1 -5.06,-2.9 0.95,-0.7 v 0 l 1.68,-1 -0.1,-0.2 1.94,-1.3 0.18,-0.1 0.94,-0.7 0.55,-0.4 2.33,-1.7 h 0.1 l 1.32,-1 0.1,-0.1 -0.5,-0.6 0.33,-0.4 -0.68,-0.6 -1.44,-2 -0.28,-0.4 -1.13,-1.6 -0.1,-0.1 -3.86,3.2 -0.38,0.2 -0.24,-0.3 -0.73,0.3 -0.33,-0.5 -2.57,1.2 -1.04,-1.5 2.34,-1.5 z"
       style="fill:#CCCCCC;stroke-width:0.001"
       id="path18" />
  </g>
</svg>
