<!DOCTYPE svg PUBLIC "-//W3C//DTD SVG 20010904//EN" "http://www.w3.org/TR/2001/REC-SVG-20010904/DTD/svg10.dtd">
<svg version="1.0" xmlns="http://www.w3.org/2000/svg" width="470px" height="352px" viewBox="0 0 4700 3520" preserveAspectRatio="xMidYMid meet">
<g id="layer101" fill="#e34234" stroke="none">
 <path d="M2290 3313 c-99 -7 -108 -11 -128 -56 -10 -23 -26 -48 -35 -56 -24 -19 -22 -68 3 -76 24 -8 27 -43 4 -52 -8 -3 -25 4 -38 16 -12 11 -30 21 -39 21 -14 0 -16 4 -8 18 13 25 -4 42 -41 42 -21 0 -32 7 -40 25 -7 17 -15 22 -22 16 -6 -5 -57 -14 -112 -19 -93 -8 -107 -12 -195 -59 -85 -46 -94 -53 -94 -79 0 -28 -2 -29 -46 -29 -45 0 -48 -2 -80 -50 -28 -41 -40 -51 -67 -53 -24 -2 -35 -10 -42 -28 -5 -13 -17 -24 -27 -24 -22 0 -72 -59 -106 -125 -14 -28 -37 -60 -50 -72 -13 -12 -35 -43 -49 -70 -14 -26 -34 -62 -44 -80 -10 -17 -15 -35 -11 -40 5 -4 11 -2 15 4 7 11 92 23 92 12 0 -3 -18 -19 -41 -35 -38 -26 -42 -27 -54 -11 -11 15 -14 15 -33 -6 -12 -13 -22 -29 -22 -35 0 -7 -3 -12 -8 -12 -14 0 -56 -105 -58 -146 -1 -22 -11 -67 -23 -98 -22 -59 -42 -175 -44 -258 -2 -37 3 -52 22 -72 15 -16 27 -44 30 -68 5 -34 12 -46 34 -56 31 -15 33 -24 11 -46 -18 -19 -24 -19 -59 -6 -24 9 -26 14 -23 62 2 29 -1 54 -5 56 -5 1 -9 -49 -10 -111 -2 -97 1 -117 18 -142 10 -17 18 -40 16 -53 -1 -13 5 -35 15 -50 10 -15 18 -36 19 -46 0 -11 6 -21 13 -23 16 -6 17 118 1 134 -8 8 -7 13 2 19 15 9 67 -50 75 -86 3 -14 10 -37 16 -51 11 -31 -13 -89 -37 -89 -8 0 -19 -10 -26 -21 -9 -18 -7 -25 9 -41 17 -17 22 -18 41 -6 18 11 23 11 31 -2 14 -21 12 -58 -2 -62 -24 -8 20 -57 60 -68 31 -8 43 -18 61 -56 l23 -45 -21 -23 c-13 -14 -21 -35 -21 -57 0 -59 63 -169 96 -169 7 0 18 -8 24 -18 8 -12 13 -13 16 -4 7 15 44 16 44 1 0 -27 35 -81 61 -95 17 -8 29 -23 29 -34 0 -31 172 -137 375 -231 62 -29 80 -33 158 -33 69 -1 91 -5 100 -17 19 -25 77 -47 142 -53 33 -3 78 -9 99 -12 30 -5 41 -3 48 10 12 22 35 20 43 -4 4 -14 15 -20 35 -20 37 0 70 41 70 86 0 53 27 43 56 -21 25 -54 37 -65 49 -45 3 6 35 10 71 10 60 0 65 2 74 25 5 14 14 25 20 25 5 0 10 11 10 25 0 18 10 31 33 45 41 26 72 25 98 -1 19 -19 19 -22 5 -44 -9 -13 -12 -26 -7 -30 16 -9 36 5 50 35 19 45 39 60 77 60 24 0 34 -4 34 -16 0 -11 6 -14 23 -8 33 10 75 32 82 44 3 5 15 10 25 10 26 0 53 39 38 57 -18 22 10 45 51 41 33 -3 35 -1 42 31 7 36 19 48 59 57 14 4 39 19 55 34 17 15 40 33 52 39 11 6 31 31 43 56 12 25 28 48 35 53 7 4 21 27 32 52 11 25 39 69 61 99 38 50 40 56 26 75 -18 27 -19 86 0 86 7 0 26 16 41 36 23 30 32 35 55 30 25 -4 30 -1 39 26 6 17 11 46 11 65 0 18 11 51 25 73 29 45 31 65 10 74 -22 8 -18 37 6 43 17 5 20 11 16 33 -4 19 0 31 13 43 28 24 34 62 20 126 -11 53 -15 101 -11 146 2 17 -4 69 -26 217 -6 46 -25 65 -43 43 -15 -19 -50 -20 -50 -2 0 8 12 24 26 38 14 13 30 31 35 40 11 20 -7 108 -50 247 -33 105 -53 131 -76 99 -7 -10 -19 -17 -28 -17 -19 0 -57 72 -57 108 0 16 -5 33 -11 39 -19 19 0 35 32 28 16 -4 29 -4 29 0 0 3 -16 30 -35 60 -24 38 -41 55 -56 55 -22 0 -54 33 -80 84 -8 17 -21 30 -28 28 -7 -1 -11 3 -8 10 5 17 -32 71 -68 100 -23 18 -28 19 -22 5 3 -9 4 -23 1 -31 -4 -12 -9 -11 -25 5 -18 18 -18 21 -3 36 15 15 14 17 -8 29 -12 7 -36 13 -51 14 -22 0 -31 7 -42 34 -8 19 -27 43 -42 54 -29 20 -168 92 -178 92 -4 0 1 -10 9 -22 21 -30 20 -39 -7 -68 -13 -14 -21 -32 -19 -40 4 -12 1 -12 -19 1 -15 10 -25 27 -26 45 -1 21 0 22 4 7 2 -13 7 -23 10 -23 8 0 42 44 43 56 0 7 -11 19 -25 28 -14 9 -25 23 -25 31 0 19 -16 19 -24 0 -3 -9 -19 -15 -41 -15 -20 0 -47 -7 -60 -16 -29 -19 -43 -12 -62 33 -14 35 -15 35 -62 29 -52 -7 -75 6 -69 41 3 15 -5 18 -52 19 -30 1 -92 5 -137 9 -74 7 -83 6 -83 -9 0 -9 -4 -16 -10 -16 -5 0 -7 7 -4 15 5 11 0 15 -17 13 -13 -1 -44 -3 -69 -5z m200 -56 c0 -5 -12 -6 -27 -3 -23 5 -31 1 -48 -24 -20 -30 -35 -39 -35 -20 0 6 -10 5 -25 -2 -14 -6 -25 -16 -25 -22 0 -20 -18 9 -25 41 -3 18 -2 34 4 38 7 4 11 -5 11 -24 0 -17 4 -31 9 -31 5 0 28 16 51 35 32 26 48 33 66 29 20 -5 23 -3 18 12 -6 17 -5 17 9 -1 9 -11 17 -24 17 -28z m-120 3 c0 -5 -8 -10 -17 -10 -15 0 -16 2 -3 10 19 12 20 12 20 0z m288 -208 c26 4 51 -2 82 -17 61 -31 128 -50 165 -47 61 6 81 -41 56 -130 -10 -36 -22 -53 -47 -68 -18 -12 -36 -30 -39 -40 -11 -36 -101 -15 -111 26 -9 35 -32 51 -40 28 -12 -40 -23 -49 -64 -55 -41 -5 -58 0 -125 38 -25 15 -83 39 -111 47 -13 4 -27 0 -38 -12 -14 -16 -15 -24 -5 -48 7 -16 13 -56 13 -89 1 -53 4 -61 28 -74 24 -14 28 -14 47 3 12 11 21 31 21 48 0 16 4 37 9 46 11 20 67 28 87 12 9 -8 18 -8 33 -1 17 9 22 8 31 -9 15 -28 43 -37 133 -45 69 -6 81 -4 137 21 61 27 80 46 80 82 0 32 26 45 87 43 78 -2 152 -28 165 -57 14 -29 24 -30 31 -4 7 26 43 26 57 -1 9 -15 8 -24 0 -34 -16 -20 17 -76 73 -126 23 -20 48 -54 56 -75 7 -22 26 -60 42 -85 16 -25 29 -51 29 -58 0 -7 11 -26 24 -42 13 -15 27 -48 31 -71 4 -24 16 -53 26 -66 12 -16 16 -33 12 -53 -3 -18 0 -38 11 -54 9 -13 16 -36 16 -50 0 -15 7 -33 15 -42 15 -14 17 -40 15 -133 -2 -59 -2 -82 4 -155 4 -60 2 -73 -15 -91 -16 -17 -20 -33 -18 -75 1 -30 -3 -67 -9 -82 -7 -16 -12 -38 -12 -51 0 -12 -11 -37 -25 -56 -14 -19 -25 -44 -25 -57 0 -12 -9 -39 -21 -60 -11 -20 -29 -57 -39 -82 l-17 -45 27 -56 c28 -55 35 -120 14 -127 -6 -2 -22 5 -34 15 -24 19 -24 20 -6 47 20 30 11 49 -20 43 -13 -2 -21 -14 -24 -38 -4 -28 -10 -35 -27 -35 -29 -1 -67 -35 -53 -49 17 -17 12 -39 -9 -33 -19 5 -23 1 -98 -91 -32 -38 -45 -64 -50 -98 -8 -63 -33 -78 -119 -71 -56 4 -69 2 -85 -14 -25 -25 -114 -69 -140 -69 -12 0 -41 -16 -64 -35 -36 -29 -51 -35 -91 -35 -27 -1 -62 -1 -79 -2 -16 -1 -63 -1 -102 0 -177 5 -220 4 -251 -3 -24 -5 -37 -3 -50 8 -9 9 -38 21 -64 27 -40 10 -52 10 -70 -2 -57 -37 -166 -27 -186 17 -14 29 -92 73 -92 51 0 -21 -66 -49 -87 -37 -10 5 -31 41 -48 79 -20 47 -39 75 -57 85 -31 18 -35 42 -14 72 13 20 22 53 33 126 5 39 -22 163 -62 284 -66 196 -67 201 -45 263 11 31 20 66 20 78 0 24 63 159 79 169 6 3 11 13 11 21 0 23 70 124 86 124 16 0 17 -5 8 -49 -4 -17 -12 -31 -19 -31 -6 0 -29 -28 -49 -62 -34 -58 -36 -64 -20 -75 13 -10 15 -18 8 -35 -12 -31 -12 -142 1 -147 10 -4 24 51 26 105 1 37 49 137 68 142 10 4 12 0 7 -14 -13 -32 -28 -117 -30 -164 -2 -78 47 -193 97 -227 62 -43 72 -27 32 55 -14 29 -25 56 -25 60 0 5 -10 18 -23 30 -21 20 -23 32 -26 131 -3 126 14 177 76 243 21 21 32 41 28 48 -5 8 -10 9 -18 1 -20 -20 -30 -12 -24 19 4 16 2 32 -3 35 -17 11 -11 35 9 35 10 0 37 -6 59 -14 34 -12 43 -12 59 -1 17 13 15 15 -22 30 -57 24 -67 45 -41 80 14 19 15 19 40 -8 17 -18 35 -27 56 -27 16 0 30 -4 30 -10 0 -5 11 -10 25 -10 29 0 32 -16 8 -42 -21 -24 -6 -41 33 -36 25 2 29 8 32 36 4 38 34 45 54 12 14 -22 38 -26 55 -9 9 9 8 19 -3 41 -14 27 -19 29 -52 25 -20 -3 -47 -8 -59 -12 -32 -10 -29 8 7 42 19 18 30 38 30 55 0 33 19 36 45 8 11 -12 31 -20 49 -20 17 0 45 -4 62 -9 36 -10 50 -4 56 24 3 16 10 19 36 17 l33 -3 -25 47 c-14 26 -23 51 -20 56 10 16 31 7 53 -23 19 -26 28 -30 51 -25 35 6 53 -13 45 -47 -4 -15 -1 -34 9 -49 11 -17 14 -47 13 -120 -2 -104 -12 -121 -42 -74 -9 14 -30 29 -47 35 -29 10 -30 10 -24 -15 10 -38 -1 -45 -37 -25 -23 13 -31 24 -29 39 3 19 1 20 -30 10 -58 -18 -112 -49 -131 -74 -20 -26 -37 -105 -37 -170 0 -35 5 -46 26 -61 14 -10 40 -31 57 -46 18 -16 41 -32 53 -37 21 -8 74 -2 74 9 1 3 10 17 20 30 l20 23 35 -26 c41 -31 44 -51 13 -83 -23 -25 -48 -29 -65 -12 -8 8 -17 8 -32 0 -21 -12 -24 -20 -22 -56 1 -15 -9 -24 -47 -38 -28 -9 -59 -17 -71 -17 -12 0 -39 -11 -60 -24 -21 -14 -54 -29 -72 -34 -19 -4 -35 -16 -37 -25 -2 -12 1 -15 12 -11 29 11 17 -21 -14 -39 -32 -19 -42 -42 -12 -29 87 39 112 53 112 66 0 8 5 18 12 22 15 10 90 6 101 -5 5 -5 -34 -29 -90 -56 -54 -26 -107 -55 -118 -64 -11 -10 -39 -23 -62 -30 -43 -12 -66 -32 -45 -39 13 -4 17 -32 4 -32 -4 0 -13 5 -19 11 -18 18 -48 1 -72 -41 -33 -58 -8 -61 79 -9 62 36 71 45 68 68 -3 24 1 26 62 39 82 18 161 48 206 78 43 29 46 30 42 2 -2 -13 -11 -24 -23 -26 -45 -9 -63 -55 -25 -67 17 -5 18 -10 9 -27 -23 -42 24 -35 97 15 51 35 66 57 40 57 -24 0 -19 28 12 69 16 20 37 57 47 83 19 51 39 75 49 59 3 -5 2 -21 -4 -36 -5 -14 -10 -36 -10 -48 0 -12 -7 -35 -15 -51 -9 -16 -13 -31 -10 -34 6 -7 5 -8 50 68 35 60 44 85 62 179 6 33 6 33 -26 26 -29 -6 -31 -5 -31 19 0 23 3 26 23 21 22 -6 24 -3 35 61 11 68 9 89 -9 78 -6 -3 -13 3 -16 15 -3 12 -13 21 -24 21 -29 0 -32 19 -5 30 18 7 26 17 26 34 0 32 18 43 34 20 21 -28 30 1 31 93 0 45 3 85 8 89 4 4 7 20 7 36 0 15 -3 27 -7 27 -20 -3 -24 2 -13 16 15 18 47 20 53 3 3 -10 7 -10 20 0 39 33 113 -73 123 -176 6 -58 -3 -83 -36 -94 -12 -4 -32 -68 -20 -68 19 0 53 -76 52 -117 0 -24 4 -45 9 -49 15 -9 10 -27 -5 -21 -11 4 -20 -11 -35 -54 -19 -58 -19 -59 0 -59 24 0 27 -45 3 -58 -15 -8 -14 -15 6 -70 27 -75 18 -98 -37 -87 -19 3 -33 2 -33 -4 0 -5 21 -13 48 -17 61 -9 82 -20 82 -44 0 -14 -7 -20 -21 -20 -17 0 -19 -3 -10 -14 7 -8 42 -15 90 -19 103 -7 135 -26 127 -76 -3 -20 -14 -47 -25 -61 -17 -22 -25 -25 -87 -25 -87 0 -97 -20 -32 -61 l42 -27 -24 -16 c-14 -9 -39 -29 -57 -45 -28 -23 -31 -31 -21 -43 10 -12 9 -18 -5 -28 -17 -12 -24 -45 -9 -45 5 0 20 13 35 28 19 20 25 34 21 47 -6 15 -4 17 10 12 17 -7 38 7 167 111 17 14 29 33 29 47 0 16 6 22 17 21 12 0 19 7 21 21 2 15 -2 23 -11 23 -17 0 -30 27 -17 35 4 3 16 2 26 -2 14 -5 16 -2 10 18 -3 13 -9 44 -13 68 -5 37 -4 43 9 38 19 -7 78 52 71 71 -3 6 2 12 11 12 11 0 16 9 16 30 0 24 7 35 35 51 20 12 35 29 35 39 0 10 9 22 20 25 11 3 20 11 20 16 0 5 9 9 21 9 15 0 19 5 15 15 -3 9 0 15 9 15 18 0 30 23 39 73 5 28 4 37 -7 37 -21 0 -28 -12 -16 -26 6 -8 6 -14 0 -18 -5 -4 -12 -2 -16 4 -4 7 -13 7 -26 -1 -16 -8 -25 -7 -40 7 -18 17 -18 17 6 40 22 21 33 44 20 44 -3 0 -26 -13 -52 -29 -27 -16 -58 -32 -71 -36 -18 -5 -21 -10 -12 -20 9 -11 6 -16 -11 -25 -17 -9 -23 -9 -29 1 -7 10 -21 8 -67 -10 -99 -39 -110 -39 -127 3 -9 21 -22 36 -32 36 -14 0 -15 7 -11 38 4 20 9 64 13 97 4 33 10 65 14 70 4 6 13 43 19 83 6 40 18 81 27 91 55 66 94 100 120 106 16 3 37 10 46 16 24 13 38 11 72 -6 34 -18 51 -8 41 25 -5 16 -10 19 -20 10 -8 -7 -19 -9 -25 -5 -8 5 -5 11 6 19 16 12 15 14 -10 20 -32 8 -100 -10 -139 -37 -18 -12 -36 -17 -53 -13 -49 13 -44 66 11 119 19 19 35 42 35 52 0 10 5 15 13 12 8 -3 31 12 52 34 21 21 33 39 27 39 -6 0 -12 7 -14 15 -2 11 -24 -4 -75 -50 -73 -67 -103 -80 -103 -46 0 11 -4 23 -10 26 -17 10 -12 75 6 82 17 6 68 105 69 133 0 8 8 14 18 12 9 -2 30 7 46 19 22 16 37 20 63 15 23 -4 41 -1 56 10 28 19 28 28 0 54 -25 23 -48 26 -48 6 0 -7 -11 -21 -23 -29 -22 -14 -25 -14 -38 4 -18 25 -22 24 -63 -11 -25 -22 -33 -36 -29 -51 5 -18 3 -20 -16 -14 -17 5 -28 1 -43 -15 l-21 -22 -61 63 c-40 42 -84 76 -130 98 l-68 35 -18 -24 c-18 -23 -35 -15 -24 13 6 17 -33 27 -102 27 -45 0 -74 -24 -74 -62 0 -30 -24 -20 -45 20 -20 36 -22 37 -70 33 -72 -5 -88 -16 -81 -54 18 -86 19 -100 5 -95 -8 2 -23 23 -34 45 -35 72 -60 94 -103 89 -49 -5 -67 6 -91 57 -11 23 -25 49 -31 57 -5 8 -14 27 -20 43 -7 19 -16 27 -34 27 -27 0 -36 -16 -36 -68 0 -20 -7 -58 -17 -84 -16 -44 -15 -48 2 -74 18 -28 18 -28 -11 -50 -16 -13 -53 -35 -83 -51 -43 -23 -57 -35 -63 -61 -9 -32 -21 -41 -33 -22 -4 6 -15 4 -29 -5 -17 -11 -22 -22 -18 -40 2 -14 8 -28 13 -31 19 -11 8 -24 -16 -18 -17 4 -25 2 -25 -7 0 -7 -3 -9 -6 -6 -4 4 -20 -5 -36 -18 -16 -14 -37 -25 -46 -25 -46 0 -112 69 -112 117 0 15 -2 14 -15 -4 -15 -21 -13 -25 20 -68 47 -63 46 -84 -3 -49 -12 8 -22 12 -22 8 0 -13 53 -64 67 -64 7 0 13 -9 13 -20 0 -15 -7 -20 -25 -20 -14 0 -33 -4 -43 -9 -67 -34 -69 -35 -98 -12 -26 20 -74 29 -74 13 0 -4 16 -16 35 -26 38 -21 50 -52 15 -41 -22 7 -26 -5 -8 -23 15 -15 82 -16 109 -2 10 6 19 17 19 25 0 8 8 15 17 15 30 0 123 -24 123 -32 0 -4 -28 -22 -62 -40 -93 -47 -178 -41 -286 19 -65 36 -93 15 -56 -42 18 -27 49 -33 57 -11 5 12 11 12 44 0 21 -7 53 -13 71 -14 36 0 45 -24 12 -33 -11 -3 -20 -11 -20 -17 0 -17 93 -6 122 15 13 8 29 15 37 15 8 0 29 11 48 26 18 14 38 22 43 19 15 -9 -35 -97 -81 -142 -21 -21 -39 -47 -39 -59 0 -11 -9 -29 -21 -40 -31 -28 -49 -68 -49 -109 0 -22 -6 -38 -15 -41 -20 -8 -19 -40 2 -48 22 -9 37 20 58 114 3 14 22 47 42 74 21 27 50 67 64 90 28 45 52 53 57 19 2 -14 -6 -30 -23 -45 -76 -66 -122 -169 -113 -253 3 -25 2 -47 -2 -50 -14 -9 -21 -179 -9 -240 6 -33 11 -67 11 -75 0 -8 4 -19 8 -25 4 -5 11 -24 14 -41 4 -18 15 -34 25 -37 21 -5 31 -51 31 -145 0 -78 -22 -82 -31 -6 -3 27 -7 39 -7 28 -1 -12 -11 -33 -22 -47 -11 -14 -20 -35 -20 -46 0 -34 -29 -25 -81 26 -27 26 -57 48 -66 48 -11 0 -18 8 -18 20 0 11 -17 32 -42 50 -28 20 -42 38 -42 54 -1 13 -17 41 -36 62 -19 22 -35 45 -35 52 0 8 -10 22 -21 33 -12 10 -30 38 -41 62 -10 23 -30 49 -44 58 -27 18 -31 36 -10 53 11 10 11 24 -6 94 -10 45 -31 118 -46 162 -33 96 -36 232 -8 306 9 24 17 62 19 84 2 33 -1 40 -15 39 -10 -1 -15 2 -12 7 3 5 11 8 18 7 16 -4 19 3 11 35 -6 21 -3 31 11 42 18 14 18 15 -11 39 l-30 24 29 12 c38 14 60 45 66 95 4 35 9 41 35 45 35 6 48 30 66 115 9 41 22 71 43 95 17 19 42 56 56 83 20 37 34 51 68 64 52 20 92 64 92 103 0 33 25 52 57 44 15 -4 24 2 36 29 10 19 17 42 17 51 0 8 14 23 31 32 43 22 155 11 178 -17 14 -17 20 -18 47 -8 49 19 101 4 120 -34 22 -43 44 -67 62 -67 9 0 13 7 9 20 -3 10 1 24 9 31 8 6 14 24 14 40 0 15 5 31 11 35 7 4 0 12 -18 19 -29 13 -98 13 -172 0 -53 -9 -83 7 -75 40 5 19 2 25 -10 25 -9 0 -16 8 -16 20 0 12 7 20 16 20 9 0 18 -9 21 -20 3 -11 6 -20 7 -20 1 0 26 9 56 20 64 24 128 20 179 -11 30 -18 35 -27 32 -60 -1 -13 11 -18 53 -24 71 -8 85 -3 119 46 24 35 32 40 54 34 24 -6 25 -5 19 28 -6 32 -4 36 22 45 17 6 35 6 43 1 20 -13 60 -10 89 5 22 13 29 11 72 -11 35 -18 58 -24 86 -21z m436 -177 c8 -23 -4 -45 -25 -45 -14 0 -19 7 -19 30 0 23 5 30 19 30 10 0 21 -7 25 -15z m349 -2 c-7 -2 -21 -2 -30 0 -10 3 -4 5 12 5 17 0 24 -2 18 -5z m-453 -73 c-12 -22 -25 -26 -36 -9 -7 12 12 29 34 29 10 0 10 -5 2 -20z m-1672 -69 c29 -25 28 -41 -3 -41 -25 0 -51 32 -40 50 9 14 17 12 43 -9z m2238 -46 c8 -31 -10 -55 -41 -55 -34 0 -36 10 -8 46 30 41 41 42 49 9z m-2370 -107 c-11 -70 -24 -75 -55 -24 -12 18 -21 36 -21 40 0 9 40 25 64 25 16 1 18 -4 12 -41z m912 -30 c-6 -18 -28 -21 -28 -4 0 9 7 16 16 16 9 0 14 -5 12 -12z m6 -64 c25 -9 19 -24 -9 -24 -24 0 -32 10 -18 23 8 8 8 8 27 1z m571 -13 c3 -5 -2 -17 -11 -26 -19 -19 -40 -6 -31 19 7 17 32 21 42 7z m130 -68 c-25 -46 -47 -44 -43 4 2 30 8 38 28 43 33 8 37 -6 15 -47z m-335 -8 c0 -13 5 -27 10 -30 14 -9 12 -25 -2 -25 -15 1 -58 35 -58 46 0 14 32 44 41 38 5 -3 9 -16 9 -29z m-500 -1 c0 -14 5 -35 11 -46 13 -24 -2 -39 -32 -31 -20 6 -25 36 -13 81 9 31 34 28 34 -4z m248 -2 c2 -15 -2 -22 -12 -22 -11 0 -16 9 -16 26 0 31 23 28 28 -4z m-111 -49 c8 -21 22 -45 30 -55 19 -21 1 -33 -27 -18 -11 6 -24 9 -29 6 -25 -16 -44 61 -22 88 20 24 30 20 48 -21z m739 -8 c10 -8 35 -15 54 -15 47 0 56 -8 69 -58 14 -51 9 -62 -30 -62 -32 0 -37 11 -14 30 18 15 20 40 2 40 -7 0 -19 -6 -26 -12 -10 -11 -16 -8 -30 11 -11 14 -25 22 -37 19 -27 -5 -24 -71 5 -102 25 -27 27 -42 5 -50 -37 -14 -47 -7 -40 29 7 33 5 36 -24 41 -20 5 -30 12 -30 25 0 10 -4 20 -9 24 -12 7 -49 -40 -57 -72 -7 -28 -34 -31 -34 -3 0 10 8 35 17 55 18 37 47 52 81 41 23 -8 52 17 52 43 0 33 16 39 46 16z m-553 -9 c3 -8 3 -17 0 -20 -9 -9 -34 15 -27 25 8 13 21 11 27 -5z m280 -12 c3 -3 1 -17 -5 -30 -8 -18 -8 -27 2 -39 15 -19 7 -30 -16 -21 -9 3 -14 13 -10 21 3 8 -2 18 -11 23 -12 7 -13 13 -4 31 11 20 31 27 44 15z m-163 -24 c0 -5 -4 -10 -10 -10 -5 0 -10 5 -10 10 0 6 5 10 10 10 6 0 10 -4 10 -10z m-472 -53 c23 -24 20 -37 -6 -37 -20 0 -52 29 -52 47 0 21 34 15 58 -10z m300 -15 c2 -18 -1 -32 -7 -32 -15 0 -33 39 -27 57 10 24 31 9 34 -25z m-150 -45 c2 -10 -3 -17 -11 -17 -16 0 -30 24 -19 34 10 10 27 1 30 -17z m-348 4 c0 -12 -20 -25 -27 -18 -7 7 6 27 18 27 5 0 9 -4 9 -9z m613 -55 c46 -58 31 -77 -23 -28 -22 19 -29 32 -25 45 10 24 16 22 48 -17z m-599 -22 c26 -41 30 -44 45 -30 25 23 40 20 47 -9 3 -13 12 -29 20 -36 37 -31 0 -40 -39 -9 -14 11 -39 20 -55 20 -40 0 -82 47 -75 84 8 37 24 31 57 -20z m153 14 c29 -27 29 -38 -1 -38 -28 0 -51 24 -42 45 7 20 15 19 43 -7z m141 -37 c12 -16 23 -35 24 -42 5 -21 -47 -20 -75 2 -29 22 -34 38 -15 57 20 20 43 14 66 -17z m932 -3 c-1 -39 -43 -79 -63 -58 -9 9 -8 14 5 24 11 8 14 17 7 27 -16 26 -14 27 44 38 4 0 7 -14 7 -31z m-1972 -106 c2 -7 -2 -10 -12 -6 -9 3 -16 11 -16 16 0 13 23 5 28 -10z m1872 -2 c0 -5 -2 -10 -4 -10 -3 0 -8 5 -11 10 -3 6 -1 10 4 10 6 0 11 -4 11 -10z m190 0 c0 -5 -4 -10 -10 -10 -5 0 -10 5 -10 10 0 6 5 10 10 10 6 0 10 -4 10 -10z m-1271 -14 c55 -16 63 -32 19 -39 -33 -5 -67 6 -80 27 -20 29 -5 32 61 12z m2003 -7 c37 -27 36 -63 -3 -67 -22 -3 -27 2 -37 36 -7 22 -12 42 -12 46 0 12 22 6 52 -15z m-812 -19 c0 -5 -5 -10 -11 -10 -5 0 -7 5 -4 10 3 6 8 10 11 10 2 0 4 -4 4 -10z m34 -43 c15 -23 0 -32 -30 -18 -22 10 -24 14 -14 27 15 17 29 14 44 -9z m-364 -88 c0 -24 -23 -21 -28 4 -2 10 3 17 12 17 10 0 16 -9 16 -21z m-292 -1 c17 -17 15 -38 -5 -45 -10 -3 -25 -12 -33 -18 -10 -9 -23 -10 -37 -4 -32 12 -29 31 3 23 25 -6 26 -5 21 18 -4 14 -4 28 0 32 10 10 38 7 51 -6z m65 -18 c-3 -11 0 -27 7 -35 13 -16 8 -18 -27 -9 -27 7 -29 21 -7 52 18 26 35 21 27 -8z m-573 5 c0 -8 -4 -15 -10 -15 -5 0 -10 7 -10 15 0 8 5 15 10 15 6 0 10 -7 10 -15z m618 -18 c2 -10 -3 -17 -12 -17 -10 0 -16 9 -16 21 0 24 23 21 28 -4z m528 -42 c9 -23 -4 -65 -19 -60 -17 7 -17 75 0 75 8 0 16 -7 19 -15z m-629 -32 c-4 -3 -10 -3 -14 0 -3 4 0 7 7 7 7 0 10 -3 7 -7z m-647 -37 c0 -16 -18 -31 -27 -22 -8 8 5 36 17 36 5 0 10 -6 10 -14z m606 -27 c3 -6 2 -15 -2 -19 -12 -12 -38 5 -30 19 9 14 23 14 32 0z m678 -240 c-3 -5 -10 -7 -15 -3 -5 3 -7 10 -3 15 3 5 10 7 15 3 5 -3 7 -10 3 -15z m156 -14 c0 -16 -35 -21 -44 -6 -8 12 4 21 26 21 10 0 18 -7 18 -15z m110 -35 c-11 -21 -44 -35 -60 -25 -31 19 18 72 52 54 14 -8 16 -14 8 -29z m-1440 20 c0 -5 -4 -10 -10 -10 -5 0 -10 5 -10 10 0 6 5 10 10 10 6 0 10 -4 10 -10z m665 -1 c4 -5 0 -18 -9 -28 -9 -10 -16 -30 -16 -44 0 -36 -27 -36 -41 0 -8 22 -6 30 18 55 29 30 38 34 48 17z m-125 -84 c0 -8 -9 -15 -20 -15 -11 0 -20 7 -20 15 0 8 9 15 20 15 11 0 20 -7 20 -15z m730 -25 c0 -6 10 -8 23 -5 30 8 59 -21 36 -36 -8 -5 -20 -9 -28 -9 -8 0 -20 -8 -27 -17 -14 -20 -39 -11 -58 21 -9 13 -6 21 14 36 28 22 40 25 40 10z m-120 -150 c0 -5 -5 -10 -11 -10 -5 0 -7 5 -4 10 3 6 8 10 11 10 2 0 4 -4 4 -10z m78 -253 c3 -12 -4 -17 -22 -17 -28 0 -33 9 -14 28 15 15 32 10 36 -11z m87 -278 c4 -11 5 -21 3 -23 -10 -6 -79 -36 -83 -36 -23 0 38 79 62 80 6 0 15 -9 18 -21z m-1338 -135 c7 -20 -11 -38 -32 -30 -13 4 -14 10 -5 26 13 24 28 26 37 4z"/>
 <path d="M1805 2350 c-3 -5 -1 -10 4 -10 6 0 11 5 11 10 0 6 -2 10 -4 10 -3 0 -8 -4 -11 -10z"/>
 <path d="M1446 2331 c-23 -26 -13 -61 18 -61 19 0 22 6 23 40 2 45 -13 52 -41 21z"/>
 <path d="M3270 2246 c0 -28 21 -49 42 -41 9 4 18 -1 21 -9 7 -18 52 -21 63 -5 4 7 -1 16 -10 21 -9 5 -16 17 -16 27 0 13 -10 20 -31 25 -57 11 -69 8 -69 -18z"/>
 <path d="M1250 2135 c0 -18 7 -28 26 -36 34 -12 37 -9 23 29 -14 40 -49 45 -49 7z"/>
 <path d="M2083 1843 c-38 -5 -48 -17 -57 -65 -8 -42 5 -55 37 -41 132 59 165 82 152 103 -6 10 -66 11 -132 3z"/>
 <path d="M2805 1730 c3 -5 8 -10 11 -10 2 0 4 5 4 10 0 6 -5 10 -11 10 -5 0 -7 -4 -4 -10z"/>
 <path d="M2101 1708 c-7 -19 -16 -23 -52 -23 -42 0 -44 -1 -47 -32 -2 -18 1 -33 7 -33 6 0 37 14 68 31 95 51 117 79 63 79 -23 0 -33 -6 -39 -22z"/>
 <path d="M2773 1703 c4 -3 10 -3 14 0 3 4 0 7 -7 7 -7 0 -10 -3 -7 -7z"/>
 <path d="M2066 1604 c-55 -20 -66 -32 -66 -70 0 -19 1 -34 3 -34 1 0 41 16 87 35 46 19 86 35 87 35 2 0 3 5 3 10 0 6 -9 10 -20 10 -11 0 -20 7 -20 15 0 18 -23 18 -74 -1z"/>
 <path d="M2186 1535 c-9 -9 -16 -22 -16 -29 0 -8 -7 -20 -16 -27 -14 -11 -18 -10 -30 5 -13 18 -15 18 -66 -4 -70 -29 -75 -35 -80 -76 -5 -39 10 -58 19 -25 3 12 11 21 18 21 7 0 16 8 20 18 6 16 7 16 16 0 8 -15 19 -12 102 27 97 45 112 64 71 92 -19 12 -24 12 -38 -2z"/>
 <path d="M2272 1471 c-11 -9 -38 -25 -59 -35 -21 -11 -45 -23 -53 -27 -8 -4 -35 -17 -60 -29 -109 -51 -115 -55 -113 -78 2 -13 -4 -25 -12 -28 -8 -4 -15 -15 -15 -26 0 -20 15 -21 64 -2 9 4 16 1 16 -6 0 -6 -18 -19 -40 -27 -26 -10 -40 -22 -40 -34 0 -10 -4 -21 -10 -24 -14 -9 -13 -55 2 -55 15 0 98 49 98 58 0 5 -5 13 -11 19 -16 16 -4 41 22 45 29 4 38 28 10 28 -30 0 -16 24 27 45 26 13 32 20 20 22 -9 3 -26 0 -36 -6 -19 -10 -32 -6 -32 11 0 4 26 20 58 35 31 14 74 35 95 45 28 15 37 16 37 6 0 -8 -5 -19 -12 -26 -24 -24 8 -11 60 24 56 37 64 61 25 75 -15 5 -27 3 -41 -10z"/>
 <path d="M1614 1368 c6 -109 48 -214 80 -202 11 4 12 12 4 35 -5 16 -14 29 -19 29 -5 0 -8 10 -8 23 1 12 -6 42 -15 66 -9 24 -16 58 -16 76 0 18 -7 38 -15 45 -14 12 -15 3 -11 -72z"/>
 <path d="M1423 1418 c-6 -7 -13 -35 -17 -62 -3 -27 -13 -60 -22 -73 -8 -14 -13 -32 -11 -41 2 -12 9 -6 22 21 11 22 26 37 36 37 24 0 27 8 35 74 6 52 5 56 -13 56 -11 0 -25 -6 -30 -12z"/>
 <path d="M2170 1350 c-8 -5 -12 -11 -9 -14 3 -3 14 1 25 9 21 16 8 20 -16 5z"/>
 <path d="M1710 1298 c0 -27 28 -91 43 -99 8 -5 17 -19 21 -31 5 -23 55 -58 82 -58 28 0 13 26 -35 60 -34 24 -51 44 -55 65 -10 44 -56 96 -56 63z"/>
 <path d="M1402 1188 c-26 -58 -47 -76 -74 -59 -25 16 -32 9 -24 -24 8 -33 28 -41 66 -25 30 12 46 42 60 113 10 50 -5 47 -28 -5z"/>
 <path d="M2710 1190 c0 -5 6 -10 14 -10 8 0 18 5 21 10 3 6 -3 10 -14 10 -12 0 -21 -4 -21 -10z"/>
 <path d="M1700 1120 c6 -11 13 -20 15 -20 3 0 5 9 5 20 0 11 -7 20 -15 20 -13 0 -14 -4 -5 -20z"/>
 <path d="M1742 1097 c-7 -8 -10 -22 -6 -30 7 -20 48 -47 70 -47 13 0 12 5 -8 29 -12 15 -28 36 -33 46 -9 15 -12 16 -23 2z"/>
 <path d="M2210 1082 c-25 -15 -66 -42 -92 -59 -26 -18 -58 -33 -72 -33 -14 0 -28 -5 -31 -10 -4 -6 -25 -20 -48 -31 -61 -31 -87 -58 -87 -91 0 -33 15 -35 50 -8 30 23 40 25 40 6 0 -8 -25 -28 -55 -45 -52 -30 -55 -33 -55 -71 0 -22 3 -40 8 -40 4 0 29 23 56 50 27 28 86 78 132 112 81 61 103 94 42 62 -20 -11 -34 -12 -40 -6 -11 11 53 57 139 101 53 26 67 27 60 1 -3 -13 0 -20 10 -20 11 0 14 7 9 26 -4 15 -2 32 5 40 9 11 9 18 -1 29 -16 19 -17 19 -70 -13z m-175 -182 c3 -6 -1 -13 -10 -16 -19 -8 -30 0 -20 15 8 14 22 14 30 1z"/>
 <path d="M2780 1070 c0 -5 7 -10 15 -10 8 0 15 5 15 10 0 6 -7 10 -15 10 -8 0 -15 -4 -15 -10z"/>
 <path d="M2485 900 c-3 -6 -15 -10 -27 -10 -18 0 -16 -5 16 -47 51 -67 66 -106 59 -149 -5 -29 -3 -36 8 -32 9 3 14 19 14 43 0 52 21 56 36 7 8 -29 9 -48 1 -71 -7 -20 -7 -33 -1 -37 18 -11 22 4 21 77 -1 65 -6 79 -41 138 -40 67 -75 99 -86 81z"/>
 <path d="M2260 855 c0 -9 13 -22 30 -28 38 -14 66 -79 74 -166 6 -72 10 -81 25 -52 40 74 -15 194 -116 255 -8 4 -13 1 -13 -9z"/>
 <path d="M2157 784 c-4 -4 -4 -17 -1 -29 4 -16 0 -24 -13 -27 -11 -3 -23 -23 -32 -53 -14 -46 -13 -49 9 -67 30 -24 46 -23 66 7 28 43 1 199 -29 169z"/>
 <path d="M2304 625 c-7 -50 5 -75 37 -75 23 0 25 25 4 34 -10 3 -15 19 -15 46 0 54 -17 51 -26 -5z"/>
 <path d="M2805 3280 c-8 -12 17 -23 41 -18 14 2 12 6 -9 15 -16 8 -29 9 -32 3z"/>
 <path d="M2086 3265 c-15 -11 -17 -18 -8 -27 13 -13 42 6 42 28 0 18 -10 17 -34 -1z"/>
 <path d="M3738 1072 c-10 -2 -18 -8 -18 -13 0 -13 27 -11 35 2 9 13 4 16 -17 11z"/>
 <path d="M1045 1030 c-8 -13 26 -70 42 -70 16 0 17 34 3 61 -11 20 -35 25 -45 9z"/>
 <path d="M3000 320 c-12 -8 -11 -10 7 -10 12 0 25 5 28 10 8 13 -15 13 -35 0z"/>
 </g>

</svg>