<?xml version="1.0" encoding="UTF-8" standalone="no"?>
<!-- Created with Inkscape (http://www.inkscape.org/) -->
<svg
   xmlns:dc="http://purl.org/dc/elements/1.1/"
   xmlns:cc="http://creativecommons.org/ns#"
   xmlns:rdf="http://www.w3.org/1999/02/22-rdf-syntax-ns#"
   xmlns:svg="http://www.w3.org/2000/svg"
   xmlns="http://www.w3.org/2000/svg"
   xmlns:sodipodi="http://sodipodi.sourceforge.net/DTD/sodipodi-0.dtd"
   xmlns:inkscape="http://www.inkscape.org/namespaces/inkscape"
   width="320"
   height="320"
   id="svg2"
   sodipodi:version="0.32"
   inkscape:version="0.46"
   sodipodi:docname="2008-09-13 - 02 - Haags_logo.svg"
   inkscape:output_extension="org.inkscape.output.svg.inkscape"
   version="1.0">
  <defs
     id="defs4">
    <inkscape:perspective
       sodipodi:type="inkscape:persp3d"
       inkscape:vp_x="0 : 526.18109 : 1"
       inkscape:vp_y="0 : 1000 : 0"
       inkscape:vp_z="744.09448 : 526.18109 : 1"
       inkscape:persp3d-origin="372.04724 : 350.78739 : 1"
       id="perspective10" />
    <inkscape:perspective
       id="perspective2390"
       inkscape:persp3d-origin="372.04724 : 350.78739 : 1"
       inkscape:vp_z="744.09448 : 526.18109 : 1"
       inkscape:vp_y="0 : 1000 : 0"
       inkscape:vp_x="0 : 526.18109 : 1"
       sodipodi:type="inkscape:persp3d" />
  </defs>
  <sodipodi:namedview
     id="base"
     pagecolor="#ffffff"
     bordercolor="#666666"
     borderopacity="1.0"
     inkscape:pageopacity="0.0"
     inkscape:pageshadow="2"
     inkscape:zoom="0.7"
     inkscape:cx="150.19445"
     inkscape:cy="43.918003"
     inkscape:document-units="px"
     inkscape:current-layer="layer1"
     showgrid="false"
     inkscape:window-width="656"
     inkscape:window-height="722"
     inkscape:window-x="-5"
     inkscape:window-y="25" />
  <metadata
     id="metadata7">
    <rdf:RDF>
      <cc:Work
         rdf:about="">
        <dc:format>image/svg+xml</dc:format>
        <dc:type
           rdf:resource="http://purl.org/dc/dcmitype/StillImage" />
      </cc:Work>
    </rdf:RDF>
  </metadata>
  <g
     inkscape:label="Capa 1"
     inkscape:groupmode="layer"
     id="layer1">
    <path
       style="opacity:1;fill:#00555a;fill-opacity:1"
       d="M 49.370535,305.44624 C 49.370535,303.82621 50.424898,301.47603 51.71356,300.22364 C 57.334241,294.76115 67.75711,287.77312 70.283912,287.77312 C 71.79779,287.77312 77.411732,285.66241 82.759335,283.08262 C 89.595228,279.78489 92.482249,277.29587 92.482249,274.70009 C 92.482249,271.05831 93.067414,270.80744 117.1606,264.11986 C 121.48814,262.91866 123.72329,267.24296 119.88511,269.39092 C 114.87241,272.19617 118.21409,274.53675 124.61212,272.70183 C 128.41609,271.61086 131.7895,271.7448 134.29619,273.08637 C 137.65273,274.88272 136.45159,275.57453 124.8694,278.51587 C 117.569,280.36982 107.08449,283.81321 101.57049,286.16785 C 89.611649,291.27462 66.153628,305.15177 64.678315,306.89873 C 62.018275,310.04858 60.053603,310.99708 60.617063,305.58013 C 60.777047,304.04204 59.876858,302.7685 58.972162,302.7685 C 58.067458,302.7685 56.370829,304.11649 54.993803,305.58013 C 50.499588,310.35708 48.807074,311.64758 49.370535,305.44624 z M 91.95098,286.58125 C 99.330936,283.76283 102.69336,280.27543 98.030846,280.27543 C 95.601366,280.27543 81.235712,287.52277 81.235712,288.74842 C 81.235712,290.25438 83.568305,289.78263 91.95098,286.58125 z M 187.21956,293.52417 C 186.53897,292.42296 182.60816,291.52197 178.48443,291.52197 C 174.02432,291.52197 170.87604,291.47383 172.13123,289.67015 C 173.32027,287.96151 170.10463,288.25299 164.52756,289.01742 C 156.20042,290.15877 155.84102,290.02237 157.05953,286.18316 C 158.24383,282.45177 157.69053,282.14985 149.66782,282.14985 C 144.3639,282.14985 141.44589,281.42188 142.15444,280.27543 C 143.60654,277.92588 171.20799,277.77748 171.20799,280.11924 C 171.20799,281.06425 169.1394,283.44645 167.85074,284.03568 C 166.56208,284.6249 170.10677,283.75687 174.48823,283.48405 C 180.18733,283.12916 185.08713,283.18565 184.1449,284.74066 C 182.34183,287.71629 182.07157,288.52315 188.64125,286.38514 C 192.26661,285.20531 194.88307,286.02363 194.26452,287.32235 C 193.36298,289.21521 193.49499,290.22676 199.79293,288.77095 C 205.49563,287.45273 205.67896,287.76054 202.24631,290.49643 C 200.24513,292.09141 197.57277,293.39638 196.30774,293.39638 C 195.0427,293.39638 192.75877,293.87564 191.23233,294.46137 C 189.70589,295.04714 187.90015,294.62539 187.21956,293.52417 z M 211.32408,280.45333 C 200.32309,274.40122 199.86876,273.88898 203.42434,266.19505 C 206.40047,259.755 208.83972,260.34618 207.47133,267.18814 C 205.94314,274.82911 210.37796,273.15909 215.15094,264.29624 C 217.08029,260.71361 219.28072,257.78236 220.04074,257.78236 C 221.80544,257.78236 219.36854,268.72072 216.34539,274.36954 C 211.70187,283.04602 221.6562,274.97046 227.68777,265.1679 C 230.82152,260.07491 233.75095,255.90794 234.19764,255.90794 C 235.50679,255.90794 232.76851,265.75973 229.85102,271.54612 C 225.62976,279.91837 228.62095,279.74088 236.80921,271.13323 C 245.12533,262.39117 246.97205,264.24829 239.5887,273.92839 C 236.72509,277.68274 232.11482,280.88327 227.87357,282.06115 C 219.1875,284.47346 220.44517,284.59564 211.32408,280.45333 z M 94.881036,258.88114 C 97.877906,256.60761 97.353876,256.22093 89.726376,255.07707 C 77.796217,253.28794 75.301605,252.34885 86.390381,248.71443 L 91.545041,246.83178 L 85.732872,246.68381 C 78.836273,246.50821 66.762462,243.02711 66.762462,240.96349 C 66.762462,240.16228 70.645228,239.00065 73.738026,238.38209 C 82.339044,236.6619 80.392793,234.42206 69.567429,232.59864 C 51.893794,229.62169 43.388726,226.10327 62.632776,223.30038 C 73.339271,221.74097 71.108206,218.40377 56.781686,214.85292 C 48.254047,212.73932 41.478824,210.55643 41.044683,208.24069 C 40.569746,205.70732 44.756238,205.29854 49.111067,205.29854 C 56.574437,205.29854 64.887724,202.03601 63.430866,199.67877 C 62.792528,198.64591 60.000429,197.79614 57.226207,197.79038 C 51.419117,197.77835 40.523936,194.53882 36.30386,192.27277 C 27.001906,187.27791 35.48693,187.79369 49.743756,186.27035 C 57.628559,185.42786 64.324201,183.6505 66.026657,181.94805 C 68.632274,179.34242 68.268825,179.05662 62.349756,179.05662 C 53.480819,179.05662 34.437636,174.09692 28.751886,170.05777 C 21.388954,164.82716 24.824023,166.84202 49.370535,165.8433 C 63.349901,165.27453 76.353068,163.83195 78.424078,162.62007 C 81.54705,160.79262 79.982355,160.41225 69.051966,160.34169 C 54.047831,160.24483 35.586779,156.34824 25.412633,151.13068 C 18.508716,147.5902 8.6375274,138.51292 10.156473,137.10154 C 10.590088,136.69862 19.512779,139.18199 29.984671,142.62012 C 55.983007,151.15591 108.03198,158.26099 104.66599,152.8147 C 104.02884,151.78378 101.41303,150.94028 98.853086,150.94028 C 88.130892,150.94028 64.38338,144.73175 51.849216,138.65164 C 35.516542,130.72892 22.614644,118.61854 16.488514,105.46028 C 8.4923934,88.285485 10.881167,84.309775 21.881053,96.485335 C 32.218789,107.92797 47.128313,119.34091 61.759968,127.01183 C 77.951649,135.50063 111.21077,146.85803 123.66871,148.15258 L 132.78232,149.0996 L 122.473,144.17835 C 116.80287,141.47165 108.78972,137.69006 104.66599,135.77479 C 65.089252,117.39342 40.901102,91.891975 37.26745,64.716855 C 34.906879,47.062745 42.925971,36.929525 47.340186,51.988585 C 51.757015,67.056585 61.861575,82.219585 77.797207,97.692695 C 94.154201,113.57495 122.4531,135.36628 138.40559,144.36371 L 147.7777,149.6497 L 135.45895,136.70543 C 95.315886,94.523985 81.235712,70.686115 81.235712,44.904905 C 81.235712,38.209395 82.383775,29.983565 83.786968,26.625255 C 86.428739,20.302625 91.617964,14.107455 94.272194,14.107455 C 95.109396,14.107455 96.363846,19.801015 97.059886,26.759795 C 100.18621,58.016155 113.22318,89.025925 137.05267,121.88673 C 158.3436,151.24688 162.62592,154.389 151.74095,132.66414 C 131.06553,91.398905 126.56025,56.368695 138.81611,32.168715 C 143.10568,23.698665 156.31882,10.358605 160.4187,10.358605 C 164.78092,10.358605 164.71295,10.893555 157.20356,35.663305 C 147.78377,66.734495 151.31905,113.71384 165.33411,143.70813 L 169.15132,151.87749 L 167.83662,141.56817 C 165.11969,120.26301 166.43526,94.577575 171.00236,79.759515 C 179.08966,53.520125 188.92626,38.591225 202.05842,32.626115 C 216.73908,25.957615 217.88141,28.730785 206.60571,43.665365 C 196.23293,57.403975 185.86068,80.568455 180.3935,102.2053 C 176.62327,117.12635 175.92491,124.34774 176.06028,146.76301 C 176.25365,178.89559 182.02163,177.31736 155.2704,173.93878 C 138.87089,171.87628 132.38755,172.42283 136.96534,178.36951 C 140.02483,182.34388 129.03775,184.67989 111.9946,184.67989 C 104.47729,184.67989 97.864526,185.4278 97.299566,186.34192 C 96.021906,188.40922 99.738266,191.55426 104.51066,192.44448 C 114.20419,194.25264 114.10887,199.4569 91.867311,204.42452 C 82.761887,206.45821 83.965337,209.30657 95.084206,212.44698 C 105.21415,215.30808 109.49744,216.99922 96.090306,221.47711 C 87.29704,224.41399 88.041475,226.53967 98.574126,228.57436 C 108.66567,230.52383 111.91876,230.49179 102.85554,235.25504 C 96.842376,238.4153 98.511396,240.91256 106.65104,240.91256 C 113.67875,240.91256 117.82145,241.59941 109.82065,247.67538 C 106.80524,249.96535 106.91809,250.19405 111.22647,250.52034 C 113.8038,250.71554 116.96689,250.83609 118.25555,250.78823 C 120.91465,250.68947 121.18293,252.08702 119.12591,255.32207 C 116.93603,258.76608 108.04175,261.53735 99.389306,261.4716 C 92.400561,261.41848 91.908874,261.13597 94.881036,258.88114 z M 190.18926,247.55418 C 192.17257,245.58726 222.94215,242.78698 242.57167,242.78698 C 254.86826,242.78698 264.92911,242.03373 264.92911,241.1131 C 264.92911,238.83085 260.11696,237.16371 253.52927,237.16371 C 250.5208,237.16371 248.05931,236.32022 248.05931,235.28929 C 248.05931,234.25836 249.5265,233.41487 251.3197,233.41487 C 255.10585,233.41487 305.1819,243.90028 309.89339,245.65482 C 311.64118,246.30569 291.59739,245.71588 271.82513,245.8592 C 239.54062,246.09322 212.5129,248.74714 196.06686,253.29809 C 189.21491,255.93074 189.48131,252.94722 190.18926,247.55418 z"
       id="path2404"
       sodipodi:nodetypes="cssssssssssssssccssccssssssssssssssssccsssssssssssccscccsssssssssssssssssssssssssscccsssscccssssssssscccsssssssssssssssssssssccssssssscc" />
  </g>
</svg>
