<?xml version="1.0" encoding="UTF-8" standalone="no"?>
<svg
   viewBox="0 0 855.03496 429.92005"
   width="855.03497"
   height="429.92004"
   version="1.1"
   id="svg22"
   sodipodi:docname="inx_3f0cd2b4b45"
   xmlns:inkscape="http://www.inkscape.org/namespaces/inkscape"
   xmlns:sodipodi="http://sodipodi.sourceforge.net/DTD/sodipodi-0.dtd"
   xmlns="http://www.w3.org/2000/svg"
   xmlns:svg="http://www.w3.org/2000/svg">
  <sodipodi:namedview
     id="namedview24"
     pagecolor="#ffffff"
     bordercolor="#666666"
     borderopacity="1.0"
     inkscape:showpageshadow="2"
     inkscape:pageopacity="0.0"
     inkscape:pagecheckerboard="0"
     inkscape:deskcolor="#d1d1d1"
     showgrid="false" />
  <desc
     id="desc2">inx_3f0c74e66b - scale = 1.000000, origin = (0.000000, 0.000000), method = manual</desc>
  <defs
     id="defs16">
    <marker
       id="DistanceX"
       orient="auto"
       refX="0"
       refY="0"
       style="overflow:visible">
      <path
         d="M 3,-3 -3,3 M 0,-5 V 5"
         style="stroke:#000000;stroke-width:0.5"
         id="path4" />
    </marker>
    <pattern
       id="Hatch"
       patternUnits="userSpaceOnUse"
       width="8"
       height="8"
       x="0"
       y="0">
      <path
         d="M8 4 l-4,4"
         stroke="#000000"
         stroke-width="0.25"
         linecap="square"
         id="path7" />
      <path
         d="M6 2 l-4,4"
         stroke="#000000"
         stroke-width="0.25"
         linecap="square"
         id="path9" />
      <path
         d="M4 0 l-4,4"
         stroke="#000000"
         stroke-width="0.25"
         linecap="square"
         id="path11" />
    </pattern>
    <symbol
       id="*Model_Space" />
    <symbol
       id="*Paper_Space" />
  </defs>
  <g
     inkscape:groupmode="layer"
     inkscape:label="0"
     id="g20"
     transform="translate(411.23051,-710.75796)">
    <path
       d="m 96.295488,797.94796 6.900002,5 -33.920002,14.5 15.49,13.4 37.280002,-11.8 5,5 10.54,-3 3.6,3 5.4,-2 55.72,-28.9 1.3,0.88 16.92,14.1 4.1,4 21.42,17.9 10,5 -4.7,4 7.4,6 -1.5,1 -18.98,9 -0.951,0.43 -33.57,15.2 -8,4 -13.51,6 -2.7,1 -27.92,12.1 1.1,1 -24.33,9 -0.403,0.18 -13.75,6 74.53,25.5 2.2,0.79 -50.35,26.1 8.6,6 13.32,11.8 16.17,-10.9 3.9,3 2.5,-1 12.75,10.3 9.3,-4 -0.929,-3 4.7,-1 -18.16,-11.7 29.48,-13.6 0.717,-0.56 28.03,-16.1 32.38,-19.5 16.5,-5 0.839,-0.28 15.38,12.3 12.36,-7 10.2,-4 9.3,4 25.82,-11.7 7.6,5 22.5,16.9 20.27,22.3 13.03,10.5 0.536,3 -1.5,2 7.6,18 -26.59,-0.42 25.24,21.8 -78.29,-6 -4.9,4 -5.8,4.00004 -15.51,-10.70004 -12.53,8 -5.5,8.00004 -6.7,-5 -6.8,5 -0.975,0.65 -29.24,19.5 -20.58,14 27.21,18.8 5,-2 21.12,-8 4.1,0.01 22.97,20.4 -53.64,23.9 -23.57,-22.2 -38.19,17 -3.7,2 -8.2,4 -1.8,0.81 -3.5,-3 -4,2 -0.095,-4 -11.08,-10 -4,-0.9 -12.9,-32.6 -13.15,-11.9 -1.9,-9 10.39,-8 12.02,-5 1.2,-3 -30.04,-18.30004 8.3,-10.3 -11.35,-10 -14.51,-10 -18.51,8 -0.977,0.41 -17.230001,8 -6.4,3 -3.8,-1 -0.056,2 -8.1,4 -5.2,-0.78 -10.47,4 2.1,6 -20.64,8.00004 -12.72,3 -11.49,6 -0.867,0.36 -20.4200005,7 -4.5,-1 -18.3699995,5 1.4,2 -5.6,2 1.2,2 -3,1 -12.53,3 1.6,2 -11.01,4 2.9,5 26.11,39.9 -2.7,1 0.054,0.09 11.44,13.3 12.3099995,14.3 0.469,0.56 12.57,14.5 -18.8,6 -5.9999995,-5 -21.03,11.4 -21.83,-10.6 17.42,-6 -27.76,-13.3 -0.854,-0.37 5.6,-3 -11.75,-7 1.9,-1 -2.3,-1 3.2,-0.8 -2.400001,-4 -6.699999,3 -2.5,-4 -4.000001,0.97 -14.529998,-19.3 -7.6,3 -11.04,-15 -1.2,-2 -22.74,11 -28.39,13 -10.42,5 -4.9,-0.08 -25.9,11.9 -25.71,-25.4 -24.04,-27.6 -25.43,17.4 -34.39,3 -26.35,11.3 -10.09,-11 10.77,-1 -12.84,-16 -18.43,-24.2 -0.165,-0.2 -19.89,-19.9 3.6,-3 -13.54,-18.80004 -0.079,-0.11 32.59,-18.6 26.91,-19.6 71,-48.7 48.66,-36 43.94,-37.1 3.9,-6 -9.2,-6 -5.2,-10.3 6.6,10 15.33,10.7 6.2,-2 2.4,1 0.631,1 -6.4,2 1.4,3 6.2,-1 10.26,2 3.4,-2 -4.1,-3 2.2,-1 10.36,5 -14.11,9 3.8,2 28.47,-20.1 -3.6,-2 -13.53,10 -6.7,-5 12.55,-9 -5.7,-3 -15.29,10.7 -7.3,-0.56 -2.2,-1 1.4,-4 -8.4,-3 -4,-8 -6.9,-2 0.983,-1 7.6,2 2.6,5 10.29,-2 12.49,-10.4 15.99,-9 41.449998,-28.4 5.4,-3 0.71,-0.37 19.76,-10.1 60.3600005,-35 98.0099995,72 0.402,0.29 15.560002,13.1 z"
       style="fill:#000000;stroke-width:1000"
       id="path18" />
  </g>
</svg>
