<?xml version="1.0" encoding="UTF-8" standalone="no"?>
<!-- Created with Inkscape (http://www.inkscape.org/) -->

<svg
   width="166.07mm"
   height="35.291mm"
   version="1.1"
   viewBox="0 0 166.07 35.291"
   id="svg6"
   sodipodi:docname="inx_4f0862b082f"
   xmlns:inkscape="http://www.inkscape.org/namespaces/inkscape"
   xmlns:sodipodi="http://sodipodi.sourceforge.net/DTD/sodipodi-0.dtd"
   xmlns="http://www.w3.org/2000/svg"
   xmlns:svg="http://www.w3.org/2000/svg">
  <defs
     id="defs10" />
  <sodipodi:namedview
     id="namedview8"
     pagecolor="#ffffff"
     bordercolor="#666666"
     borderopacity="1.0"
     inkscape:showpageshadow="2"
     inkscape:pageopacity="0.0"
     inkscape:pagecheckerboard="0"
     inkscape:deskcolor="#d1d1d1"
     inkscape:document-units="mm"
     showgrid="false" />
  <g
     transform="translate(-33.757,-10.318)"
     id="g4">
    <g
       aria-label="Den Haag"
       id="text2"
       style="font-size:38.1px;font-family:Arial">
      <path
         d="M 33.756916,37.590652 V 10.3179 h 9.394775 q 3.181201,0 4.855517,0.390673 2.344043,0.539502 3.999756,1.95337 2.158007,1.823144 3.218408,4.669482 1.079004,2.827734 1.079004,6.474023 0,3.106787 -0.725537,5.50664 -0.725538,2.399854 -1.860352,3.981153 -1.134814,1.562695 -2.492871,2.474267 -1.339453,0.892969 -3.255615,1.358057 -1.897559,0.465087 -4.371826,0.465087 z m 3.609081,-3.218408 h 5.822901 q 2.697509,0 4.222997,-0.502295 1.544092,-0.502294 2.455664,-1.413867 1.283643,-1.283642 1.990577,-3.44165 0.725537,-2.176611 0.725537,-5.264795 0,-4.278808 -1.413868,-6.56704 -1.395263,-2.306836 -3.404443,-3.088184 -1.451074,-0.558105 -4.669482,-0.558105 h -5.729883 z"
         id="path12" />
      <path
         d="m 74.368389,31.22825 3.460254,0.427881 q -0.818555,3.032373 -3.032373,4.706689 -2.213819,1.674317 -5.655469,1.674317 -4.334619,0 -6.8833,-2.660303 -2.530078,-2.678906 -2.530078,-7.497216 0,-4.985742 2.567285,-7.739062 2.567285,-2.753321 6.660058,-2.753321 3.962549,0 6.474023,2.69751 2.511475,2.69751 2.511475,7.590234 0,0.297656 -0.0186,0.892969 H 63.187676 q 0.186036,3.255615 1.841748,4.985742 1.655713,1.730127 4.129981,1.730127 1.841748,0 3.143994,-0.967383 1.302246,-0.967383 2.06499,-3.088184 z M 63.373712,25.814628 h 11.031884 q -0.223242,-2.492871 -1.265039,-3.739307 -1.599902,-1.934765 -4.148584,-1.934765 -2.306836,0 -3.888135,1.544091 -1.562695,1.544092 -1.730126,4.129981 z"
         id="path14" />
      <path
         d="M 82.033037,37.590652 V 17.83372 h 3.013769 v 2.80913 q 2.176612,-3.255615 6.287989,-3.255615 1.785937,0 3.274218,0.651123 1.506885,0.63252 2.251025,1.674317 0.744141,1.041796 1.041797,2.474267 0.186035,0.930176 0.186035,3.255615 v 12.148095 h -3.348632 v -12.01787 q 0,-2.046387 -0.390674,-3.050977 Q 93.95789,21.498612 92.9533,20.9033 q -0.985986,-0.613916 -2.325439,-0.613916 -2.139404,0 -3.7021,1.358056 -1.544091,1.358057 -1.544091,5.153174 v 10.790038 z"
         id="path16" />
      <path
         d="M 114.34734,37.590652 V 10.3179 h 3.60908 V 21.517216 H 132.1323 V 10.3179 h 3.60908 V 37.590652 H 132.1323 V 24.735624 h -14.17588 v 12.855028 z"
         id="path18" />
      <path
         d="m 154.21468,35.153592 q -1.86035,1.581299 -3.59048,2.232422 -1.71152,0.651123 -3.6835,0.651123 -3.25561,0 -5.00434,-1.581299 -1.74873,-1.599902 -1.74873,-4.07417 0,-1.451074 0.65112,-2.641699 0.66973,-1.209228 1.73013,-1.934765 1.079,-0.725537 2.41846,-1.097608 0.98598,-0.260449 2.97656,-0.502295 4.05556,-0.483691 5.97173,-1.153418 0.0186,-0.68833 0.0186,-0.874365 0,-2.046386 -0.94878,-2.883545 -1.28364,-1.134814 -3.81372,-1.134814 -2.36265,0 -3.49746,0.837158 -1.11621,0.818555 -1.65571,2.920752 l -3.27422,-0.446484 q 0.44648,-2.102198 1.46968,-3.38584 1.02319,-1.302246 2.95795,-1.990576 1.93477,-0.706934 4.48345,-0.706934 2.53008,0 4.11138,0.595313 1.5813,0.595312 2.32544,1.506884 0.74414,0.892969 1.04179,2.269629 0.16744,0.855762 0.16744,3.088184 v 4.464843 q 0,4.669483 0.20463,5.915918 0.22325,1.227832 0.85577,2.362646 h -3.49746 q -0.5209,-1.041796 -0.66973,-2.43706 z m -0.27905,-7.478613 q -1.82315,0.744141 -5.46944,1.265039 -2.06499,0.297656 -2.92075,0.669727 -0.85576,0.37207 -1.32085,1.097607 -0.46509,0.706934 -0.46509,1.581299 0,1.339453 1.00459,2.232422 1.0232,0.892968 2.97657,0.892968 1.93476,0 3.44165,-0.837158 1.50688,-0.855762 2.21381,-2.325439 0.53951,-1.134815 0.53951,-3.348633 z"
         id="path20" />
      <path
         d="m 175.40407,35.153592 q -1.86035,1.581299 -3.59048,2.232422 -1.71152,0.651123 -3.68349,0.651123 -3.25562,0 -5.00435,-1.581299 -1.74873,-1.599902 -1.74873,-4.07417 0,-1.451074 0.65112,-2.641699 0.66973,-1.209228 1.73013,-1.934765 1.079,-0.725537 2.41846,-1.097608 0.98598,-0.260449 2.97656,-0.502295 4.05557,-0.483691 5.97173,-1.153418 0.0186,-0.68833 0.0186,-0.874365 0,-2.046386 -0.94878,-2.883545 -1.28364,-1.134814 -3.81372,-1.134814 -2.36264,0 -3.49746,0.837158 -1.11621,0.818555 -1.65571,2.920752 l -3.27422,-0.446484 q 0.44648,-2.102198 1.46968,-3.38584 1.02319,-1.302246 2.95796,-1.990576 1.93476,-0.706934 4.48344,-0.706934 2.53008,0 4.11138,0.595313 1.5813,0.595312 2.32544,1.506884 0.74414,0.892969 1.0418,2.269629 0.16743,0.855762 0.16743,3.088184 v 4.464843 q 0,4.669483 0.20464,5.915918 0.22324,1.227832 0.85576,2.362646 h -3.49746 q -0.5209,-1.041796 -0.66973,-2.43706 z m -0.27905,-7.478613 q -1.82315,0.744141 -5.46944,1.265039 -2.06499,0.297656 -2.92075,0.669727 -0.85576,0.37207 -1.32085,1.097607 -0.46508,0.706934 -0.46508,1.581299 0,1.339453 1.00459,2.232422 1.02319,0.892968 2.97656,0.892968 1.93476,0 3.44165,-0.837158 1.50688,-0.855762 2.21382,-2.325439 0.5395,-1.134815 0.5395,-3.348633 z"
         id="path22" />
      <path
         d="m 183.08733,39.227762 3.25561,0.483691 q 0.20464,1.506885 1.13482,2.195215 1.24643,0.930176 3.40444,0.930176 2.32544,0 3.59048,-0.930176 1.26504,-0.930176 1.71152,-2.604492 0.26045,-1.023193 0.24185,-4.297412 -2.19522,2.585888 -5.46944,2.585888 -4.07417,0 -6.30659,-2.939355 -2.23242,-2.939355 -2.23242,-7.050732 0,-2.827734 1.02319,-5.208984 1.0232,-2.399854 2.95796,-3.7021 1.95337,-1.302246 4.57647,-1.302246 3.49746,0 5.76709,2.827735 v -2.38125 h 3.08818 v 17.078026 q 0,4.613672 -0.94878,6.529834 -0.93018,1.934766 -2.97656,3.050976 -2.02779,1.116211 -5.00435,1.116211 -3.53467,0 -5.71128,-1.599902 -2.17661,-1.581299 -2.10219,-4.781103 z m 2.77192,-11.869043 q 0,3.888135 1.54409,5.674072 1.54409,1.785938 3.86953,1.785938 2.30684,0 3.86953,-1.767334 1.5627,-1.785938 1.5627,-5.581055 0,-3.627685 -1.61851,-5.469433 -1.5999,-1.841748 -3.86953,-1.841748 -2.23242,0 -3.79511,1.823144 -1.5627,1.804541 -1.5627,5.376416 z"
         id="path24" />
    </g>
  </g>
</svg>
