<?xml version="1.0" encoding="UTF-8" standalone="no"?>
<!-- Created with Inkscape (http://www.inkscape.org/) -->

<svg
   width="13.839mm"
   height="2.9409mm"
   version="1.1"
   viewBox="0 0 13.839 2.9409"
   id="svg6"
   sodipodi:docname="inx_50ac76c95b45"
   xmlns:inkscape="http://www.inkscape.org/namespaces/inkscape"
   xmlns:sodipodi="http://sodipodi.sourceforge.net/DTD/sodipodi-0.dtd"
   xmlns="http://www.w3.org/2000/svg"
   xmlns:svg="http://www.w3.org/2000/svg">
  <defs
     id="defs10" />
  <sodipodi:namedview
     id="namedview8"
     pagecolor="#ffffff"
     bordercolor="#666666"
     borderopacity="1.0"
     inkscape:showpageshadow="2"
     inkscape:pageopacity="0.0"
     inkscape:pagecheckerboard="0"
     inkscape:deskcolor="#d1d1d1"
     inkscape:document-units="mm"
     showgrid="false" />
  <g
     transform="translate(-31.063,-35.318)"
     id="g4">
    <g
       aria-label="Den Haag"
       id="text2"
       style="font-size:3.175px;font-family:Arial">
      <path
         d="m 31.062506,37.590652 v -2.272729 h 0.782898 q 0.265101,0 0.404627,0.03256 0.195337,0.04496 0.333313,0.162781 0.179834,0.151929 0.268201,0.389123 0.08992,0.235645 0.08992,0.539502 0,0.258899 -0.06046,0.458887 -0.06046,0.199988 -0.155029,0.331763 -0.09457,0.130224 -0.207739,0.206189 -0.111622,0.07441 -0.271302,0.113171 -0.15813,0.03876 -0.364319,0.03876 z m 0.300757,-0.2682 h 0.485242 q 0.224792,0 0.351917,-0.04186 0.128674,-0.04186 0.204638,-0.117822 0.10697,-0.106971 0.165882,-0.286805 0.06046,-0.181384 0.06046,-0.438732 0,-0.356568 -0.117822,-0.547254 -0.116272,-0.192236 -0.283704,-0.257349 -0.120923,-0.04651 -0.389123,-0.04651 h -0.477491 z"
         id="path12" />
      <path
         d="m 34.446796,37.060452 0.288354,0.03566 q -0.06821,0.252698 -0.252697,0.392224 -0.184485,0.139526 -0.471289,0.139526 -0.361219,0 -0.573609,-0.221691 -0.21084,-0.223243 -0.21084,-0.624768 0,-0.415479 0.213941,-0.644922 0.21394,-0.229444 0.555005,-0.229444 0.330212,0 0.539502,0.224793 0.209289,0.224792 0.209289,0.632519 0,0.0248 -0.0016,0.07441 H 33.51507 q 0.0155,0.271302 0.153479,0.415479 0.137976,0.144177 0.344165,0.144177 0.153479,0 0.261999,-0.08061 0.108521,-0.08062 0.172083,-0.257349 z m -0.916223,-0.451135 h 0.919323 q -0.0186,-0.207739 -0.105419,-0.311609 -0.133326,-0.16123 -0.345716,-0.16123 -0.192236,0 -0.324011,0.128674 -0.130225,0.128674 -0.144177,0.344165 z"
         id="path14" />
      <path
         d="m 35.085516,37.590652 v -1.646411 h 0.251148 v 0.234095 q 0.181384,-0.271302 0.523999,-0.271302 0.148828,0 0.272851,0.05426 0.125574,0.05271 0.187586,0.139526 0.06201,0.08682 0.08682,0.206189 0.0155,0.07751 0.0155,0.271301 v 1.012341 h -0.279052 v -1.001489 q 0,-0.170532 -0.03256,-0.254248 -0.03256,-0.08527 -0.116272,-0.134875 -0.08217,-0.05116 -0.193786,-0.05116 -0.178284,0 -0.308509,0.113171 -0.128674,0.113172 -0.128674,0.429432 v 0.899169 z"
         id="path16" />
      <path
         d="m 37.778376,37.590652 v -2.272729 h 0.300756 v 0.933276 h 1.181324 v -0.933276 h 0.300756 v 2.272729 H 39.260456 V 36.5194 h -1.181324 v 1.071252 z"
         id="path18" />
      <path
         d="m 41.100653,37.387564 q -0.155029,0.131775 -0.299206,0.186035 -0.142627,0.05426 -0.306958,0.05426 -0.271301,0 -0.417029,-0.131774 -0.145727,-0.133326 -0.145727,-0.339515 0,-0.120922 0.05426,-0.220141 0.05581,-0.100769 0.144177,-0.161231 0.08992,-0.06046 0.201538,-0.09147 0.08217,-0.0217 0.248047,-0.04186 0.337964,-0.04031 0.497644,-0.09612 0.0016,-0.05736 0.0016,-0.07286 0,-0.170532 -0.07906,-0.240295 -0.10697,-0.09457 -0.31781,-0.09457 -0.196887,0 -0.291455,0.06976 -0.09302,0.06821 -0.137976,0.243396 l -0.272851,-0.03721 q 0.03721,-0.175183 0.122473,-0.282153 0.08527,-0.108521 0.246496,-0.165882 0.161231,-0.05891 0.373621,-0.05891 0.21084,0 0.342615,0.04961 0.131775,0.04961 0.193786,0.125573 0.06201,0.07441 0.08682,0.189136 0.01395,0.07131 0.01395,0.257349 v 0.37207 q 0,0.389124 0.01705,0.492993 0.0186,0.10232 0.07131,0.196887 h -0.291455 q -0.04341,-0.08682 -0.05581,-0.203088 z m -0.02325,-0.623218 q -0.151929,0.06201 -0.455786,0.10542 -0.172083,0.02481 -0.243396,0.05581 -0.07131,0.03101 -0.110071,0.09147 -0.03876,0.05891 -0.03876,0.131775 0,0.111621 0.08372,0.186035 0.08527,0.07441 0.248046,0.07441 0.161231,0 0.286805,-0.06976 0.125573,-0.07131 0.184485,-0.193787 0.04496,-0.09457 0.04496,-0.279052 z"
         id="path20" />
      <path
         d="m 42.866437,37.387564 q -0.15503,0.131775 -0.299207,0.186035 -0.142627,0.05426 -0.306958,0.05426 -0.271301,0 -0.417029,-0.131774 -0.145727,-0.133326 -0.145727,-0.339515 0,-0.120922 0.05426,-0.220141 0.05581,-0.100769 0.144177,-0.161231 0.08992,-0.06046 0.201538,-0.09147 0.08217,-0.0217 0.248047,-0.04186 0.337964,-0.04031 0.497644,-0.09612 0.0016,-0.05736 0.0016,-0.07286 0,-0.170532 -0.07906,-0.240295 -0.106971,-0.09457 -0.31781,-0.09457 -0.196888,0 -0.291455,0.06976 -0.09302,0.06821 -0.137976,0.243396 l -0.272852,-0.03721 q 0.03721,-0.175183 0.122473,-0.282153 0.08527,-0.108521 0.246497,-0.165882 0.16123,-0.05891 0.37362,-0.05891 0.21084,0 0.342615,0.04961 0.131775,0.04961 0.193787,0.125573 0.06201,0.07441 0.08682,0.189136 0.01395,0.07131 0.01395,0.257349 v 0.37207 q 0,0.389124 0.01705,0.492993 0.0186,0.10232 0.07131,0.196887 h -0.291455 q -0.04341,-0.08682 -0.05581,-0.203088 z m -0.02325,-0.623218 q -0.151928,0.06201 -0.455786,0.10542 -0.172082,0.02481 -0.243396,0.05581 -0.07131,0.03101 -0.110071,0.09147 -0.03876,0.05891 -0.03876,0.131775 0,0.111621 0.08372,0.186035 0.08527,0.07441 0.248047,0.07441 0.16123,0 0.286804,-0.06976 0.125574,-0.07131 0.184485,-0.193787 0.04496,-0.09457 0.04496,-0.279052 z"
         id="path22" />
      <path
         d="m 43.506707,37.727078 0.271302,0.04031 q 0.01705,0.125574 0.09457,0.182934 0.103869,0.07752 0.283703,0.07752 0.193787,0 0.299207,-0.07752 0.10542,-0.07751 0.142627,-0.217041 0.0217,-0.08527 0.02015,-0.358117 -0.182934,0.21549 -0.455786,0.21549 -0.339514,0 -0.525549,-0.244946 -0.186035,-0.244946 -0.186035,-0.587561 0,-0.235644 0.08527,-0.434082 0.08527,-0.199988 0.246497,-0.308508 0.16278,-0.108521 0.381372,-0.108521 0.291455,0 0.48059,0.235645 v -0.198438 h 0.257349 v 1.423169 q 0,0.384473 -0.07906,0.544153 -0.07752,0.161231 -0.248047,0.254248 -0.168982,0.09302 -0.417029,0.09302 -0.294555,0 -0.47594,-0.133325 -0.181384,-0.131775 -0.175183,-0.398426 z m 0.230994,-0.989087 q 0,0.324012 0.128674,0.47284 0.128675,0.148828 0.322461,0.148828 0.192237,0 0.322461,-0.147278 0.130225,-0.148828 0.130225,-0.465088 0,-0.302307 -0.134876,-0.455786 -0.133325,-0.153479 -0.322461,-0.153479 -0.186035,0 -0.316259,0.151929 -0.130225,0.150378 -0.130225,0.448034 z"
         id="path24" />
    </g>
  </g>
</svg>
