<?xml version="1.0"?>
<svg xmlns="http://www.w3.org/2000/svg" xmlns:svg="http://www.w3.org/2000/svg" xmlns:xlink="http://www.w3.org/1999/xlink" xmlns:sodipodi="http://sodipodi.sourceforge.net/DTD/sodipodi-0.dtd" xmlns:inkscape="http://www.inkscape.org/namespaces/inkscape" viewBox="0 0 793.7007874015749 1122.5196850393702" width="793.7007874015749" height="1122.5196850393702">
  <desc>inx_19403271269 - scale = 1.000000, origin = (0.000000, 0.000000), method = manual</desc>
  <defs>
    <marker id="DistanceX" orient="auto" refX="0.0" refY="0.0" style="overflow:visible">
      <path d="M 3,-3 L -3,3 M 0,-5 L  0,5" style="stroke:#000000; stroke-width:0.5"/>
    </marker>
    <pattern id="Hatch" patternUnits="userSpaceOnUse" width="8" height="8" x="0" y="0">
      <path d="M8 4 l-4,4" stroke="#000000" stroke-width="0.25" linecap="square"/>
      <path d="M6 2 l-4,4" stroke="#000000" stroke-width="0.25" linecap="square"/>
      <path d="M4 0 l-4,4" stroke="#000000" stroke-width="0.25" linecap="square"/>
    </pattern>
    <symbol id="*Model_Space"/>
    <symbol id="*Paper_Space"/>
  </defs>
  <g inkscape:groupmode="layer" inkscape:label="0">
    <path d="M 0.000000,1103.622047 L 0.060171,1102.854851 L 0.474187,1100.643089 L 1.560699,1097.245536 L 3.571139,1093.059238 L 6.663785,1088.572973 L 10.886246,1084.311034 L 16.167968,1080.774700 L 22.323479,1078.388912 L 29.066092,1077.460752 L 36.030885,1078.154484 L 42.804930,1080.485489 L 48.962082,1084.332710 L 54.099261,1089.466672 L 57.870992,1095.588131 L 60.019126,1102.371147 L 60.395118,1109.504137 L 58.972862,1116.723176 L 55.850946,1123.833344 L 51.244132,1130.716011 L 45.464811,1137.322323 L 38.896089,1143.655271 L 31.958897,1149.744462 L 25.076045,1155.618641 L 18.636422,1161.281114 L 12.962516,1166.692449 L 8.284131,1171.763390 L 4.720627,1176.358995 L 2.273243,1180.312998 L 0.828151,1183.449638 L 0.169951,1185.608872 L 0.004347,1186.670397 L -0.012029,1186.572146 L -0.237372,1185.319943 L -1.009113,1182.986595 L -2.610201,1179.700579 L -5.240316,1175.626351 L -8.994608,1170.939805 L -13.851895,1165.803304 L -19.673422,1160.344865 L -26.212302,1154.645349 L -33.132843,1148.736205 L -40.038053,1142.608396 L -46.502888,1136.231172 L -52.110308,1129.577476 L -56.486926,1122.651410 L -59.335086,1115.512572 L -60.458520,1108.292321 L -59.779300,1101.198083 L -57.344575,1094.503654 L -53.322492,1088.525632 L -47.987673,1083.588474 L -41.697526,1079.982665 L -34.861512,1077.921935 L -27.906088,1077.505989 L -21.238460,1078.694802 L -15.212340,1081.299147 L -10.098771,1084.989884 L -6.064587,1089.325938 L -3.160404,1093.798202 L -1.319195,1097.884227 L -0.365540,1101.106905 L -0.034689,1103.089546 L 0.000000,1103.622047" style="fill:none;stroke:#000000"/>
  </g>
</svg>
